<?xml version="1.0" encoding="utf-8"?>
<!-- Generator: Adobe Illustrator 22.1.0, SVG Export Plug-In . SVG Version: 6.00 Build 0)  -->
<svg version="1.1" id="Layer_1" xmlns="http://www.w3.org/2000/svg" xmlns:xlink="http://www.w3.org/1999/xlink" x="0px" y="0px"
	 viewBox="0 0 1366 768" style="enable-background:new 0 0 1366 768;" xml:space="preserve">
<style type="text/css">
	.st0{clip-path:url(#SVGID_2_);fill:#231F20;}
	.st1{fill:none;stroke:#231F20;stroke-width:0.5;}
	.st2{clip-path:url(#SVGID_4_);fill:#2CDA00;}
	.st3{clip-path:url(#SVGID_6_);fill:#8FCA75;}
	.st4{clip-path:url(#SVGID_8_);fill:#8D94C9;}
	.st5{clip-path:url(#SVGID_10_);fill:#BC9FCB;}
	.st6{clip-path:url(#SVGID_12_);fill:#51C2B8;}
	.st7{clip-path:url(#SVGID_14_);fill:#A8DACB;}
	.st8{clip-path:url(#SVGID_16_);fill:#B6E4FA;}
	.st9{clip-path:url(#SVGID_18_);fill:#FBCBBF;}
	.st10{clip-path:url(#SVGID_20_);fill:#F69991;}
	.st11{clip-path:url(#SVGID_22_);fill:#F17DB1;}
	.st12{clip-path:url(#SVGID_24_);fill:#FFE100;}
	.st13{clip-path:url(#SVGID_26_);fill:#FFF450;}
	.st14{clip-path:url(#SVGID_28_);fill:none;}
</style>
<g>
	<g>
		<defs>
			<rect id="SVGID_1_" x="1" width="1366" height="768"/>
		</defs>
		<clipPath id="SVGID_2_">
			<use xlink:href="#SVGID_1_"  style="overflow:visible;"/>
		</clipPath>
		<path class="st0" d="M740,30.9h-2.7v0.3c1,0.1,1,0.2,0.8,0.9c-0.4,1.2-1.3,3.5-1.9,5l0,0c-0.8-2.1-1.7-4.4-2-5.2
			c-0.2-0.5-0.1-0.6,0.7-0.7v-0.3H732v0.3c0.7,0.1,0.9,0.2,1.2,1.1c0.7,1.7,1.7,4.3,2.5,6.5h0.4c0.9-2.5,2.2-5.5,2.5-6.3
			c0.5-1.1,0.6-1.2,1.4-1.3L740,30.9L740,30.9z M730.6,38.7v-0.3c-0.8-0.1-1.1-0.3-1.7-1.1c-0.6-0.9-1.2-1.9-1.9-3
			c0.8-1.2,1.2-1.8,1.5-2.1c0.5-0.7,0.8-0.8,1.7-0.9V31h-2.7v0.3c0.8,0.1,0.9,0.2,0.6,0.7c-0.3,0.6-0.7,1.2-1.2,1.9
			c-0.5-0.8-1-1.5-1.4-2.2c-0.2-0.3-0.2-0.4,0.6-0.5v-0.3h-2.9v0.3c0.9,0.1,1,0.2,1.5,1c0.4,0.7,1,1.6,1.6,2.6c-1,1.6-1.7,2.5-2,2.9
			c-0.3,0.5-0.7,0.6-1.4,0.7v0.3h2.7v-0.3c-0.8-0.1-0.9-0.2-0.6-0.7c0.4-0.7,0.9-1.5,1.5-2.4c0.8,1.2,1.3,2.1,1.6,2.6
			c0.2,0.4,0.1,0.5-0.6,0.6v0.3L730.6,38.7L730.6,38.7z M712.6,34.9v-3c0-0.3,0-0.5,0.1-0.5c0.1-0.1,0.3-0.1,0.6-0.1
			c0.9,0,1.8,0.5,1.8,1.8c0,0.6-0.2,1.1-0.7,1.5c-0.3,0.2-0.7,0.3-1.3,0.3H712.6z M717.6,38.5c-0.3-0.1-0.5-0.2-0.9-0.6
			c-0.3-0.3-0.5-0.6-1-1.2c-0.4-0.5-0.9-1.3-1.1-1.7c0.9-0.4,1.5-1,1.5-2.1c0-0.7-0.3-1.3-0.8-1.6c-0.5-0.3-1-0.4-1.9-0.4h-3v0.3
			c0.9,0.1,1,0.1,1,1.1v4.8c0,1-0.1,1.1-1.1,1.2v0.3h3.2v-0.3c-1-0.1-1.1-0.1-1.1-1.2v-1.9h0.4c0.6,0,0.8,0.1,1,0.5
			c0.4,0.6,0.8,1.3,1.2,1.9c0.5,0.8,1,1,1.9,1.1c0.1,0,0.3,0,0.4,0L717.6,38.5z M708.1,36.8c-0.2,0.5-0.4,0.9-0.6,1.1
			c-0.3,0.3-0.6,0.4-1.5,0.4c-0.6,0-1,0-1.2-0.2s-0.3-0.4-0.3-1v-2.3h1.1c1,0,1.1,0.1,1.3,0.9h0.3v-2.3h-0.3
			c-0.2,0.8-0.2,0.9-1.3,0.9h-1.1v-2.7c0-0.4,0-0.4,0.4-0.4h0.9c0.9,0,1.2,0.1,1.4,0.3c0.2,0.3,0.3,0.5,0.4,1l0.3-0.1
			c0-0.6-0.1-1.4-0.1-1.7h-5.3V31c0.9,0.1,1,0.1,1,1.2V37c0,1-0.1,1.1-1.2,1.2v0.3h5.8c0.1-0.4,0.3-1.5,0.4-1.9L708.1,36.8z
			 M700.3,32.7c-0.1-0.7-0.1-1.6-0.1-2.1h-0.3c-0.2,0.2-0.3,0.3-0.6,0.3h-4.7c-0.3,0-0.5,0-0.7-0.3h-0.2c0,0.7-0.1,1.4-0.1,2.2h0.3
			c0.1-0.5,0.2-0.9,0.4-1.1c0.2-0.3,0.4-0.4,1.4-0.4h0.7v5.9c0,0.9-0.1,1.1-1.2,1.1v0.3h3.4v-0.3c-1.1-0.1-1.2-0.2-1.2-1.1v-5.9h0.9
			c0.9,0,1.1,0.1,1.3,0.4c0.1,0.2,0.3,0.5,0.4,1.1L700.3,32.7z M687.7,32c0-0.3,0-0.5,0.1-0.6s0.3-0.1,0.7-0.1c1,0,1.8,0.6,1.8,1.8
			c0,1.5-1,1.9-1.7,1.9c-0.4,0-0.7-0.1-0.9-0.1L687.7,32L687.7,32z M685.7,30.9v0.3c0.9,0.1,1,0.1,1,1.2v4.8c0,1-0.1,1.1-1.1,1.2
			v0.3h3.3v-0.3c-1.1-0.1-1.2-0.1-1.2-1.2v-1.9l0.9,0.2c0.1,0,0.4,0,0.5,0c1.2-0.2,2.3-0.9,2.3-2.5c0-0.8-0.3-1.3-0.8-1.7
			c-0.5-0.4-1.2-0.5-2-0.5h-2.9V30.9z M680.5,35.4h-2.2c0.4-1,0.7-2,1.1-3.1l0,0L680.5,35.4z M683.6,38.7v-0.3
			c-0.8-0.1-0.9-0.2-1.3-1.2c-0.8-2.1-1.6-4.4-2.3-6.4l-0.4,0.1l-2.5,6.3c-0.4,1.1-0.6,1.1-1.3,1.2v0.3h2.6v-0.3
			c-0.9-0.1-1-0.2-0.7-1c0.2-0.5,0.3-1,0.5-1.5h2.6c0.3,0.7,0.5,1.4,0.7,1.8s0,0.6-0.7,0.7v0.3H683.6z M674.2,30.9h-3.1v0.3
			c0.9,0.1,1,0.1,1,1.1v1.9H668v-1.9c0-1,0.1-1.1,1-1.1v-0.3h-3.1v0.3c1,0.1,1.1,0.1,1.1,1.1v4.8c0,1-0.1,1.1-1.1,1.1v0.3h3.2v-0.3
			c-1-0.1-1.1-0.1-1.1-1.1v-2.4h4.1v2.4c0,1-0.1,1.1-1.1,1.1v0.3h3.2v-0.3c-1-0.1-1.1-0.1-1.1-1.1v-4.8c0-1,0.1-1.1,1.1-1.1
			L674.2,30.9L674.2,30.9z M663.5,36.6c-0.6,1.2-1.2,1.9-2.5,1.9c-1.8,0-3.1-1.5-3.1-3.8c0-1.8,1.1-3.5,3.1-3.5c1.3,0,2,0.5,2.3,1.8
			l0.4-0.1c-0.1-0.6-0.1-1.1-0.2-1.8c-0.3-0.1-1.2-0.3-2.1-0.3c-2.7,0-4.6,1.7-4.6,4.2c0,1.9,1.3,4,4.3,4c0.9,0,1.9-0.2,2.2-0.3
			c0.2-0.4,0.5-1.3,0.7-1.8L663.5,36.6z"/>
	</g>
</g>
<line class="st1" x1="740" y1="47" x2="656" y2="47"/>
<g>
	<g>
		<defs>
			<rect id="SVGID_3_" x="1" width="1366" height="768"/>
		</defs>
		<clipPath id="SVGID_4_">
			<use xlink:href="#SVGID_3_"  style="overflow:visible;"/>
		</clipPath>
		<path class="st2" d="M1293.4,296h-38.2c-0.2,3.8-0.6,7.8-0.9,11.8c-1.1,13.1-2.9,26.6-5.9,36.1c-0.6,1.7-1.3,2.5-2.7,2.5
			s-2.1-0.8-2.7-2.5c-2.1-7.2-4.8-23.4-6.1-36.1c-0.6-4.6-0.8-8.7-0.8-11.8h-38.4c8.6,39.1,31,75.2,31,96.5c0,9.1-0.2,19.4-2.7,36.5
			h38.9c-2.3-17.1-2.5-27.4-2.5-36.5C1262.7,371.2,1284.9,335.1,1293.4,296"/>
	</g>
	<g>
		<defs>
			<rect id="SVGID_5_" x="1" width="1366" height="768"/>
		</defs>
		<clipPath id="SVGID_6_">
			<use xlink:href="#SVGID_5_"  style="overflow:visible;"/>
		</clipPath>
		<path class="st3" d="M1176.4,429c-2.9-31.7-4-45.2-4-66.9c0-16.5,0.8-34.6,3.8-66.1h-38c2.5,24.1,3.4,39.1,3.6,53.8h-19.4
			c0.2-13.5,1-30.4,3.4-53.8h-38c3,31.9,3.8,42.2,3.8,66.1c0,21.3-0.8,36.7-3.8,66.9h38.2c-2.3-23.8-3.2-38.9-3.6-52.4h19.4
			c-0.4,14.6-1.3,30.2-3.4,52.4H1176.4z"/>
	</g>
	<g>
		<defs>
			<rect id="SVGID_7_" x="1" width="1366" height="768"/>
		</defs>
		<clipPath id="SVGID_8_">
			<use xlink:href="#SVGID_7_"  style="overflow:visible;"/>
		</clipPath>
		<path class="st4" d="M1024.5,362.3c-2.1,1.1-3.6,2.1-7.2,3.4v-6.5c0-12.9,0.8-18.4,1.7-20c1.1-1.9,3.2-4,6.6-4
			c4.4,0,7.8,3.4,7.8,11C1033.4,353,1029.8,359.3,1024.5,362.3 M1035,296h-51.5c3.2,33.6,3.6,51.9,3.6,66.1
			c0,17.5-0.4,34.6-3.6,66.9h40.5c-2.3-13.9-4.4-26.6-5.5-40.7c7.6-2.5,15.4-5.3,22.4-9.9c14.4-9.1,22.4-22.6,22.4-47.1
			C1063.3,306.6,1051.9,296,1035,296"/>
	</g>
	<g>
		<defs>
			<rect id="SVGID_9_" x="1" width="1366" height="768"/>
		</defs>
		<clipPath id="SVGID_10_">
			<use xlink:href="#SVGID_9_"  style="overflow:visible;"/>
		</clipPath>
		<path class="st5" d="M910.3,339.3c2.3,0,2.9,0.8,4,6.3c1.5,7.6,2.7,16.7,3.4,27.6h-14.8c0.8-10.6,1.9-20,3.4-27.6
			C907.4,340.1,908,339.3,910.3,339.3 M918.6,429h40.3c-3-14.1-7.8-38.8-11-58.3c-5.7-34.8-7.2-46.2-10.3-74.7h-55.1
			c-3.6,31.9-5.3,42.9-10.5,75.8c-3,19.4-7.8,43.1-10.6,57.2h40.5c-0.6-13.7-0.4-20.1-0.2-30.8h17.1C919,410,919.2,417,918.6,429"/>
	</g>
	<g>
		<defs>
			<rect id="SVGID_11_" x="1" width="1366" height="768"/>
		</defs>
		<clipPath id="SVGID_12_">
			<use xlink:href="#SVGID_11_"  style="overflow:visible;"/>
		</clipPath>
		<path class="st6" d="M791.3,361.7l-5.9,2.8c0.2-10.1,0.8-19.8,1.3-22.6c0.9-4.2,3.2-6.5,7.8-6.5c6.3,0,8.9,3,8.9,8.2
			C803.5,350.3,799.7,356.8,791.3,361.7 M820.8,371.4c-1.5-4.2-1.5-6.1,1.3-9.1c4.8-5.1,15-13.7,15-34.2c0-31.9-21.7-32.1-30-32.1
			h-55.9c3,32.7,3.6,51.3,3.6,66.1c0,16.5-0.8,35.9-3.8,66.9h38.4c-1.9-17.3-3-33.2-3.6-45.4l2.3-1.1c4-1.9,4.9-2.1,6.5,1.7
			c3.4,8.4,5.7,23.8,6.3,44.8h41C834.4,396.7,824.2,380.2,820.8,371.4"/>
	</g>
	<g>
		<defs>
			<rect id="SVGID_13_" x="1" width="1366" height="768"/>
		</defs>
		<clipPath id="SVGID_14_">
			<use xlink:href="#SVGID_13_"  style="overflow:visible;"/>
		</clipPath>
		<path class="st7" d="M685.4,360.4V371c5.5,0.2,7.8,2.1,7.8,10.6c0,5.1-1.9,9.1-7.8,9.1c-6.8,0-11.4-2.9-11.4-27.9
			c0-21.5,4.2-27.4,12.5-27.4c6.5,0,8.5,4.6,8.9,14.4h24.7c-0.2-13.5,0.2-20.3-0.8-29.6c-1.9-18-14.1-26.4-30.8-26.4
			c-32.3,0-46.5,23-46.5,77.5c0,44.6,16,58.7,41.2,58.7h7c15.2,0,26.4-6.5,31.7-11.8c-0.4-6.5-0.6-11.2-0.6-18
			c0-16.5,1-33.1,1.7-39.9C711.8,360.4,697.2,360.6,685.4,360.4"/>
	</g>
	<g>
		<defs>
			<rect id="SVGID_15_" x="1" width="1366" height="768"/>
		</defs>
		<clipPath id="SVGID_16_">
			<use xlink:href="#SVGID_15_"  style="overflow:visible;"/>
		</clipPath>
		<path class="st8" d="M572.2,389.3c-7.2,0-10.6-7.4-10.6-24.5c0-18.6,4.4-28.9,10.6-28.9c6.3,0,10.8,10.5,10.8,29.1
			C583,381.5,579.6,389.3,572.2,389.3 M572.2,294.7c-27.9,0-43.1,26.2-43.1,74.1c0,43.7,12.7,61.4,39.7,61.4h5.9
			c27.5,0,40.8-17.5,40.8-61.6C615.5,321.5,600.3,294.7,572.2,294.7"/>
	</g>
	<g>
		<defs>
			<rect id="SVGID_17_" x="1" width="1366" height="768"/>
		</defs>
		<clipPath id="SVGID_18_">
			<use xlink:href="#SVGID_17_"  style="overflow:visible;"/>
		</clipPath>
		<path class="st9" d="M464,296c2.8,33.6,3.2,50.5,3.2,66.1s-0.6,34.6-3.2,66.9h37c-3-32.3-3.2-51.3-3.2-66.9
			c0-15.4,0.6-32.5,3-66.1H464z"/>
	</g>
	<g>
		<defs>
			<rect id="SVGID_19_" x="1" width="1366" height="768"/>
		</defs>
		<clipPath id="SVGID_20_">
			<use xlink:href="#SVGID_19_"  style="overflow:visible;"/>
		</clipPath>
		<path class="st10" d="M412.7,389.7c-7.4,0-8.7-5.1-8.7-27.5c0-17.7,0.6-32.5,3.6-66.1H370c3,33.4,3.2,47.5,3.2,65.9
			c0,19.4-0.4,34.8-3.2,67.1h68.6c-1.7-22-2.5-51.1-2.5-63.6h-13.9C422.8,384.5,420.3,389.7,412.7,389.7"/>
	</g>
	<g>
		<defs>
			<rect id="SVGID_21_" x="1" width="1366" height="768"/>
		</defs>
		<clipPath id="SVGID_22_">
			<use xlink:href="#SVGID_21_"  style="overflow:visible;"/>
		</clipPath>
		<path class="st11" d="M297.9,391.4c-4.8,0-6.8-1.5-7.2-18c3.6-2.1,8.7-4.6,11-4.6s6.6,8.2,6.6,13.5
			C308.3,388.7,305.5,391.4,297.9,391.4 M299.8,335.1c5.5,0,6.6,3.6,6.6,7c0,3.8-1.3,6.8-4.8,10.3c-2.3,2.1-7.2,5.1-11.2,7
			C290.7,340.3,292.8,335.1,299.8,335.1 M324.7,357.2c0-3.8,14.2-11.2,14.2-33.2c0-16.9-10.3-27.9-23.4-27.9H257
			c2.1,25.1,3.2,48.6,3.2,66.1c0,19.4-1,36.7-3,66.9h58c19.4,0,28.1-15.2,28.1-32.1C343.3,373.3,324.7,363.8,324.7,357.2"/>
	</g>
	<g>
		<defs>
			<rect id="SVGID_23_" x="1" width="1366" height="768"/>
		</defs>
		<clipPath id="SVGID_24_">
			<use xlink:href="#SVGID_23_"  style="overflow:visible;"/>
		</clipPath>
		<path class="st12" d="M190.9,296c2.8,33.6,3.2,50.5,3.2,66.1s-0.6,34.6-3.2,66.9h37c-3-32.3-3.2-51.3-3.2-66.9
			c0-15.4,0.6-32.5,3-66.1H190.9z"/>
	</g>
	<g>
		<defs>
			<rect id="SVGID_25_" x="1" width="1366" height="768"/>
		</defs>
		<clipPath id="SVGID_26_">
			<use xlink:href="#SVGID_25_"  style="overflow:visible;"/>
		</clipPath>
		<path class="st13" d="M118.7,391.4c-4.8,0-6.8-1.5-7.2-18c3.6-2.1,8.7-4.6,11-4.6s6.6,8.2,6.6,13.5
			C129.1,388.7,126.2,391.4,118.7,391.4 M120.6,335.1c5.5,0,6.6,3.6,6.6,7c0,3.8-1.3,6.8-4.8,10.3c-2.3,2.1-7.2,5.1-11.2,7
			C111.4,340.3,113.5,335.1,120.6,335.1 M145.4,357.2c0-3.8,14.2-11.2,14.2-33.2c0-16.9-10.3-27.9-23.4-27.9H77.8
			c2.1,25.1,3.2,48.6,3.2,66.1c0,19.4-0.9,36.7-3,66.9h57.9c19.4,0,28.1-15.2,28.1-32.1C164.1,373.3,145.4,363.8,145.4,357.2"/>
	</g>
</g>
<g>
	<g>
		<defs>
			<rect id="SVGID_27_" x="1" width="1366" height="768"/>
		</defs>
		<clipPath id="SVGID_28_">
			<use xlink:href="#SVGID_27_"  style="overflow:visible;"/>
		</clipPath>
		<rect x="1.5" y="0.5" class="st14" width="1365" height="767"/>
	</g>
</g>
</svg>
