<?xml version="1.0" encoding="utf-8"?>
<!-- Generator: Adobe Illustrator 22.1.0, SVG Export Plug-In . SVG Version: 6.00 Build 0)  -->
<svg version="1.1" id="Layer_1" xmlns="http://www.w3.org/2000/svg" xmlns:xlink="http://www.w3.org/1999/xlink" x="0px" y="0px"
	 viewBox="0 0 1366 768" style="enable-background:new 0 0 1366 768;" xml:space="preserve">
<style type="text/css">
	.st0{clip-path:url(#SVGID_2_);fill:#231F20;}
	.st1{fill:none;stroke:#231F20;stroke-width:0.5;}
	.st2{clip-path:url(#SVGID_4_);fill:#51C2B8;}
	.st3{clip-path:url(#SVGID_6_);fill:#A8DACB;}
	.st4{clip-path:url(#SVGID_8_);fill:#B6E4FA;}
	.st5{clip-path:url(#SVGID_10_);fill:#00AEEF;}
	.st6{clip-path:url(#SVGID_12_);fill:#8D94C9;}
	.st7{clip-path:url(#SVGID_14_);fill:#BC9FCB;}
	.st8{clip-path:url(#SVGID_16_);fill:#ED0B6F;}
	.st9{clip-path:url(#SVGID_18_);fill:#F17DB1;}
	.st10{clip-path:url(#SVGID_20_);fill:#F69991;}
	.st11{clip-path:url(#SVGID_22_);fill:#FBCBBF;}
	.st12{clip-path:url(#SVGID_24_);fill:none;}
</style>
<g>
	<g>
		<defs>
			<rect id="SVGID_1_" x="1" y="1" width="1366" height="768"/>
		</defs>
		<clipPath id="SVGID_2_">
			<use xlink:href="#SVGID_1_"  style="overflow:visible;"/>
		</clipPath>
		<path class="st0" d="M742.8,31.9h-2.7v0.3c1,0.1,1,0.2,0.8,0.9c-0.4,1.2-1.3,3.5-1.9,5l0,0c-0.8-2.1-1.7-4.4-2-5.2
			c-0.2-0.5-0.1-0.6,0.7-0.7v-0.3h-2.9v0.3c0.7,0.1,0.9,0.2,1.2,1.1c0.7,1.7,1.7,4.3,2.5,6.5h0.4c0.9-2.5,2.2-5.5,2.5-6.3
			c0.5-1.1,0.6-1.2,1.4-1.3V31.9z M732.8,39.7v-0.3c-1-0.1-1.1-0.1-1.1-1.2v-4.8c0-1,0.1-1.1,1.1-1.2v-0.3h-3.2v0.3
			c1,0.1,1.1,0.1,1.1,1.2v4.8c0,1-0.1,1.1-1.1,1.2v0.3H732.8z M727.8,39.7v-0.3c-0.8-0.1-1.1-0.3-1.7-1.1c-0.6-0.9-1.2-1.9-1.9-3
			c0.8-1.2,1.2-1.8,1.5-2.1c0.5-0.7,0.8-0.8,1.7-0.9V32h-2.7v0.3c0.8,0.1,0.9,0.2,0.6,0.7c-0.3,0.6-0.7,1.2-1.2,1.9
			c-0.5-0.8-1-1.5-1.4-2.2c-0.2-0.3-0.2-0.4,0.6-0.5v-0.3h-2.9v0.3c0.9,0.1,1,0.2,1.5,1c0.4,0.7,1,1.6,1.6,2.6c-1,1.6-1.7,2.5-2,2.9
			c-0.3,0.5-0.7,0.6-1.4,0.7v0.3h2.7v-0.3c-0.8-0.1-0.9-0.2-0.6-0.7c0.4-0.7,0.9-1.5,1.5-2.4c0.8,1.2,1.3,2.1,1.6,2.6
			c0.2,0.4,0.1,0.5-0.6,0.6v0.3L727.8,39.7L727.8,39.7z M709.8,35.9v-3c0-0.3,0-0.5,0.1-0.5c0.1-0.1,0.3-0.1,0.6-0.1
			c0.9,0,1.8,0.5,1.8,1.8c0,0.6-0.2,1.1-0.7,1.5c-0.3,0.2-0.7,0.3-1.3,0.3H709.8z M714.8,39.5c-0.3-0.1-0.5-0.2-0.9-0.6
			c-0.3-0.3-0.5-0.6-1-1.2c-0.4-0.5-0.9-1.3-1.1-1.7c0.9-0.4,1.5-1,1.5-2.1c0-0.7-0.3-1.3-0.8-1.6s-1-0.4-1.9-0.4h-3v0.3
			c0.9,0.1,1,0.1,1,1.1v4.8c0,1-0.1,1.1-1.1,1.2v0.3h3.2v-0.3c-1-0.1-1.1-0.1-1.1-1.2v-1.9h0.4c0.6,0,0.8,0.1,1,0.5
			c0.4,0.6,0.8,1.3,1.2,1.9c0.5,0.8,1,1,1.9,1.1c0.1,0,0.3,0,0.4,0L714.8,39.5z M705.3,37.8c-0.2,0.5-0.4,0.9-0.6,1.1
			c-0.3,0.3-0.6,0.4-1.5,0.4c-0.6,0-1,0-1.2-0.2s-0.3-0.4-0.3-1v-2.3h1.1c1,0,1.1,0.1,1.3,0.9h0.3v-2.3h-0.3
			c-0.2,0.8-0.2,0.9-1.3,0.9h-1.1v-2.7c0-0.4,0-0.4,0.4-0.4h0.9c0.9,0,1.2,0.1,1.4,0.3c0.2,0.3,0.3,0.5,0.4,1l0.3-0.1
			c0-0.6-0.1-1.4-0.1-1.7h-5.3V32c0.9,0.1,1,0.1,1,1.2V38c0,1-0.1,1.1-1.2,1.2v0.3h5.8c0.1-0.4,0.3-1.5,0.4-1.9L705.3,37.8z
			 M697.5,33.7c-0.1-0.7-0.1-1.6-0.1-2.1h-0.3c-0.2,0.2-0.3,0.3-0.6,0.3h-4.7c-0.3,0-0.5,0-0.7-0.3h-0.2c0,0.7-0.1,1.4-0.1,2.2h0.3
			c0.1-0.5,0.2-0.9,0.4-1.1c0.2-0.3,0.4-0.4,1.4-0.4h0.7v5.9c0,0.9-0.1,1.1-1.2,1.1v0.3h3.4v-0.3c-1.1-0.1-1.2-0.2-1.2-1.1v-5.9h0.9
			c0.9,0,1.1,0.1,1.3,0.4c0.1,0.2,0.3,0.5,0.4,1.1L697.5,33.7z M684.9,33c0-0.3,0-0.5,0.1-0.6s0.3-0.1,0.7-0.1c1,0,1.8,0.6,1.8,1.8
			c0,1.5-1,1.9-1.7,1.9c-0.4,0-0.7-0.1-0.9-0.1L684.9,33L684.9,33z M682.9,31.9v0.3c0.9,0.1,1,0.1,1,1.2v4.8c0,1-0.1,1.1-1.1,1.2
			v0.3h3.3v-0.3c-1.1-0.1-1.2-0.1-1.2-1.2v-1.9l0.9,0.2c0.1,0,0.4,0,0.5,0c1.2-0.2,2.3-0.9,2.3-2.5c0-0.8-0.3-1.3-0.8-1.7
			c-0.5-0.4-1.2-0.5-2-0.5h-2.9V31.9z M677.7,36.4h-2.2c0.4-1,0.7-2,1.1-3.1l0,0L677.7,36.4z M680.8,39.7v-0.3
			c-0.8-0.1-0.9-0.2-1.3-1.2c-0.8-2.1-1.6-4.4-2.3-6.4l-0.4,0.1l-2.5,6.3c-0.4,1.1-0.6,1.1-1.3,1.2v0.3h2.6v-0.3
			c-0.9-0.1-1-0.2-0.7-1c0.2-0.5,0.3-1,0.5-1.5h2.6c0.3,0.7,0.5,1.4,0.7,1.8s0,0.6-0.7,0.7v0.3H680.8z M671.4,31.9h-3.1v0.3
			c0.9,0.1,1,0.1,1,1.1v1.9h-4.1v-1.9c0-1,0.1-1.1,1-1.1v-0.3h-3.1v0.3c1,0.1,1.1,0.1,1.1,1.1v4.8c0,1-0.1,1.1-1.1,1.1v0.3h3.2v-0.3
			c-1-0.1-1.1-0.1-1.1-1.1v-2.4h4.1v2.4c0,1-0.1,1.1-1.1,1.1v0.3h3.2v-0.3c-1-0.1-1.1-0.1-1.1-1.1v-4.8c0-1,0.1-1.1,1.1-1.1
			L671.4,31.9L671.4,31.9z M660.7,37.6c-0.6,1.2-1.2,1.9-2.5,1.9c-1.8,0-3.1-1.5-3.1-3.8c0-1.8,1.1-3.5,3.1-3.5c1.3,0,2,0.5,2.3,1.8
			l0.4-0.1c-0.1-0.6-0.1-1.1-0.2-1.8c-0.3-0.1-1.2-0.3-2.1-0.3c-2.7,0-4.6,1.7-4.6,4.2c0,1.9,1.3,4,4.3,4c0.9,0,1.9-0.2,2.2-0.3
			c0.2-0.4,0.5-1.3,0.7-1.8L660.7,37.6z"/>
	</g>
</g>
<line class="st1" x1="742" y1="48" x2="653" y2="48"/>
<g>
	<g>
		<defs>
			<rect id="SVGID_3_" x="1" y="1" width="1366" height="768"/>
		</defs>
		<clipPath id="SVGID_4_">
			<use xlink:href="#SVGID_3_"  style="overflow:visible;"/>
		</clipPath>
		<path class="st2" d="M1293.4,297l-37.6,0.2c2.1,14.6,3.6,34.6,3.6,44.5c0,3.6,0,7-0.2,8.4c-0.4,2.9-1.9,3-2.8,3
			c-1.1,0-2.3-1.3-3.4-3.6c-4.8-9.3-11.6-31.2-15.8-52.4h-34.4c2.5,33.1,3.2,49,3.2,65.7c0,18.2-0.4,35.3-3.4,67.3h37.8
			c-2.3-14.8-3.8-35.9-3.8-44.6c0-2.3,0-7,0.2-8.4c0.4-2.9,1.9-3,2.9-3c0.9,0,2.1,1.1,3.2,3.2c5.1,9.3,12.3,33.6,16.2,52.8h34.4
			c-2.7-30.8-3.2-49.4-3.2-66.1C1290.2,344.1,1290.9,328.5,1293.4,297"/>
	</g>
	<g>
		<defs>
			<rect id="SVGID_5_" x="1" y="1" width="1366" height="768"/>
		</defs>
		<clipPath id="SVGID_6_">
			<use xlink:href="#SVGID_5_"  style="overflow:visible;"/>
		</clipPath>
		<path class="st3" d="M1109,390.3c-7.2,0-10.6-7.4-10.6-24.5c0-18.6,4.4-28.9,10.6-28.9c6.3,0,10.8,10.5,10.8,29.1
			C1119.8,382.5,1116.4,390.3,1109,390.3 M1109,295.7c-27.9,0-43.1,26.2-43.1,74.1c0,43.7,12.7,61.4,39.7,61.4h5.9
			c27.5,0,40.8-17.5,40.8-61.6C1152.3,322.5,1137.1,295.7,1109,295.7"/>
	</g>
	<g>
		<defs>
			<rect id="SVGID_7_" x="1" y="1" width="1366" height="768"/>
		</defs>
		<clipPath id="SVGID_8_">
			<use xlink:href="#SVGID_7_"  style="overflow:visible;"/>
		</clipPath>
		<path class="st4" d="M978.2,297c2.8,33.6,3.2,50.5,3.2,66.1s-0.6,34.6-3.2,66.9h37c-3-32.3-3.2-51.3-3.2-66.9
			c0-15.4,0.6-32.5,3-66.1H978.2z"/>
	</g>
	<g>
		<defs>
			<rect id="SVGID_9_" x="1" y="1" width="1366" height="768"/>
		</defs>
		<clipPath id="SVGID_10_">
			<use xlink:href="#SVGID_9_"  style="overflow:visible;"/>
		</clipPath>
		<path class="st5" d="M885,391.4c-6.7,0-9.3-4-8.9-15.2h-21.3v30c0,20,11.2,25.8,29.3,25.8h10.5c17.3,0,34-9.3,34-36.9
			c0-27-11-33.8-23.9-37.4c-14.6-4.2-19.9-6.1-19.9-13.7c0-4.4,2.3-8.5,7.8-8.5c5.9,0,9.1,2.7,8.7,15h22.2
			c0.2-5.7,0.2-23.4,0.2-28.7c0-18.2-11.8-27-29.6-27h-6.5c-20.3,0-33.1,12.5-33.1,38c0,23.9,8,32.3,22.8,36.5
			c12,3.4,16.9,6.3,16.9,13.5C894.1,388.6,891.8,391.4,885,391.4"/>
	</g>
	<g>
		<defs>
			<rect id="SVGID_11_" x="1" y="1" width="1366" height="768"/>
		</defs>
		<clipPath id="SVGID_12_">
			<use xlink:href="#SVGID_11_"  style="overflow:visible;"/>
		</clipPath>
		<path class="st6" d="M805.1,297h-38.4c2.5,18.1,4.4,51.5,4.4,69.4c0,17.7-2.3,23-8.9,23c-6.5,0-9.1-5.9-9.1-23
			c0-20.1,2.3-52.1,4.6-69.4H719c1.9,14.8,3.6,33.6,3.6,52.1c0,9.3-1.1,26.6-1.1,39.1c0,28.3,7.2,43.9,34.2,43.9h12.7
			c27.4,0,34.2-15.6,34.2-43.9c0-12.5-1.1-29.8-1.1-39.1C801.5,331,803,311.8,805.1,297"/>
	</g>
	<g>
		<defs>
			<rect id="SVGID_13_" x="1" y="1" width="1366" height="768"/>
		</defs>
		<clipPath id="SVGID_14_">
			<use xlink:href="#SVGID_13_"  style="overflow:visible;"/>
		</clipPath>
		<path class="st7" d="M646.7,390.7c-7.4,0-8.7-5.1-8.7-27.5c0-17.7,0.6-32.5,3.6-66.1H604c3,33.4,3.2,47.5,3.2,65.9
			c0,19.4-0.4,34.8-3.2,67.1h68.6c-1.7-22-2.5-51.1-2.5-63.6h-13.9C656.8,385.5,654.3,390.7,646.7,390.7"/>
	</g>
	<g>
		<defs>
			<rect id="SVGID_15_" x="1" y="1" width="1366" height="768"/>
		</defs>
		<clipPath id="SVGID_16_">
			<use xlink:href="#SVGID_15_"  style="overflow:visible;"/>
		</clipPath>
		<path class="st8" d="M527.7,370.3c0.2,13.1-0.6,20.3-8.4,20.3c-8.5,0-9.9-9.1-9.9-27.5c0-18.1,3.2-26.6,10.3-26.6
			c5.5,0,8,5.1,8,18.4h23.9c0-2.3,0.4-25.8-0.6-33.8c-1.9-17.7-13.1-26.2-29.3-26.2c-30.6,0-44.3,23.8-44.3,76.8
			c0,42.4,11.4,60.4,34.6,60.4h12c15.2,0,27.7-8,28.5-26.6c0.2-5.9-0.2-12.7-1-35.2L527.7,370.3L527.7,370.3z"/>
	</g>
	<g>
		<defs>
			<rect id="SVGID_17_" x="1" y="1" width="1366" height="768"/>
		</defs>
		<clipPath id="SVGID_18_">
			<use xlink:href="#SVGID_17_"  style="overflow:visible;"/>
		</clipPath>
		<path class="st9" d="M426.9,297l-37.6,0.2c2.1,14.6,3.6,34.6,3.6,44.5c0,3.6,0,7-0.2,8.4c-0.4,2.9-1.9,3-2.9,3
			c-1.1,0-2.3-1.3-3.4-3.6c-4.8-9.3-11.6-31.2-15.8-52.4h-34.4c2.5,33.1,3.2,49,3.2,65.7c0,18.2-0.4,35.3-3.4,67.3h37.8
			c-2.3-14.8-3.8-35.9-3.8-44.6c0-2.3,0-7,0.2-8.4c0.4-2.9,1.9-3,2.9-3s2.1,1.1,3.2,3.2c5.1,9.3,12.4,33.6,16.1,52.8h34.4
			c-2.7-30.8-3.2-49.4-3.2-66.1C423.6,344.1,424.4,328.5,426.9,297"/>
	</g>
	<g>
		<defs>
			<rect id="SVGID_19_" x="1" y="1" width="1366" height="768"/>
		</defs>
		<clipPath id="SVGID_20_">
			<use xlink:href="#SVGID_19_"  style="overflow:visible;"/>
		</clipPath>
		<path class="st10" d="M242.5,390.3c-7.2,0-10.6-7.4-10.6-24.5c0-18.6,4.4-28.9,10.6-28.9c6.3,0,10.8,10.5,10.8,29.1
			C253.3,382.5,249.9,390.3,242.5,390.3 M242.5,295.7c-27.9,0-43.1,26.2-43.1,74.1c0,43.7,12.7,61.4,39.7,61.4h5.9
			c27.5,0,40.9-17.5,40.9-61.6C285.8,322.5,270.6,295.7,242.5,295.7"/>
	</g>
	<g>
		<defs>
			<rect id="SVGID_21_" x="1" y="1" width="1366" height="768"/>
		</defs>
		<clipPath id="SVGID_22_">
			<use xlink:href="#SVGID_21_"  style="overflow:visible;"/>
		</clipPath>
		<path class="st11" d="M124,370.3c0.2,13.1-0.6,20.3-8.4,20.3c-8.6,0-9.9-9.1-9.9-27.5c0-18.1,3.2-26.6,10.3-26.6
			c5.5,0,8,5.1,8,18.4h23.9c0-2.3,0.4-25.8-0.6-33.8c-1.9-17.7-13.1-26.2-29.3-26.2c-30.6,0-44.3,23.8-44.3,76.8
			c0,42.4,11.4,60.4,34.6,60.4h12c15.2,0,27.7-8,28.5-26.6c0.2-5.9-0.2-12.7-0.9-35.2L124,370.3L124,370.3z"/>
	</g>
</g>
<g>
	<g>
		<defs>
			<rect id="SVGID_23_" x="1" y="1" width="1366" height="768"/>
		</defs>
		<clipPath id="SVGID_24_">
			<use xlink:href="#SVGID_23_"  style="overflow:visible;"/>
		</clipPath>
		<rect x="1.5" y="1.5" class="st12" width="1365" height="767"/>
	</g>
</g>
</svg>
