<?xml version="1.0" encoding="utf-8"?>
<!-- Generator: Adobe Illustrator 22.1.0, SVG Export Plug-In . SVG Version: 6.00 Build 0)  -->
<svg version="1.1" id="Layer_1" xmlns="http://www.w3.org/2000/svg" xmlns:xlink="http://www.w3.org/1999/xlink" x="0px" y="0px"
	 viewBox="0 0 1366 768" style="enable-background:new 0 0 1366 768;" xml:space="preserve">
<style type="text/css">
	.st0{clip-path:url(#SVGID_2_);fill:none;}
	.st1{clip-path:url(#SVGID_4_);fill:#231F20;}
	.st2{fill:none;stroke:#231F20;stroke-width:0.5;}
	.st3{clip-path:url(#SVGID_6_);fill:#BC9FCB;}
	.st4{clip-path:url(#SVGID_8_);fill:#8D94C9;}
	.st5{clip-path:url(#SVGID_10_);fill:#FFE100;}
	.st6{clip-path:url(#SVGID_12_);fill:#FFF450;}
	.st7{clip-path:url(#SVGID_14_);fill:#B6E4FA;}
	.st8{clip-path:url(#SVGID_16_);fill:#00AEEF;}
	.st9{clip-path:url(#SVGID_18_);fill:#E41F26;}
	.st10{clip-path:url(#SVGID_20_);fill:#ED0B6F;}
	.st11{clip-path:url(#SVGID_22_);fill:#F9CDE1;}
	.st12{clip-path:url(#SVGID_24_);fill:#F17DB1;}
	.st13{clip-path:url(#SVGID_26_);fill:#F69991;}
	.st14{clip-path:url(#SVGID_28_);fill:#FBCBBF;}
	.st15{clip-path:url(#SVGID_30_);fill:#F9CDE1;}
	.st16{clip-path:url(#SVGID_32_);fill:#8FCA75;}
	.st17{clip-path:url(#SVGID_34_);fill:#2CDA00;}
	.st18{clip-path:url(#SVGID_36_);fill:#51C2B8;}
	.st19{clip-path:url(#SVGID_38_);fill:#A8DACB;}
	.st20{clip-path:url(#SVGID_40_);fill:#8D94C9;}
	.st21{clip-path:url(#SVGID_42_);fill:#BC9FCB;}
	.st22{clip-path:url(#SVGID_44_);fill:#00AEEF;}
	.st23{clip-path:url(#SVGID_46_);fill:#B6E4FA;}
	.st24{clip-path:url(#SVGID_48_);fill:#FFE100;}
	.st25{clip-path:url(#SVGID_50_);fill:#FFF450;}
	.st26{clip-path:url(#SVGID_52_);fill:#F9CDE1;}
	.st27{clip-path:url(#SVGID_54_);fill:#E41F26;}
	.st28{clip-path:url(#SVGID_56_);fill:#F17DB1;}
	.st29{clip-path:url(#SVGID_58_);fill:#FBCBBF;}
	.st30{clip-path:url(#SVGID_60_);fill:#F69991;}
	.st31{clip-path:url(#SVGID_62_);fill:#F9CDE1;}
	.st32{clip-path:url(#SVGID_64_);fill:none;}
</style>
<g>
	<g>
		<defs>
			<rect id="SVGID_1_" y="1" width="1366" height="768"/>
		</defs>
		<clipPath id="SVGID_2_">
			<use xlink:href="#SVGID_1_"  style="overflow:visible;"/>
		</clipPath>
		<rect x="0.5" y="1.5" class="st0" width="1365" height="767"/>
	</g>
</g>
<g>
	<g>
		<defs>
			<rect id="SVGID_3_" x="1" width="1366" height="768"/>
		</defs>
		<clipPath id="SVGID_4_">
			<use xlink:href="#SVGID_3_"  style="overflow:visible;"/>
		</clipPath>
		<path class="st1" d="M750.8,30.9H748v0.3c0.8,0,1.1,0.2,1.2,0.7c0,0.3,0.1,0.9,0.1,2v3l0,0l-5-6h-1.8v0.3c0.6,0,0.8,0.1,1.1,0.4
			c0.2,0.3,0.2,0.3,0.2,1.2v2.6c0,1.1,0,1.7-0.1,2.1c-0.1,0.6-0.4,0.7-1.1,0.8v0.3h2.8v-0.3c-0.8,0-1.1-0.2-1.2-0.8
			c0-0.3-0.1-0.9-0.1-2v-3l0,0l5.1,6.3h0.4V34c0-1.1,0-1.7,0.1-2c0-0.5,0.3-0.7,1-0.7L750.8,30.9L750.8,30.9z M736.3,31.2
			c1.6,0,2.9,1.3,2.9,3.9c0,2.3-1.2,3.4-2.5,3.4c-1.7,0-2.9-1.6-2.9-3.9C733.7,32.3,734.9,31.2,736.3,31.2 M736.5,30.7
			c-2.5,0-4,2-4,4.2c0,2.3,1.7,4,3.9,4s4-1.6,4-4.2C740.4,32.3,738.6,30.7,736.5,30.7 M730.3,38.7v-0.3c-1-0.1-1.1-0.1-1.1-1.2v-4.8
			c0-1,0.1-1.1,1.1-1.2v-0.3h-3.2v0.3c1,0.1,1.1,0.1,1.1,1.2v4.8c0,1-0.1,1.1-1.1,1.2v0.3H730.3z M725.1,32.7
			c-0.1-0.7-0.1-1.6-0.1-2.1h-0.3c-0.2,0.2-0.3,0.3-0.6,0.3h-4.7c-0.3,0-0.5,0-0.7-0.3h-0.2c0,0.7-0.1,1.4-0.1,2.2h0.3
			c0.1-0.5,0.2-0.9,0.4-1.1c0.2-0.3,0.4-0.4,1.4-0.4h0.7v5.9c0,0.9-0.1,1.1-1.2,1.1v0.3h3.4v-0.3c-1.1-0.1-1.2-0.2-1.2-1.1v-5.9h0.9
			c0.9,0,1.1,0.1,1.3,0.4c0.1,0.2,0.3,0.5,0.4,1.1L725.1,32.7z M716,36.6c-0.6,1.2-1.2,1.9-2.5,1.9c-1.8,0-3.1-1.5-3.1-3.8
			c0-1.8,1.1-3.5,3.1-3.5c1.3,0,2,0.5,2.3,1.8l0.4-0.1c-0.1-0.6-0.1-1.1-0.2-1.8c-0.3-0.1-1.2-0.3-2.1-0.3c-2.7,0-4.6,1.7-4.6,4.2
			c0,1.9,1.3,4,4.3,4c0.9,0,1.9-0.2,2.2-0.3c0.2-0.4,0.5-1.3,0.7-1.8L716,36.6z M707.1,30.9h-2.9v0.3c0.8,0.1,1.1,0.2,1.2,0.7
			c0,0.4,0.1,0.9,0.1,2v0.9c0,2-0.5,3.4-2.3,3.4c-1.5,0-2.3-1.1-2.3-3v-2.7c0-1.1,0.1-1.2,1-1.2V31h-3.1v0.3c0.9,0.1,1,0.1,1,1.2v3
			c0,1.4,0.3,2.3,1.1,2.9c0.5,0.4,1.2,0.6,1.9,0.6c0.8,0,1.6-0.3,2.1-0.8c0.7-0.7,0.9-1.8,0.9-3.2v-1c0-1.1,0-1.6,0.1-1.9
			c0.1-0.5,0.3-0.7,1.1-0.7v-0.5H707.1z M691.1,32.2c0-0.5,0-0.6,0.2-0.7c0.1-0.1,0.4-0.1,0.9-0.1c0.8,0,1.5,0.1,2,0.5
			c1,0.6,1.4,1.6,1.4,2.9c0,1.9-1,3.6-3.3,3.6c-0.9,0-1.3-0.2-1.3-1.1L691.1,32.2L691.1,32.2z M689,30.9v0.3c0.9,0.1,1,0.1,1,1.2
			v4.8c0,1-0.1,1.1-1.1,1.2v0.3h2.8c1.5,0,2.7-0.3,3.6-1c0.9-0.7,1.5-1.8,1.5-3.2c0-1.1-0.4-2-1-2.6c-0.7-0.7-1.9-1-3.4-1
			C692.4,30.9,689,30.9,689,30.9z M682.7,31.2c1.6,0,2.9,1.3,2.9,3.9c0,2.3-1.2,3.4-2.5,3.4c-1.7,0-2.9-1.6-2.9-3.9
			C680.1,32.3,681.3,31.2,682.7,31.2 M682.9,30.7c-2.5,0-4,2-4,4.2c0,2.3,1.7,4,3.9,4s4-1.6,4-4.2C686.8,32.3,684.9,30.7,682.9,30.7
			 M672.2,34.9v-3c0-0.3,0-0.5,0.1-0.5c0.1-0.1,0.3-0.1,0.6-0.1c0.9,0,1.8,0.5,1.8,1.8c0,0.6-0.2,1.1-0.7,1.5
			c-0.3,0.2-0.7,0.3-1.3,0.3H672.2z M677.2,38.5c-0.3-0.1-0.5-0.2-0.9-0.6c-0.3-0.3-0.5-0.6-1-1.2c-0.4-0.5-0.9-1.3-1.1-1.7
			c0.9-0.4,1.5-1,1.5-2.1c0-0.7-0.3-1.3-0.8-1.6c-0.5-0.3-1-0.4-1.9-0.4h-3v0.3c0.9,0.1,1,0.1,1,1.1v4.8c0,1-0.1,1.1-1.1,1.2v0.3
			h3.2v-0.3c-1-0.1-1.1-0.1-1.1-1.2v-1.9h0.4c0.6,0,0.8,0.1,1,0.5c0.4,0.6,0.8,1.3,1.2,1.9c0.5,0.8,1,1,1.9,1.1c0.1,0,0.3,0,0.4,0
			L677.2,38.5z M668,32.7c-0.1-0.7-0.1-1.6-0.1-2.1h-0.3c-0.2,0.2-0.3,0.3-0.6,0.3h-4.7c-0.3,0-0.5,0-0.7-0.3h-0.2
			c0,0.7-0.1,1.4-0.1,2.2h0.3c0.1-0.5,0.2-0.9,0.4-1.1c0.2-0.3,0.4-0.4,1.4-0.4h0.7v5.9c0,0.9-0.1,1.1-1.2,1.1v0.3h3.4v-0.3
			c-1.1-0.1-1.2-0.2-1.2-1.1v-5.9h0.9c0.9,0,1.1,0.1,1.3,0.4c0.1,0.2,0.3,0.5,0.4,1.1L668,32.7z M659.3,30.9h-2.8v0.3
			c0.8,0,1.1,0.2,1.2,0.7c0,0.3,0.1,0.9,0.1,2v3l0,0l-5-6H651v0.3c0.6,0,0.8,0.1,1.1,0.4c0.2,0.3,0.2,0.3,0.2,1.2v2.6
			c0,1.1,0,1.7-0.1,2.1c-0.1,0.6-0.4,0.7-1.1,0.8v0.3h2.8v-0.3c-0.8,0-1.1-0.2-1.2-0.8c0-0.3-0.1-0.9-0.1-2v-3l0,0l5.1,6.3h0.4V34
			c0-1.1,0-1.7,0.1-2c0-0.5,0.3-0.7,1-0.7L659.3,30.9L659.3,30.9z M648.9,38.7v-0.3c-1-0.1-1.1-0.1-1.1-1.2v-4.8
			c0-1,0.1-1.1,1.1-1.2v-0.3h-3.2v0.3c1,0.1,1.1,0.1,1.1,1.2v4.8c0,1-0.1,1.1-1.1,1.2v0.3H648.9z"/>
	</g>
</g>
<line class="st2" x1="749" y1="47" x2="645" y2="47"/>
<g>
	<g>
		<defs>
			<rect id="SVGID_5_" x="1" width="1366" height="768"/>
		</defs>
		<clipPath id="SVGID_6_">
			<use xlink:href="#SVGID_5_"  style="overflow:visible;"/>
		</clipPath>
		<path class="st3" d="M1293,640c-1-28.7-1.9-41.2-1.9-58.3H1277c-0.2,15.8-4,20.7-13.3,20.7c-9.9,0-13.5-3.6-14.1-22.2
			c1.1,0,1.9,0,3.2,0.2c4.2,0.4,6.8,5.3,8.6,13.7h7.2c-1.3-14.1-0.6-27,0-39.1h-7c-1.7,8.6-3.8,14.4-8.7,14.8
			c-1.5,0.2-2.3,0.2-3.2,0.2c0.6-19.6,3.8-23.8,14.1-23.8c9.1,0,12.7,4.8,13.5,18.2h13.7c0-29.1,1-38.6,1.9-57.4H1217
			c2.8,32.9,4,49.2,4,66.3c0,17.9-1.3,35.7-3.8,66.7L1293,640L1293,640z"/>
	</g>
	<g>
		<defs>
			<rect id="SVGID_7_" x="1" width="1366" height="768"/>
		</defs>
		<clipPath id="SVGID_8_">
			<use xlink:href="#SVGID_7_"  style="overflow:visible;"/>
		</clipPath>
		<path class="st4" d="M1142.9,602.4c-4.8,0-6.8-1.5-7.2-18c3.6-2.1,8.7-4.6,11-4.6s6.7,8.2,6.7,13.5
			C1153.4,599.7,1150.5,602.4,1142.9,602.4 M1144.8,546.1c5.5,0,6.6,3.6,6.6,7c0,3.8-1.3,6.8-4.8,10.3c-2.3,2.1-7.2,5.1-11.2,7
			C1135.7,551.3,1137.8,546.1,1144.8,546.1 M1169.7,568.2c0-3.8,14.2-11.2,14.2-33.2c0-16.9-10.3-27.9-23.4-27.9H1102
			c2.1,25.1,3.2,48.6,3.2,66.1c0,19.4-1,36.7-3,66.9h58c19.4,0,28.1-15.2,28.1-32.1C1188.3,584.3,1169.7,574.8,1169.7,568.2"/>
	</g>
	<g>
		<defs>
			<rect id="SVGID_9_" x="1" width="1366" height="768"/>
		</defs>
		<clipPath id="SVGID_10_">
			<use xlink:href="#SVGID_9_"  style="overflow:visible;"/>
		</clipPath>
		<path class="st5" d="M918.6,600.3c-7.2,0-10.6-7.4-10.6-24.5c0-18.6,4.4-28.9,10.6-28.9c6.3,0,10.8,10.5,10.8,29.1
			C929.5,592.5,926.1,600.3,918.6,600.3 M918.6,505.7c-27.9,0-43.1,26.2-43.1,74.1c0,43.7,12.7,61.4,39.7,61.4h5.9
			c27.5,0,40.8-17.5,40.8-61.6C962,532.5,946.8,505.7,918.6,505.7"/>
	</g>
	<g>
		<defs>
			<rect id="SVGID_11_" x="1" width="1366" height="768"/>
		</defs>
		<clipPath id="SVGID_12_">
			<use xlink:href="#SVGID_11_"  style="overflow:visible;"/>
		</clipPath>
		<path class="st6" d="M849.3,507h-85.9c1.9,20.7,2.7,35.7,2.7,62.3H780c0.4-11.6,0.8-18.1,2.9-21.3c0.8-1.1,1.7-1.7,3.6-1.7
			c3.2,0,4.9,1.7,4.9,10.1v13.3c0,16.7-1.1,37.6-5.1,70.3h39.9c-3.6-31.2-4.9-51.7-4.9-70.3v-13.3c0-8.4,1.7-10.1,4.9-10.1
			c1.9,0,2.9,0.6,3.6,1.7c2.1,3.2,2.7,11.8,2.8,21.3h13.9C846.8,536.3,848.3,520.3,849.3,507"/>
	</g>
	<g>
		<defs>
			<rect id="SVGID_13_" x="1" width="1366" height="768"/>
		</defs>
		<clipPath id="SVGID_14_">
			<use xlink:href="#SVGID_13_"  style="overflow:visible;"/>
		</clipPath>
		<path class="st7" d="M582.5,601.4c-6.7,0-9.3-4-8.9-15.2h-21.3v30c0,20,11.2,25.8,29.3,25.8H592c17.3,0,34-9.3,34-36.9
			c0-27-11-33.8-23.9-37.4c-14.6-4.2-19.9-6.1-19.9-13.7c0-4.4,2.3-8.5,7.8-8.5c5.9,0,9.1,2.7,8.7,15h22.2
			c0.2-5.7,0.2-23.4,0.2-28.7c0-18.2-11.8-27-29.6-27H585c-20.3,0-33.1,12.5-33.1,38c0,23.9,8,32.3,22.8,36.5
			c12,3.4,16.9,6.3,16.9,13.5C591.6,598.6,589.3,601.4,582.5,601.4"/>
	</g>
	<g>
		<defs>
			<rect id="SVGID_15_" x="1" width="1366" height="768"/>
		</defs>
		<clipPath id="SVGID_16_">
			<use xlink:href="#SVGID_15_"  style="overflow:visible;"/>
		</clipPath>
		<path class="st8" d="M519.6,507h-52.4c-0.4,7.6-1.7,21.9-3.4,35c-1.1,8.7-2.5,17.1-3.8,22.8c-0.8,3.2-1.9,4.2-3.4,4.2
			s-2.7-1-3.4-4.2c-1.3-5.5-2.7-13.7-3.8-22.2c-1.7-13.1-3-27.4-3.4-35.5h-52.4c1.3,21.3,1.7,42.7,1.3,61.9
			c-0.4,21.7-0.8,45.6-2.9,71.1h37.4c-1.7-14.6-3.6-37.8-3.6-53.4c0-5.9,0.4-10.6,1-13.5c0.4-1.7,1.1-2.7,2.5-2.7
			c0.9,0,1.9,0.4,2.7,1.9c1.7,3.2,3.2,10.5,4.8,19.4c2.7,15,4.8,34.8,5.9,48.3h28.1c1.1-12.9,3.2-33.1,5.9-48.3
			c1.5-8.9,3.2-16.2,4.8-19.4c0.8-1.5,1.7-1.9,2.7-1.9c1.3,0,2.1,1,2.5,2.7c0.6,2.8,0.9,7.6,0.9,13.7c0,15.2-1.9,38-3.6,53.2h37.4
			c-2.1-25.5-2.5-49.4-2.8-71.1C517.9,549.7,518.3,528.3,519.6,507"/>
	</g>
	<g>
		<defs>
			<rect id="SVGID_17_" x="1" width="1366" height="768"/>
		</defs>
		<clipPath id="SVGID_18_">
			<use xlink:href="#SVGID_17_"  style="overflow:visible;"/>
		</clipPath>
		<path class="st9" d="M360.6,640c-1-28.7-1.9-41.2-1.9-58.3h-14.1c-0.2,15.8-4,20.7-13.3,20.7c-9.9,0-13.5-3.6-14.1-22.2
			c1.1,0,1.9,0,3.2,0.2c4.2,0.4,6.8,5.3,8.6,13.7h7.2c-1.3-14.1-0.6-27,0-39.1h-7c-1.7,8.6-3.8,14.4-8.7,14.8
			c-1.5,0.2-2.3,0.2-3.2,0.2c0.6-19.6,3.8-23.8,14.1-23.8c9.1,0,12.7,4.8,13.5,18.2h13.7c0-29.1,1-38.6,1.9-57.4h-75.8
			c2.8,32.9,4,49.2,4,66.3c0,17.9-1.3,35.7-3.8,66.7L360.6,640L360.6,640z"/>
	</g>
	<g>
		<defs>
			<rect id="SVGID_19_" x="1" width="1366" height="768"/>
		</defs>
		<clipPath id="SVGID_20_">
			<use xlink:href="#SVGID_19_"  style="overflow:visible;"/>
		</clipPath>
		<path class="st10" d="M253.4,640c-1-28.7-1.9-41.2-1.9-58.3h-14.1c-0.2,15.8-4,20.7-13.3,20.7c-9.9,0-13.5-3.6-14.1-22.2
			c1.1,0,1.9,0,3.2,0.2c4.2,0.4,6.8,5.3,8.6,13.7h7.2c-1.3-14.1-0.6-27,0-39.1h-7c-1.7,8.6-3.8,14.4-8.7,14.8
			c-1.5,0.2-2.3,0.2-3.2,0.2c0.6-19.6,3.8-23.8,14.1-23.8c9.1,0,12.7,4.8,13.5,18.2h13.7c0-29.1,0.9-38.6,1.9-57.4h-75.8
			c2.8,32.9,4,49.2,4,66.3c0,17.9-1.3,35.7-3.8,66.7L253.4,640L253.4,640z"/>
	</g>
	<g>
		<defs>
			<rect id="SVGID_21_" x="1" width="1366" height="768"/>
		</defs>
		<clipPath id="SVGID_22_">
			<use xlink:href="#SVGID_21_"  style="overflow:visible;"/>
		</clipPath>
		<path class="st11" d="M105,601.4c-6.7,0-9.3-4-8.9-15.2H74.8v30c0,20,11.2,25.8,29.3,25.8h10.5c17.3,0,34-9.3,34-36.9
			c0-27-11-33.8-23.9-37.4c-14.6-4.2-20-6.1-20-13.7c0-4.4,2.3-8.5,7.8-8.5c5.9,0,9.1,2.7,8.7,15h22.2c0.2-5.7,0.2-23.4,0.2-28.7
			c0-18.2-11.8-27-29.6-27h-6.5c-20.3,0-33.1,12.5-33.1,38c0,23.9,8,32.3,22.8,36.5c12,3.4,16.9,6.3,16.9,13.5
			C114.1,598.6,111.8,601.4,105,601.4"/>
	</g>
	<g>
		<defs>
			<rect id="SVGID_23_" x="1" width="1366" height="768"/>
		</defs>
		<clipPath id="SVGID_24_">
			<use xlink:href="#SVGID_23_"  style="overflow:visible;"/>
		</clipPath>
		<path class="st12" d="M1295.1,317h-85.9c1.9,20.7,2.7,35.7,2.7,62.3h13.9c0.4-11.6,0.8-18,2.9-21.3c0.8-1.1,1.7-1.7,3.6-1.7
			c3.2,0,4.9,1.7,4.9,10.1v13.3c0,16.7-1.1,37.6-5.1,70.3h39.9c-3.6-31.2-4.9-51.7-4.9-70.3v-13.3c0-8.4,1.7-10.1,4.9-10.1
			c1.9,0,2.8,0.6,3.6,1.7c2.1,3.2,2.7,11.8,2.8,21.3h13.9C1292.6,346.3,1294.2,330.3,1295.1,317"/>
	</g>
	<g>
		<defs>
			<rect id="SVGID_25_" x="1" width="1366" height="768"/>
		</defs>
		<clipPath id="SVGID_26_">
			<use xlink:href="#SVGID_25_"  style="overflow:visible;"/>
		</clipPath>
		<path class="st13" d="M1142.7,317c2.8,33.6,3.2,50.5,3.2,66.1s-0.6,34.6-3.2,66.9h37c-3-32.3-3.2-51.3-3.2-66.9
			c0-15.4,0.6-32.5,3-66.1H1142.7z"/>
	</g>
	<g>
		<defs>
			<rect id="SVGID_27_" x="1" width="1366" height="768"/>
		</defs>
		<clipPath id="SVGID_28_">
			<use xlink:href="#SVGID_27_"  style="overflow:visible;"/>
		</clipPath>
		<path class="st14" d="M1063,317l-37.6,0.2c2.1,14.6,3.6,34.6,3.6,44.5c0,3.6,0,7-0.2,8.4c-0.4,2.9-1.9,3-2.8,3
			c-1.1,0-2.3-1.3-3.4-3.6c-4.8-9.3-11.6-31.2-15.8-52.4h-34.4c2.5,33.1,3.2,49,3.2,65.7c0,18.2-0.4,35.3-3.4,67.3h37.8
			c-2.3-14.8-3.8-35.9-3.8-44.6c0-2.3,0-7,0.2-8.4c0.4-2.9,1.9-3,2.9-3s2.1,1.1,3.2,3.2c5.1,9.3,12.4,33.6,16.2,52.8h34.4
			c-2.7-30.8-3.2-49.4-3.2-66.1C1059.7,364.1,1060.5,348.5,1063,317"/>
	</g>
	<g>
		<defs>
			<rect id="SVGID_29_" x="1" width="1366" height="768"/>
		</defs>
		<clipPath id="SVGID_30_">
			<use xlink:href="#SVGID_29_"  style="overflow:visible;"/>
		</clipPath>
		<path class="st15" d="M897.3,360.3c2.3,0,2.9,0.8,4,6.3c1.5,7.6,2.7,16.7,3.4,27.6h-14.8c0.8-10.6,1.9-20,3.4-27.6
			C894.4,361.1,895,360.3,897.3,360.3 M905.6,450h40.3c-3-14.1-7.8-38.8-11-58.3c-5.7-34.8-7.2-46.2-10.3-74.7h-55.1
			c-3.6,31.9-5.3,42.9-10.5,75.8c-3,19.4-7.8,43.1-10.6,57.2h40.5c-0.6-13.7-0.4-20.1-0.2-30.8h17.1C906,431,906.2,438,905.6,450"/>
	</g>
	<g>
		<defs>
			<rect id="SVGID_31_" x="1" width="1366" height="768"/>
		</defs>
		<clipPath id="SVGID_32_">
			<use xlink:href="#SVGID_31_"  style="overflow:visible;"/>
		</clipPath>
		<path class="st16" d="M822.6,450c-2.9-31.7-4-45.2-4-66.9c0-16.5,0.8-34.6,3.8-66.1h-38c2.5,24.1,3.4,39.1,3.6,53.8h-19.4
			c0.2-13.5,1-30.4,3.4-53.8h-38c3,31.9,3.8,42.2,3.8,66.1c0,21.3-0.8,36.7-3.8,66.9h38.2c-2.3-23.8-3.2-38.9-3.6-52.4H788
			c-0.4,14.6-1.3,30.2-3.4,52.4H822.6z"/>
	</g>
	<g>
		<defs>
			<rect id="SVGID_33_" x="1" width="1366" height="768"/>
		</defs>
		<clipPath id="SVGID_34_">
			<use xlink:href="#SVGID_33_"  style="overflow:visible;"/>
		</clipPath>
		<path class="st17" d="M706.9,317H621c1.9,20.7,2.7,35.7,2.7,62.3h13.9c0.4-11.6,0.8-18,2.9-21.3c0.8-1.1,1.7-1.7,3.6-1.7
			c3.2,0,4.9,1.7,4.9,10.1v13.3c0,16.7-1.1,37.6-5.1,70.3h39.9c-3.6-31.2-4.9-51.7-4.9-70.3v-13.3c0-8.4,1.7-10.1,4.9-10.1
			c1.9,0,2.9,0.6,3.6,1.7c2.1,3.2,2.7,11.8,2.8,21.3H704C704.4,346.3,705.9,330.3,706.9,317"/>
	</g>
	<g>
		<defs>
			<rect id="SVGID_35_" x="1" width="1366" height="768"/>
		</defs>
		<clipPath id="SVGID_36_">
			<use xlink:href="#SVGID_35_"  style="overflow:visible;"/>
		</clipPath>
		<path class="st18" d="M542.8,450c-1-28.7-1.9-41.2-1.9-58.3h-14.1c-0.2,15.8-4,20.7-13.3,20.7c-9.9,0-13.5-3.6-14.1-22.2
			c1.1,0,1.9,0,3.2,0.2c4.2,0.4,6.8,5.3,8.6,13.7h7.2c-1.3-14.1-0.6-27,0-39.1h-7c-1.7,8.6-3.8,14.4-8.7,14.8
			c-1.5,0.2-2.3,0.2-3.2,0.2c0.6-19.6,3.8-23.8,14.1-23.8c9.1,0,12.7,4.8,13.5,18.2h13.7c0-29.1,1-38.6,1.9-57.4h-75.8
			c2.8,32.9,4,49.2,4,66.3c0,17.9-1.3,35.7-3.8,66.7L542.8,450L542.8,450z"/>
	</g>
	<g>
		<defs>
			<rect id="SVGID_37_" x="1" width="1366" height="768"/>
		</defs>
		<clipPath id="SVGID_38_">
			<use xlink:href="#SVGID_37_"  style="overflow:visible;"/>
		</clipPath>
		<path class="st19" d="M390.2,382.7l-5.9,2.8c0.2-10.1,0.8-19.8,1.3-22.6c0.9-4.2,3.2-6.5,7.8-6.5c6.3,0,8.9,3,8.9,8.2
			C402.4,371.3,398.6,377.8,390.2,382.7 M419.6,392.4c-1.5-4.2-1.5-6.1,1.3-9.1c4.8-5.1,15-13.7,15-34.2c0-31.9-21.7-32.1-30-32.1
			H350c3,32.7,3.6,51.3,3.6,66.1c0,16.5-0.8,35.9-3.8,66.9h38.4c-1.9-17.3-3-33.2-3.6-45.4l2.3-1.1c4-1.9,4.9-2.1,6.5,1.7
			c3.4,8.4,5.7,23.8,6.3,44.8h41C433.3,417.7,423.1,401.2,419.6,392.4"/>
	</g>
	<g>
		<defs>
			<rect id="SVGID_39_" x="1" width="1366" height="768"/>
		</defs>
		<clipPath id="SVGID_40_">
			<use xlink:href="#SVGID_39_"  style="overflow:visible;"/>
		</clipPath>
		<path class="st20" d="M277,410.3c-7.2,0-10.6-7.4-10.6-24.5c0-18.6,4.4-28.9,10.6-28.9c6.3,0,10.8,10.5,10.8,29.1
			C287.8,402.5,284.4,410.3,277,410.3 M277,315.7c-27.9,0-43.1,26.2-43.1,74.1c0,43.7,12.7,61.4,39.7,61.4h5.9
			c27.6,0,40.9-17.5,40.9-61.6C320.3,342.5,305.1,315.7,277,315.7"/>
	</g>
	<g>
		<defs>
			<rect id="SVGID_41_" x="1" width="1366" height="768"/>
		</defs>
		<clipPath id="SVGID_42_">
			<use xlink:href="#SVGID_41_"  style="overflow:visible;"/>
		</clipPath>
		<path class="st21" d="M202.3,317h-52.4c-0.4,7.6-1.7,21.9-3.4,35c-1.1,8.7-2.5,17.1-3.8,22.8c-0.8,3.2-1.9,4.2-3.4,4.2
			s-2.7-0.9-3.4-4.2c-1.3-5.5-2.7-13.7-3.8-22.2c-1.7-13.1-3-27.4-3.4-35.5H76.1c1.3,21.3,1.7,42.8,1.3,61.9
			c-0.4,21.7-0.8,45.6-2.8,71.1H112c-1.7-14.6-3.6-37.8-3.6-53.4c0-5.9,0.4-10.6,0.9-13.5c0.4-1.7,1.1-2.7,2.5-2.7
			c1,0,1.9,0.4,2.7,1.9c1.7,3.2,3.2,10.4,4.8,19.4c2.7,15,4.8,34.8,5.9,48.3h28.1c1.1-12.9,3.2-33.1,5.9-48.3
			c1.5-8.9,3.2-16.2,4.8-19.4c0.8-1.5,1.7-1.9,2.7-1.9c1.3,0,2.1,0.9,2.5,2.7c0.6,2.8,0.9,7.6,0.9,13.7c0,15.2-1.9,38-3.6,53.2h37.4
			c-2.1-25.5-2.5-49.4-2.8-71.1C200.6,359.7,201,338.3,202.3,317"/>
	</g>
	<g>
		<defs>
			<rect id="SVGID_43_" x="1" width="1366" height="768"/>
		</defs>
		<clipPath id="SVGID_44_">
			<use xlink:href="#SVGID_43_"  style="overflow:visible;"/>
		</clipPath>
		<path class="st22" d="M1251.8,221.4c-6.7,0-9.3-4-8.9-15.2h-21.3v30c0,20,11.2,25.8,29.3,25.8h10.5c17.3,0,34-9.3,34-36.9
			c0-27-11-33.8-23.9-37.4c-14.6-4.2-19.9-6.1-19.9-13.7c0-4.4,2.3-8.5,7.8-8.5c5.9,0,9.1,2.7,8.7,15h22.2
			c0.2-5.7,0.2-23.4,0.2-28.7c0-18.2-11.8-27-29.6-27h-6.5c-20.3,0-33.1,12.5-33.1,38c0,23.9,8,32.3,22.8,36.5
			c12,3.4,16.9,6.3,16.9,13.5C1260.9,218.6,1258.6,221.4,1251.8,221.4"/>
	</g>
	<g>
		<defs>
			<rect id="SVGID_45_" x="1" width="1366" height="768"/>
		</defs>
		<clipPath id="SVGID_46_">
			<use xlink:href="#SVGID_45_"  style="overflow:visible;"/>
		</clipPath>
		<path class="st23" d="M1153.2,127c2.8,33.6,3.2,50.5,3.2,66.1s-0.6,34.6-3.2,66.9h37c-3-32.3-3.2-51.3-3.2-66.9
			c0-15.4,0.6-32.5,3-66.1C1190,127,1153.2,127,1153.2,127z"/>
	</g>
	<g>
		<defs>
			<rect id="SVGID_47_" x="1" width="1366" height="768"/>
		</defs>
		<clipPath id="SVGID_48_">
			<use xlink:href="#SVGID_47_"  style="overflow:visible;"/>
		</clipPath>
		<path class="st24" d="M874.1,221.4c-6.7,0-9.3-4-8.9-15.2h-21.3v30c0,20,11.2,25.8,29.3,25.8h10.5c17.3,0,34-9.3,34-36.9
			c0-27-11-33.8-23.9-37.4c-14.6-4.2-19.9-6.1-19.9-13.7c0-4.4,2.3-8.5,7.8-8.5c5.9,0,9.1,2.7,8.7,15h22.2
			c0.2-5.7,0.2-23.4,0.2-28.7c0-18.2-11.8-27-29.6-27h-6.5c-20.3,0-33.1,12.5-33.1,38c0,23.9,8,32.3,22.8,36.5
			c12,3.4,16.9,6.3,16.9,13.5C883.2,218.6,881,221.4,874.1,221.4"/>
	</g>
	<g>
		<defs>
			<rect id="SVGID_49_" x="1" width="1366" height="768"/>
		</defs>
		<clipPath id="SVGID_50_">
			<use xlink:href="#SVGID_49_"  style="overflow:visible;"/>
		</clipPath>
		<path class="st25" d="M771.1,221.4c-6.7,0-9.3-4-8.9-15.2h-21.3v30c0,20,11.2,25.8,29.3,25.8h10.5c17.3,0,34-9.3,34-36.9
			c0-27-11-33.8-23.9-37.4c-14.6-4.2-19.9-6.1-19.9-13.7c0-4.4,2.3-8.5,7.8-8.5c5.9,0,9.1,2.7,8.7,15h22.2
			c0.2-5.7,0.2-23.4,0.2-28.7c0-18.2-11.8-27-29.6-27h-6.5c-20.3,0-33.1,12.5-33.1,38c0,23.9,8,32.3,22.8,36.5
			c12,3.4,16.9,6.3,16.9,13.5C780.3,218.6,778,221.4,771.1,221.4"/>
	</g>
	<g>
		<defs>
			<rect id="SVGID_51_" x="1" width="1366" height="768"/>
		</defs>
		<clipPath id="SVGID_52_">
			<use xlink:href="#SVGID_51_"  style="overflow:visible;"/>
		</clipPath>
		<path class="st26" d="M709.4,260c-1-28.7-1.9-41.2-1.9-58.3h-14.1c-0.2,15.8-4,20.7-13.3,20.7c-9.9,0-13.5-3.6-14.1-22.2
			c1.1,0,1.9,0,3.2,0.2c4.2,0.4,6.8,5.3,8.5,13.7h7.2c-1.3-14.1-0.6-27,0-39.1h-7c-1.7,8.5-3.8,14.4-8.7,14.8
			c-1.5,0.2-2.3,0.2-3.2,0.2c0.6-19.6,3.8-23.8,14.1-23.8c9.1,0,12.7,4.8,13.5,18.2h13.7c0-29.1,1-38.6,1.9-57.4h-75.8
			c2.8,32.9,4,49.2,4,66.3c0,17.9-1.3,35.7-3.8,66.7H709.4z"/>
	</g>
	<g>
		<defs>
			<rect id="SVGID_53_" x="1" width="1366" height="768"/>
		</defs>
		<clipPath id="SVGID_54_">
			<use xlink:href="#SVGID_53_"  style="overflow:visible;"/>
		</clipPath>
		<path class="st27" d="M602.6,127l-37.6,0.2c2.1,14.6,3.6,34.6,3.6,44.5c0,3.6,0,7-0.2,8.4c-0.4,2.9-1.9,3-2.9,3
			c-1.1,0-2.3-1.3-3.4-3.6c-4.8-9.3-11.6-31.2-15.8-52.4H512c2.5,33.1,3.2,49,3.2,65.7c0,18.2-0.4,35.3-3.4,67.3h37.8
			c-2.3-14.8-3.8-35.9-3.8-44.6c0-2.3,0-7,0.2-8.4c0.4-2.9,1.9-3,2.9-3s2.1,1.1,3.2,3.2c5.1,9.3,12.4,33.6,16.2,52.8h34.4
			c-2.7-30.8-3.2-49.4-3.2-66.1C599.4,174.1,600.1,158.5,602.6,127"/>
	</g>
	<g>
		<defs>
			<rect id="SVGID_55_" x="1" width="1366" height="768"/>
		</defs>
		<clipPath id="SVGID_56_">
			<use xlink:href="#SVGID_55_"  style="overflow:visible;"/>
		</clipPath>
		<path class="st28" d="M480.4,260c-1-28.7-1.9-41.2-1.9-58.3h-14.1c-0.2,15.8-4,20.7-13.3,20.7c-9.9,0-13.5-3.6-14.1-22.2
			c1.1,0,1.9,0,3.2,0.2c4.2,0.4,6.8,5.3,8.6,13.7h7.2c-1.3-14.1-0.6-27,0-39.1h-7c-1.7,8.5-3.8,14.4-8.7,14.8
			c-1.5,0.2-2.3,0.2-3.2,0.2c0.6-19.6,3.8-23.8,14.1-23.8c9.1,0,12.7,4.8,13.5,18.2h13.7c0-29.1,1-38.6,1.9-57.4h-75.8
			c2.8,32.9,4,49.2,4,66.3c0,17.9-1.3,35.7-3.8,66.7H480.4z"/>
	</g>
	<g>
		<defs>
			<rect id="SVGID_57_" x="1" width="1366" height="768"/>
		</defs>
		<clipPath id="SVGID_58_">
			<use xlink:href="#SVGID_57_"  style="overflow:visible;"/>
		</clipPath>
		<path class="st29" d="M377.3,127h-85.9c1.9,20.7,2.7,35.7,2.7,62.3H308c0.4-11.6,0.8-18,2.9-21.3c0.8-1.1,1.7-1.7,3.6-1.7
			c3.2,0,4.9,1.7,4.9,10.1v13.3c0,16.7-1.1,37.6-5.1,70.3h39.9c-3.6-31.2-4.9-51.7-4.9-70.3v-13.3c0-8.4,1.7-10.1,4.9-10.1
			c1.9,0,2.9,0.6,3.6,1.7c2.1,3.2,2.7,11.8,2.9,21.3h13.9C374.8,156.3,376.3,140.3,377.3,127"/>
	</g>
	<g>
		<defs>
			<rect id="SVGID_59_" x="1" width="1366" height="768"/>
		</defs>
		<clipPath id="SVGID_60_">
			<use xlink:href="#SVGID_59_"  style="overflow:visible;"/>
		</clipPath>
		<path class="st30" d="M265,127h-38.4c2.5,18.1,4.4,51.5,4.4,69.4c0,17.7-2.3,23-8.9,23c-6.5,0-9.1-5.9-9.1-23
			c0-20.1,2.3-52.1,4.6-69.4H179c1.9,14.8,3.6,33.6,3.6,52.1c0,9.3-1.1,26.6-1.1,39.1c0,28.3,7.2,43.9,34.2,43.9h12.7
			c27.4,0,34.2-15.6,34.2-43.9c0-12.5-1.1-29.8-1.1-39.1C261.4,161,262.9,141.8,265,127"/>
	</g>
	<g>
		<defs>
			<rect id="SVGID_61_" x="1" width="1366" height="768"/>
		</defs>
		<clipPath id="SVGID_62_">
			<use xlink:href="#SVGID_61_"  style="overflow:visible;"/>
		</clipPath>
		<path class="st31" d="M124,200.3c0.2,13.1-0.6,20.3-8.4,20.3c-8.6,0-9.9-9.1-9.9-27.5c0-18,3.2-26.6,10.3-26.6c5.5,0,8,5.1,8,18.4
			h23.9c0-2.3,0.4-25.8-0.6-33.8c-1.9-17.7-13.1-26.2-29.3-26.2c-30.6,0-44.3,23.8-44.3,76.8c0,42.4,11.4,60.4,34.6,60.4h12
			c15.2,0,27.7-8,28.5-26.6c0.2-5.9-0.2-12.7-0.9-35.2H124z"/>
	</g>
</g>
<g>
	<g>
		<defs>
			<rect id="SVGID_63_" x="1" width="1366" height="768"/>
		</defs>
		<clipPath id="SVGID_64_">
			<use xlink:href="#SVGID_63_"  style="overflow:visible;"/>
		</clipPath>
		<rect x="1.5" y="0.5" class="st32" width="1365" height="767"/>
	</g>
</g>
</svg>
