<?xml version="1.0" encoding="utf-8"?>
<!-- Generator: Adobe Illustrator 23.0.0, SVG Export Plug-In . SVG Version: 6.00 Build 0)  -->
<svg version="1.1" id="Layer_1" xmlns="http://www.w3.org/2000/svg" xmlns:xlink="http://www.w3.org/1999/xlink" x="0px" y="0px"
	 viewBox="0 0 1366 768" style="enable-background:new 0 0 1366 768;" xml:space="preserve">
<style type="text/css">
	.st0{clip-path:url(#SVGID_2_);fill:#ED0B6F;}
	.st1{clip-path:url(#SVGID_2_);fill:#F9CDE1;}
	.st2{clip-path:url(#SVGID_2_);fill:#F17DB1;}
	.st3{clip-path:url(#SVGID_2_);fill:#FBCBBF;}
	.st4{clip-path:url(#SVGID_2_);fill:#FFF450;}
	.st5{clip-path:url(#SVGID_2_);fill:#FFE100;}
	.st6{clip-path:url(#SVGID_2_);fill:#E41F26;}
	.st7{clip-path:url(#SVGID_2_);fill:#8D94C9;}
	.st8{clip-path:url(#SVGID_2_);fill:#BC9FCB;}
	.st9{clip-path:url(#SVGID_2_);fill:#F69991;}
	.st10{clip-path:url(#SVGID_2_);fill:#00AEEF;}
	.st11{clip-path:url(#SVGID_2_);fill:#B6E4FA;}
	.st12{clip-path:url(#SVGID_2_);fill:#51C2B8;}
	.st13{clip-path:url(#SVGID_2_);fill:#A8DACB;}
	.st14{clip-path:url(#SVGID_2_);fill:#8FCA75;}
	.st15{clip-path:url(#SVGID_2_);fill:#231F20;}
	.st16{fill:none;stroke:#231F20;stroke-width:0.5;}
	.st17{clip-path:url(#SVGID_4_);fill:none;stroke:#FFFFFF;}
</style>
<g>
	<defs>
		<rect id="SVGID_1_" x="1" y="1" width="1366" height="768"/>
	</defs>
	<clipPath id="SVGID_2_">
		<use xlink:href="#SVGID_1_"  style="overflow:visible;"/>
	</clipPath>
	<path class="st0" d="M1271.4,535.1c16.7,0,23.9-9.5,23.9-20.5c0-13.9-8.9-27.6-23.9-27.6c-14.1,0-24.1,12.7-24.1,27.6
		C1247.2,525.6,1254.6,535.1,1271.4,535.1 M1257.5,481.9h28.1c0-19.8,0.9-48.3,4.2-80.9h-36.9
		C1256.5,432.3,1257.5,462.2,1257.5,481.9"/>
	<path class="st1" d="M1217.8,534c-1-28.7-1.9-41.2-1.9-58.3h-14.1c-0.2,15.8-4,20.7-13.3,20.7c-9.9,0-13.5-3.6-14.1-22.2
		c1.1,0,1.9,0,3.2,0.2c4.2,0.4,6.8,5.3,8.6,13.7h7.2c-1.3-14.1-0.6-27,0-39.1h-7c-1.7,8.5-3.8,14.4-8.7,14.8
		c-1.5,0.2-2.3,0.2-3.2,0.2c0.6-19.6,3.8-23.8,14.1-23.8c9.1,0,12.7,4.8,13.5,18.2h13.7c0-29.1,1-38.6,1.9-57.4h-75.8
		c2.8,32.9,4,49.2,4,66.3c0,17.9-1.3,35.7-3.8,66.7H1217.8z"/>
	<path class="st2" d="M1114.6,401h-85.9c1.9,20.7,2.7,35.7,2.7,62.3h13.9c0.4-11.6,0.8-18,2.9-21.3c0.8-1.1,1.7-1.7,3.6-1.7
		c3.2,0,4.9,1.7,4.9,10.1v13.3c0,16.7-1.1,37.6-5.1,70.3h39.9c-3.6-31.2-4.9-51.7-4.9-70.3v-13.3c0-8.4,1.7-10.1,4.9-10.1
		c1.9,0,2.8,0.6,3.6,1.7c2.1,3.2,2.7,11.8,2.8,21.3h13.9C1112.1,430.3,1113.7,414.3,1114.6,401"/>
	<path class="st3" d="M1002.3,401h-38.4c2.5,18.1,4.4,51.5,4.4,69.4c0,17.7-2.3,23-8.9,23c-6.5,0-9.1-5.9-9.1-23
		c0-20.1,2.3-52.1,4.6-69.4h-38.6c1.9,14.8,3.6,33.6,3.6,52.1c0,9.3-1.1,26.6-1.1,39.1c0,28.3,7.2,43.9,34.2,43.9h12.7
		c27.4,0,34.2-15.6,34.2-43.9c0-12.5-1.1-29.8-1.1-39.1C998.7,435,1000.2,415.8,1002.3,401"/>
	<path class="st4" d="M861.3,474.3c0.2,13.1-0.6,20.3-8.4,20.3c-8.5,0-9.9-9.1-9.9-27.5c0-18.1,3.2-26.6,10.3-26.6
		c5.5,0,8,5.1,8,18.4h23.9c0-2.3,0.4-25.8-0.6-33.8c-1.9-17.7-13.1-26.2-29.3-26.2c-30.6,0-44.3,23.8-44.3,76.8
		c0,42.4,11.4,60.4,34.6,60.4h12c15.2,0,27.7-8,28.5-26.6c0.2-5.9-0.2-12.7-1-35.2H861.3z"/>
	<path class="st5" d="M676.5,495.4c-6.7,0-9.3-4-8.9-15.2h-21.3v30c0,19.9,11.2,25.8,29.3,25.8H686c17.3,0,34-9.3,34-36.9
		c0-27-11-33.8-23.9-37.4c-14.6-4.2-19.9-6.1-19.9-13.7c0-4.4,2.3-8.5,7.8-8.5c5.9,0,9.1,2.7,8.7,15h22.2c0.2-5.7,0.2-23.4,0.2-28.7
		c0-18.2-11.8-27-29.6-27H679c-20.3,0-33.1,12.5-33.1,38c0,23.9,8,32.3,22.8,36.5c12,3.4,16.9,6.3,16.9,13.5
		C685.6,492.6,683.4,495.4,676.5,495.4"/>
	<path class="st6" d="M571.6,494.5c-6.3,0-8-4.4-8-27.4c0-18.6,0.8-26.6,6.5-26.6c9.1,0,13.9,14.6,13.9,30.2
		C584,488.6,577.9,494.5,571.6,494.5 M616.5,477.9c0-50.5-20.1-76.9-49.2-76.9h-37c2.5,31.5,3.2,51.5,3.2,65.2
		c0,16-0.4,36.9-3.2,67.8h45.2C596.3,534,616.5,516.9,616.5,477.9"/>
	<path class="st7" d="M498.9,401l-37.6,0.2c2.1,14.6,3.6,34.6,3.6,44.5c0,3.6,0,7-0.2,8.4c-0.4,2.9-1.9,3-2.9,3
		c-1.1,0-2.3-1.3-3.4-3.6c-4.8-9.3-11.6-31.2-15.8-52.4h-34.4c2.5,33.1,3.2,49,3.2,65.7c0,18.2-0.4,35.3-3.4,67.3h37.8
		c-2.3-14.8-3.8-35.9-3.8-44.6c0-2.3,0-7,0.2-8.4c0.4-2.9,1.9-3,2.9-3c1,0,2.1,1.1,3.2,3.2c5.1,9.3,12.4,33.6,16.1,52.8h34.4
		c-2.7-30.8-3.2-49.4-3.2-66.1C495.6,448.1,496.4,432.5,498.9,401"/>
	<path class="st8" d="M378,401h-38.4c2.5,18.1,4.4,51.5,4.4,69.4c0,17.7-2.3,23-8.9,23c-6.5,0-9.1-5.9-9.1-23
		c0-20.1,2.3-52.1,4.6-69.4H292c1.9,14.8,3.6,33.6,3.6,52.1c0,9.3-1.1,26.6-1.1,39.1c0,28.3,7.2,43.9,34.2,43.9h12.7
		c27.4,0,34.2-15.6,34.2-43.9c0-12.5-1.1-29.8-1.1-39.1C374.4,435,375.9,415.8,378,401"/>
	<path class="st1" d="M219.8,494.3c-7.2,0-10.6-7.4-10.6-24.5c0-18.6,4.4-28.9,10.6-28.9c6.3,0,10.8,10.5,10.8,29.1
		C230.6,486.5,227.2,494.3,219.8,494.3 M219.8,399.7c-27.9,0-43.1,26.2-43.1,74.1c0,43.7,12.7,61.4,39.7,61.4h5.9
		c27.6,0,40.8-17.5,40.8-61.6C263.1,426.5,247.9,399.7,219.8,399.7"/>
	<path class="st2" d="M105,495.4c-6.7,0-9.3-4-8.9-15.2H74.8v30c0,19.9,11.2,25.8,29.3,25.8h10.5c17.3,0,34-9.3,34-36.9
		c0-27-11-33.8-23.9-37.4c-14.6-4.2-20-6.1-20-13.7c0-4.4,2.3-8.5,7.8-8.5c5.9,0,9.1,2.7,8.7,15h22.2c0.2-5.7,0.2-23.4,0.2-28.7
		c0-18.2-11.8-27-29.6-27h-6.5c-20.3,0-33.1,12.5-33.1,38c0,23.9,8,32.3,22.8,36.5c12,3.4,16.9,6.3,16.9,13.5
		C114.1,492.6,111.8,495.4,105,495.4"/>
	<path class="st9" d="M1295.1,211h-85.9c1.9,20.7,2.7,35.7,2.7,62.3h13.9c0.4-11.6,0.8-18,2.9-21.3c0.8-1.1,1.7-1.7,3.6-1.7
		c3.2,0,4.9,1.7,4.9,10.1v13.3c0,16.7-1.1,37.6-5.1,70.3h39.9c-3.6-31.2-4.9-51.7-4.9-70.3v-13.3c0-8.4,1.7-10.1,4.9-10.1
		c1.9,0,2.8,0.6,3.6,1.7c2.1,3.2,2.7,11.8,2.8,21.3h13.9C1292.6,240.3,1294.2,224.3,1295.1,211"/>
	<path class="st3" d="M1143.3,254.3c2.3,0,2.9,0.8,4,6.3c1.5,7.6,2.7,16.7,3.4,27.6h-14.8c0.8-10.6,1.9-20,3.4-27.6
		C1140.4,255.1,1141,254.3,1143.3,254.3 M1151.7,344h40.3c-3-14.1-7.8-38.8-11-58.3c-5.7-34.8-7.2-46.2-10.3-74.7h-55.1
		c-3.6,31.9-5.3,42.9-10.4,75.8c-3,19.4-7.8,43.1-10.6,57.2h40.5c-0.6-13.7-0.4-20.1-0.2-30.8h17.1C1152,325,1152.2,332,1151.7,344"
		/>
	<path class="st0" d="M1068.6,344c-2.9-31.7-4-45.2-4-66.9c0-16.5,0.8-34.6,3.8-66.1h-38c2.5,24.1,3.4,39.1,3.6,53.8h-19.4
		c0.2-13.5,1-30.4,3.4-53.8h-38c3,31.9,3.8,42.2,3.8,66.1c0,21.3-0.8,36.7-3.8,66.9h38.2c-2.3-23.8-3.2-38.9-3.6-52.4h19.4
		c-0.4,14.6-1.3,30.2-3.4,52.4H1068.6z"/>
	<path class="st10" d="M952.9,211H867c1.9,20.7,2.7,35.7,2.7,62.3h13.9c0.4-11.6,0.8-18,2.9-21.3c0.8-1.1,1.7-1.7,3.6-1.7
		c3.2,0,4.9,1.7,4.9,10.1v13.3c0,16.7-1.1,37.6-5.1,70.3h39.9c-3.6-31.2-4.9-51.7-4.9-70.3v-13.3c0-8.4,1.7-10.1,4.9-10.1
		c1.9,0,2.9,0.6,3.6,1.7c2.1,3.2,2.7,11.8,2.8,21.3h13.9C950.4,240.3,952,224.3,952.9,211"/>
	<path class="st11" d="M398.2,357.7l6.3,15.6c25.8-7.2,38.8-24.3,38.8-45c0-17.5-9.1-31.2-24.1-31.2c-14.1,0-24.1,12.7-24.1,27.5
		c0,9.3,5.1,17.1,16.3,20c1.5,0.4,2.3,0.4,2.3,1.1C413.6,348.9,409.2,352.9,398.2,357.7"/>
	<path class="st12" d="M387,211h-38.2c-0.2,3.8-0.6,7.8-1,11.8c-1.1,13.1-2.9,26.6-5.9,36.1c-0.6,1.7-1.3,2.5-2.7,2.5
		c-1.3,0-2.1-0.8-2.7-2.5c-2.1-7.2-4.8-23.4-6.1-36.1c-0.6-4.6-0.8-8.7-0.8-11.8h-38.4c8.5,39.1,31,75.2,31,96.5
		c0,9.1-0.2,19.4-2.7,36.5h38.9c-2.3-17.1-2.5-27.4-2.5-36.5C356.2,286.2,378.4,250.1,387,211"/>
	<path class="st13" d="M269.4,344c-1-28.7-1.9-41.2-1.9-58.3h-14.1c-0.2,15.8-4,20.7-13.3,20.7c-9.9,0-13.5-3.6-14.1-22.2
		c1.1,0,1.9,0,3.2,0.2c4.2,0.4,6.8,5.3,8.6,13.7h7.2c-1.3-14.1-0.6-27,0-39.1h-7c-1.7,8.6-3.8,14.4-8.7,14.8
		c-1.5,0.2-2.3,0.2-3.2,0.2c0.6-19.6,3.8-23.7,14.1-23.7c9.1,0,12.7,4.8,13.5,18.2h13.7c0-29.1,1-38.6,1.9-57.4h-75.8
		c2.8,32.9,4,49.2,4,66.3c0,17.9-1.3,35.7-3.8,66.7H269.4z"/>
	<path class="st14" d="M163,344c-2.9-31.7-4-45.2-4-66.9c0-16.5,0.8-34.6,3.8-66.1h-38c2.5,24.1,3.4,39.1,3.6,53.8H109
		c0.2-13.5,0.9-30.4,3.4-53.8h-38c3,31.9,3.8,42.2,3.8,66.1c0,21.3-0.8,36.7-3.8,66.9h38.2c-2.3-23.8-3.2-38.9-3.6-52.4h19.4
		c-0.4,14.6-1.3,30.2-3.4,52.4H163z"/>
	<path class="st15" d="M743.4,39.7v-0.3c-1-0.1-1.1-0.1-1.1-1.2v-4.8c0-1,0.1-1.1,1.1-1.2v-0.3h-3.2v0.3c1,0.1,1.1,0.1,1.1,1.2v4.8
		c0,1-0.1,1.1-1.1,1.2v0.3H743.4z M737.9,39.7v-0.3c-1-0.1-1.1-0.1-1.1-1.2v-4.8c0-1,0.1-1.1,1.1-1.2v-0.3h-3.2v0.3
		c1,0.1,1.1,0.1,1.1,1.2v4.8c0,1-0.1,1.1-1.1,1.2v0.3H737.9z M732.5,39.7v-0.3c-1-0.1-1.1-0.1-1.1-1.2v-4.8c0-1,0.1-1.1,1.1-1.2
		v-0.3h-3.2v0.3c1,0.1,1.1,0.1,1.1,1.2v4.8c0,1-0.1,1.1-1.1,1.2v0.3H732.5z M727.4,31.9h-2.7v0.3c1,0.1,1,0.2,0.8,0.9
		c-0.4,1.2-1.3,3.5-1.9,5h0c-0.8-2.1-1.7-4.4-2-5.2c-0.2-0.5-0.1-0.6,0.7-0.7v-0.3h-2.9v0.3c0.7,0.1,0.9,0.2,1.2,1.1
		c0.7,1.7,1.7,4.3,2.5,6.5h0.4c0.9-2.5,2.2-5.5,2.5-6.3c0.5-1.1,0.6-1.2,1.4-1.3V31.9z M709,35.9v-3c0-0.3,0-0.5,0.1-0.5
		c0.1-0.1,0.3-0.1,0.6-0.1c0.9,0,1.8,0.5,1.8,1.8c0,0.6-0.2,1.1-0.7,1.5c-0.3,0.2-0.7,0.3-1.3,0.3H709z M714,39.5
		c-0.3-0.1-0.5-0.2-0.9-0.6c-0.3-0.3-0.5-0.6-1-1.2c-0.4-0.5-0.9-1.3-1.1-1.7c0.9-0.4,1.5-1,1.5-2.1c0-0.7-0.3-1.3-0.8-1.6
		c-0.5-0.3-1-0.4-1.9-0.4h-3v0.3c0.9,0.1,1,0.1,1,1.1v4.8c0,1-0.1,1.1-1.1,1.2v0.3h3.2v-0.3c-1-0.1-1.1-0.1-1.1-1.2v-1.9h0.4
		c0.6,0,0.8,0.1,1,0.5c0.4,0.6,0.8,1.3,1.2,1.9c0.5,0.8,1,1,1.9,1.1c0.1,0,0.3,0,0.4,0L714,39.5z M704.5,37.8
		c-0.2,0.5-0.4,0.9-0.6,1.1c-0.3,0.3-0.6,0.4-1.5,0.4c-0.6,0-1,0-1.2-0.2c-0.2-0.2-0.3-0.4-0.3-1v-2.3h1.1c1,0,1.1,0.1,1.3,0.9h0.3
		v-2.3h-0.3c-0.2,0.8-0.2,0.9-1.3,0.9h-1.1v-2.7c0-0.4,0-0.4,0.4-0.4h0.9c0.9,0,1.2,0.1,1.4,0.3c0.2,0.3,0.3,0.5,0.4,1l0.3-0.1
		c0-0.6-0.1-1.4-0.1-1.7h-5.3v0.3c0.9,0.1,1,0.1,1,1.2v4.8c0,1-0.1,1.1-1.2,1.2v0.3h5.8c0.1-0.4,0.3-1.5,0.4-1.9L704.5,37.8z
		 M696.7,33.7c-0.1-0.7-0.1-1.6-0.1-2.1h-0.3c-0.2,0.2-0.3,0.3-0.6,0.3H691c-0.3,0-0.5,0-0.7-0.3h-0.2c0,0.7-0.1,1.4-0.1,2.2h0.3
		c0.1-0.5,0.2-0.9,0.4-1.1c0.2-0.3,0.4-0.4,1.4-0.4h0.7v5.9c0,0.9-0.1,1.1-1.2,1.1v0.3h3.4v-0.3c-1.1-0.1-1.2-0.2-1.2-1.1v-5.9h0.9
		c0.9,0,1.1,0.1,1.3,0.4c0.1,0.2,0.3,0.5,0.4,1.1L696.7,33.7z M684.1,33c0-0.3,0-0.5,0.1-0.6c0.1-0.1,0.3-0.1,0.7-0.1
		c1,0,1.8,0.6,1.8,1.8c0,1.5-1,1.9-1.7,1.9c-0.4,0-0.7-0.1-0.9-0.1V33z M682.1,31.9v0.3c0.9,0.1,1,0.1,1,1.2v4.8
		c0,1-0.1,1.1-1.1,1.2v0.3h3.3v-0.3c-1.1-0.1-1.2-0.1-1.2-1.2v-1.9l0.9,0.2c0.1,0,0.4,0,0.5,0c1.2-0.2,2.3-0.9,2.3-2.5
		c0-0.8-0.3-1.3-0.8-1.7c-0.5-0.4-1.2-0.5-2-0.5H682.1z M676.9,36.4h-2.2c0.4-1,0.7-2,1.1-3.1h0L676.9,36.4z M680,39.7v-0.3
		c-0.8-0.1-0.9-0.2-1.3-1.2c-0.8-2.1-1.6-4.4-2.3-6.4l-0.4,0.1l-2.5,6.3c-0.4,1.1-0.6,1.1-1.3,1.2v0.3h2.6v-0.3
		c-0.9-0.1-1-0.2-0.7-1c0.2-0.5,0.3-1,0.5-1.5h2.6c0.3,0.7,0.5,1.4,0.7,1.8s0,0.6-0.7,0.7v0.3H680z M670.6,31.9h-3.1v0.3
		c0.9,0.1,1,0.1,1,1.1v1.9h-4.1v-1.9c0-1,0.1-1.1,1-1.1v-0.3h-3.1v0.3c1,0.1,1.1,0.1,1.1,1.1v4.8c0,1-0.1,1.1-1.1,1.1v0.3h3.2v-0.3
		c-1-0.1-1.1-0.1-1.1-1.1v-2.4h4.1v2.4c0,1-0.1,1.1-1.1,1.1v0.3h3.2v-0.3c-1-0.1-1.1-0.1-1.1-1.1v-4.8c0-1,0.1-1.1,1.1-1.1V31.9z
		 M659.9,37.6c-0.6,1.2-1.2,1.9-2.5,1.9c-1.8,0-3.1-1.5-3.1-3.8c0-1.8,1.1-3.5,3.1-3.5c1.3,0,2,0.5,2.3,1.8l0.4-0.1
		c-0.1-0.6-0.1-1.1-0.2-1.8c-0.3-0.1-1.2-0.3-2.1-0.3c-2.7,0-4.6,1.7-4.6,4.2c0,1.9,1.3,4,4.3,4c0.9,0,1.9-0.2,2.2-0.3
		c0.2-0.4,0.5-1.3,0.7-1.8L659.9,37.6z"/>
</g>
<line class="st16" x1="744" y1="48" x2="653" y2="48"/>
<g>
	<defs>
		<rect id="SVGID_3_" x="1" y="1" width="1366" height="768"/>
	</defs>
	<clipPath id="SVGID_4_">
		<use xlink:href="#SVGID_3_"  style="overflow:visible;"/>
	</clipPath>
	<rect x="1.5" y="1.5" class="st17" width="1365" height="767"/>
</g>
</svg>
