<?xml version="1.0" encoding="utf-8"?>
<!-- Generator: Adobe Illustrator 23.0.0, SVG Export Plug-In . SVG Version: 6.00 Build 0)  -->
<svg version="1.1" id="Layer_1" xmlns="http://www.w3.org/2000/svg" xmlns:xlink="http://www.w3.org/1999/xlink" x="0px" y="0px"
	 viewBox="0 0 1366 768" style="enable-background:new 0 0 1366 768;" xml:space="preserve">
<style type="text/css">
	.st0{fill:none;stroke:#231F20;stroke-width:0.5;}
	.st1{clip-path:url(#SVGID_2_);fill:#231F20;}
	.st2{clip-path:url(#SVGID_4_);fill:#F9CDE1;}
	.st3{clip-path:url(#SVGID_4_);fill:#F69991;}
	.st4{clip-path:url(#SVGID_4_);fill:#8D94C9;}
	.st5{clip-path:url(#SVGID_4_);fill:#00AEEF;}
	.st6{clip-path:url(#SVGID_4_);fill:#B6E4FA;}
	.st7{clip-path:url(#SVGID_4_);fill:#51C2B8;}
	.st8{clip-path:url(#SVGID_4_);fill:#A8DACB;}
	.st9{clip-path:url(#SVGID_4_);fill:#8FCA75;}
	.st10{clip-path:url(#SVGID_4_);fill:#FFE100;}
	.st11{clip-path:url(#SVGID_4_);fill:#FFF68B;}
	.st12{clip-path:url(#SVGID_4_);fill:#E41F26;}
	.st13{clip-path:url(#SVGID_4_);fill:#ED0B6F;}
	.st14{clip-path:url(#SVGID_4_);fill:#F17DB1;}
	.st15{clip-path:url(#SVGID_4_);fill:#FBCBBF;}
	.st16{clip-path:url(#SVGID_6_);fill:none;stroke:#FFFFFF;}
</style>
<line class="st0" x1="1150.5" y1="-409" x2="215.5" y2="-409"/>
<g>
	<defs>
		<rect id="SVGID_1_" x="-1" width="1366" height="768"/>
	</defs>
	<clipPath id="SVGID_2_">
		<use xlink:href="#SVGID_1_"  style="overflow:visible;"/>
	</clipPath>
	<path class="st1" d="M1054.8,737.8c0,0.4,0.3,0.7,0.7,0.7c0.4,0,0.7-0.4,0.7-0.8c0-0.4-0.2-0.8-0.6-0.8
		C1055,737,1054.8,737.4,1054.8,737.8 M1055.6,736c0-0.7,0.6-4.5,0.6-5.3c0-0.4-0.1-1-0.7-1c-0.6,0-0.7,0.5-0.7,1
		c0,0.8,0.5,4.6,0.6,5.3H1055.6z M1045.8,735.5c0,0.5,0,1,0,1.5s0,1,0,1.5c0.2-0.2,0.4-0.4,0.6-0.4c0.4,0,1.3,0.4,2.3,0.4
		c1.4,0,2.6-1,2.6-2.5c0-1.5-1-2.1-2.2-2.7c-2-1-2.3-1.5-2.3-2.1c0-0.7,0.6-1.3,1.6-1.3c1.1,0,2,0.9,2.1,1.9h0.3c0-0.4,0-0.7,0-1.1
		c0-0.4,0-0.7,0-1.1c-0.2,0.1-0.4,0.2-0.7,0.2c-0.3,0-1-0.4-1.8-0.4c-1.2,0-2.4,0.7-2.4,2.1c0,1.1,0.5,1.6,2.7,2.7
		c1.4,0.7,1.8,1.1,1.8,2c0,1-1,1.5-1.8,1.5c-1.3,0-2.3-1.2-2.4-2.4H1045.8z M1041.2,737.3c0,0.6-0.1,0.7-0.7,0.7h-0.3v0.3
		c0.5,0,1.1-0.1,1.6-0.1c0.4,0,1,0,1.5,0.1v-0.3h-0.3c-0.5,0-0.7-0.1-0.7-0.7v-6.6c0-0.6,0.1-0.7,0.7-0.7h0.3v-0.3
		c-0.5,0-1.1,0.1-1.5,0.1c-0.5,0-1.1,0-1.6-0.1v0.3h0.3c0.5,0,0.7,0.1,0.7,0.7V737.3z M1032.3,735.5c0,0.5,0,1,0,1.5s0,1,0,1.5
		c0.2-0.2,0.4-0.4,0.6-0.4c0.4,0,1.3,0.4,2.3,0.4c1.4,0,2.6-1,2.6-2.5c0-1.5-1-2.1-2.2-2.7c-2-1-2.3-1.5-2.3-2.1
		c0-0.7,0.6-1.3,1.6-1.3c1.1,0,2,0.9,2.1,1.9h0.3c0-0.4,0-0.7,0-1.1c0-0.4,0-0.7,0-1.1c-0.2,0.1-0.4,0.2-0.7,0.2
		c-0.3,0-1-0.4-1.8-0.4c-1.2,0-2.4,0.7-2.4,2.1c0,1.1,0.5,1.6,2.7,2.7c1.4,0.7,1.8,1.1,1.8,2c0,1-1,1.5-1.8,1.5
		c-1.3,0-2.3-1.2-2.4-2.4H1032.3z M1025.4,730.3c0.3,0,0.7,0,1.1,0c1.5,0,2.3,0,2.6,1.5h0.3c-0.1-0.6-0.1-1.3-0.1-2
		c-0.3,0-1.8,0.1-2.9,0.1c-1,0-2.1,0-3.1-0.1v0.3h0.3c0.5,0,0.7,0.1,0.7,0.7v6.6c0,0.6-0.1,0.7-0.7,0.7h-0.3v0.3
		c1.1,0,2.5-0.1,3.6-0.1c0.9,0,1.8,0,2.7,0.1c0-0.2,0.4-1.8,0.5-2.1h-0.3c-0.5,1.5-1.2,1.6-2.4,1.6h-1.5c-0.5,0-0.5-0.2-0.5-0.6
		v-3.1h1.1c1,0,1.5,0,1.6,1.1h0.3c0-0.4,0-0.9,0-1.4c0-0.5,0-0.9,0-1.3h-0.3l-0.1,0.4c-0.1,0.6-0.3,0.8-1.2,0.8h-1.4V730.3z
		 M1019.1,734.2v3.2c0,0.6-0.1,0.7-0.7,0.7h-0.3v0.3c0.5,0,1.1-0.1,1.6-0.1c0.5,0,1,0,1.6,0.1v-0.3h-0.3c-0.5,0-0.7-0.1-0.7-0.7
		v-6.6c0-0.6,0.1-0.7,0.7-0.7h0.3v-0.3c-0.5,0-1.1,0.1-1.6,0.1c-0.5,0-1,0-1.6-0.1v0.3h0.3c0.5,0,0.7,0.1,0.7,0.7v3h-4.4v-3
		c0-0.6,0.1-0.7,0.7-0.7h0.3v-0.3c-0.5,0-1.1,0.1-1.6,0.1c-0.5,0-1,0-1.6-0.1v0.3h0.3c0.5,0,0.7,0.1,0.7,0.7v6.6
		c0,0.6-0.1,0.7-0.7,0.7h-0.3v0.3c0.5,0,1.1-0.1,1.6-0.1c0.5,0,1,0,1.6,0.1v-0.3h-0.3c-0.5,0-0.7-0.1-0.7-0.7v-3.2H1019.1z
		 M1005.6,738.4c0.5,0,1.1-0.1,1.6-0.1c0.4,0,1,0,1.5,0.1v-0.3h-0.3c-0.5,0-0.7-0.1-0.7-0.7v-7h1c1.1,0,1.6,0.3,1.6,1.4v0.3h0.3
		c0-0.2,0-0.3,0-0.5c0-0.4,0-1,0.1-1.8c-1.2,0.1-2.4,0.1-3.6,0.1c-1.2,0-2.5,0-3.6-0.1c0,0.5-0.1,1.6-0.2,2.3h0.3
		c0-0.8,0.4-1.7,1.9-1.7h1v7c0,0.6-0.1,0.8-0.7,0.7h-0.3V738.4z M991.7,738.4c0.6,0,1.1-0.1,1.7-0.1c0.8,0,1.3,0,1.8,0.1v-0.3h-0.5
		c-0.5,0-0.7-0.1-0.7-0.7v-3l2.2-3.3c0.4-0.6,0.7-1,1.3-1v-0.3c-0.4,0-0.7,0.1-1.1,0.1c-0.5,0-0.9,0-1.4-0.1v0.3
		c0.3,0,0.9,0,0.9,0.4c0,0.2-0.2,0.5-0.4,0.9l-1.8,2.7l-1.4-2.2c-0.6-0.9-0.7-1.2-0.7-1.3c0-0.4,0.5-0.4,0.8-0.4v-0.3
		c-0.6,0-1.2,0.1-1.7,0.1c-0.5,0-1.1,0-1.6-0.1v0.3c0.6,0,0.9,0.4,1.3,0.9l2.4,3.6v2.8c0,0.6-0.1,0.7-0.7,0.7h-0.5V738.4z
		 M977.1,738.4c0.4,0,0.8-0.1,1.2-0.1c0.5,0,0.9,0,1.4,0.1v-0.3c-0.5,0-1,0-1-0.4l0-7h0l2.8,6.9c0.2,0.5,0.3,0.8,0.4,0.8
		c0,0,0.1-0.2,0.2-0.4l2.9-7.2h0l0,6.6c0,0.6-0.1,0.7-1,0.7v0.3c0.7,0,0.9-0.1,1.6-0.1c0.5,0,1.1,0,1.6,0.1v-0.3c-0.6,0-1,0-1-0.7
		l-0.1-5.5c0-0.3,0-0.6,0-0.9c0-0.9,0.1-1,1-1v-0.3c-0.4,0-0.7,0.1-1.1,0.1c-0.4,0-0.7,0-1.1-0.1c-0.9,2.2-1.8,4.4-2.7,6.7h0
		c-0.8-2.3-1.8-4.5-2.8-6.7c-0.3,0-0.7,0.1-1.1,0.1c-0.4,0-0.8,0-1.2-0.1v0.3c1,0,1,0.2,1,0.9l-0.2,6.6c0,0.4-0.2,0.6-0.7,0.6h-0.3
		V738.4z M970.9,734.1c-0.5,0-1,0.1-1.5,0.1c-0.6,0-1.2,0-1.9-0.1v0.3c1.2,0,1.3,0,1.3,0.8v1.6c0,0.2,0,0.5-0.1,0.6
		c-0.5,0.3-1.1,0.5-1.9,0.5c-2.1,0-3.3-2.2-3.3-4.2c0-2.3,1.6-3.7,3.1-3.7c1.6,0,2.6,1.1,2.9,2.3h0.3c-0.1-0.7-0.1-1.5-0.2-2.4
		c-0.1,0-0.3,0-0.6,0c-0.5,0-0.9-0.2-1.4-0.3c-0.4-0.1-0.7-0.1-1.1-0.1c-2.5,0-4.3,2-4.3,4.5c0,2.6,1.8,4.5,4.3,4.5
		c1.2,0,2.5-0.5,3.6-1.3v-2.3c0-0.5,0.3-0.5,0.9-0.5V734.1z M952.6,737.4c0,0.4-0.1,0.7-0.6,0.7h-0.3v0.3c0.4,0,0.8-0.1,1.2-0.1
		c0.4,0,0.8,0,1.2,0.1v-0.3h-0.3c-0.6,0-0.6-0.2-0.6-0.7v-6.1h0l5.4,6.7c0.4,0.5,0.5,0.6,0.5,0.6s0.1-0.1,0.1-0.4v-7.5
		c0-0.4,0.1-0.7,0.6-0.7h0.3v-0.3c-0.4,0-0.8,0.1-1.2,0.1c-0.4,0-0.8,0-1.2-0.1v0.3h0.3c0.6,0,0.6,0.2,0.6,0.7v5.4h0l-5.1-6.3
		c-0.3,0-0.7,0.1-1,0.1s-0.7,0-1-0.1v0.3h0.3c0.2,0,0.3,0.1,0.5,0.3l0.4,0.4V737.4z M947.3,737.3c0,0.6-0.1,0.7-0.7,0.7h-0.3v0.3
		c0.5,0,1.1-0.1,1.6-0.1c0.4,0,1,0,1.5,0.1v-0.3h-0.3c-0.5,0-0.7-0.1-0.7-0.7v-6.6c0-0.6,0.1-0.7,0.7-0.7h0.3v-0.3
		c-0.5,0-1.1,0.1-1.5,0.1c-0.5,0-1.1,0-1.6-0.1v0.3h0.3c0.5,0,0.7,0.1,0.7,0.7V737.3z M939.4,738.4c0.5,0,1.1-0.1,1.6-0.1
		c0.4,0,1,0,1.5,0.1v-0.3h-0.3c-0.5,0-0.7-0.1-0.7-0.7v-7h1c1.1,0,1.6,0.3,1.6,1.4v0.3h0.3c0-0.2,0-0.3,0-0.5c0-0.4,0-1,0.1-1.8
		c-1.2,0.1-2.4,0.1-3.6,0.1c-1.2,0-2.5,0-3.6-0.1c0,0.5-0.1,1.6-0.2,2.3h0.3c0-0.8,0.4-1.7,1.9-1.7h1v7c0,0.6-0.1,0.8-0.7,0.7h-0.3
		V738.4z M933.2,737.3c0,0.6-0.1,0.7-0.7,0.7h-0.3v0.3c0.5,0,1.1-0.1,1.6-0.1c0.4,0,1,0,1.5,0.1v-0.3h-0.3c-0.5,0-0.7-0.1-0.7-0.7
		v-6.6c0-0.6,0.1-0.7,0.7-0.7h0.3v-0.3c-0.5,0-1.1,0.1-1.5,0.1c-0.5,0-1.1,0-1.6-0.1v0.3h0.3c0.5,0,0.7,0.1,0.7,0.7V737.3z
		 M924.7,730.4c0-0.3,0.1-0.3,0.4-0.3c2.2,0,2.5,1.1,2.5,2.1c0,0.8-0.3,2-2.4,2c-0.2,0-0.4,0-0.6,0V730.4z M922.5,738.4
		c0.5,0,1.1-0.1,1.6-0.1c0.4,0,1,0,1.5,0.1v-0.3h-0.3c-0.5,0-0.7-0.1-0.7-0.7v-2.7c1,0,1,0.1,1.5,0.6l2.3,3c0.3,0,0.6-0.1,1-0.1
		c0.3,0,0.7,0,1,0.1v-0.3c-0.5,0-0.7-0.1-1.2-0.7l-1.7-2.2c-0.3-0.3-0.5-0.6-0.7-0.7c1.4-0.3,2.1-1.2,2.1-2.4c0-1.9-1.4-2.4-3-2.4
		c-0.6,0-1.1,0.1-1.8,0.1c-0.5,0-1.1,0-1.6-0.1v0.3h0.3c0.5,0,0.7,0.1,0.7,0.7v6.6c0,0.6-0.1,0.7-0.7,0.7h-0.3V738.4z M913.1,736.5
		L913.1,736.5l-1.9-5.6c-0.1-0.2-0.1-0.4-0.1-0.5c0-0.3,0.2-0.4,0.6-0.4h0.2v-0.3c-0.5,0-1.1,0.1-1.6,0.1c-0.5,0-1.1,0-1.6-0.1v0.3
		c0.7,0,0.8,0.2,1.1,0.8l2.8,7.6c0,0.1,0.1,0.2,0.1,0.2c0,0,0.1,0,0.1-0.2l2-5.5h0l2,5.5c0,0.1,0.1,0.2,0.1,0.2c0,0,0.1,0,0.1-0.2
		l2.9-7.9c0.1-0.2,0.3-0.5,0.8-0.5h0.1v-0.3c-0.4,0-0.8,0.1-1.2,0.1c-0.4,0-0.8,0-1.2-0.1v0.3h0.3c0.3,0,0.6,0,0.6,0.4
		c0,0.2,0,0.3-0.2,0.7l-1.9,5.5h0l-2-5.7c0-0.1-0.1-0.3-0.1-0.4c0-0.3,0.3-0.4,0.6-0.4h0.4v-0.3c-0.5,0-1.1,0.1-1.6,0.1
		c-0.5,0-1.1,0-1.6-0.1v0.3c0.5,0,0.8,0,1,0.7l0.6,1.6L913.1,736.5z M898.1,730.3c0.3,0,0.7,0,1.1,0c1.5,0,2.3,0,2.6,1.5h0.3
		c-0.1-0.6-0.1-1.3-0.1-2c-0.3,0-1.8,0.1-2.9,0.1c-1,0-2.1,0-3.1-0.1v0.3h0.3c0.5,0,0.7,0.1,0.7,0.7v6.6c0,0.6-0.1,0.7-0.7,0.7h-0.3
		v0.3c1.1,0,2.5-0.1,3.6-0.1c0.9,0,1.8,0,2.7,0.1c0-0.2,0.4-1.8,0.5-2.1h-0.3c-0.5,1.5-1.2,1.6-2.4,1.6h-1.5c-0.5,0-0.5-0.2-0.5-0.6
		v-3.1h1.1c1,0,1.5,0,1.6,1.1h0.3c0-0.4,0-0.9,0-1.4c0-0.5,0-0.9,0-1.3h-0.3l-0.1,0.4c-0.1,0.6-0.3,0.8-1.2,0.8h-1.4V730.3z
		 M883.7,738.4c0.4,0,0.8-0.1,1.2-0.1c0.5,0,0.9,0,1.4,0.1v-0.3c-0.5,0-1,0-1-0.4l0-7h0l2.8,6.9c0.2,0.5,0.3,0.8,0.4,0.8
		c0,0,0.1-0.2,0.2-0.4l2.9-7.2h0l0,6.6c0,0.6-0.1,0.7-1,0.7v0.3c0.7,0,0.9-0.1,1.6-0.1c0.5,0,1.1,0,1.6,0.1v-0.3c-0.6,0-1,0-1-0.7
		l-0.1-5.5c0-0.3,0-0.6,0-0.9c0-0.9,0.1-1,1-1v-0.3c-0.4,0-0.7,0.1-1.1,0.1c-0.4,0-0.7,0-1.1-0.1c-0.9,2.2-1.8,4.4-2.7,6.7h0
		c-0.8-2.3-1.8-4.5-2.8-6.7c-0.3,0-0.7,0.1-1.1,0.1c-0.4,0-0.8,0-1.2-0.1v0.3c1,0,1,0.2,1,0.9l-0.2,6.6c0,0.4-0.2,0.6-0.7,0.6h-0.3
		V738.4z M870.8,730.5c0-0.2,0.1-0.3,0.7-0.3c3.6,0,4.2,2.5,4.2,4.1c0,3.1-2,3.7-3.9,3.7c-0.7,0-1.1-0.1-1.1-0.6V730.5z
		 M868.6,738.4c0.6,0,1.3-0.1,1.9-0.1c0.5,0,1,0.1,1.6,0.1c3.3,0,5-1.9,5-4.4c0-2.8-2-4.3-4.7-4.3c-0.6,0-1.3,0.1-2,0.1
		c-0.7,0-1,0-1.8-0.1v0.3h0.3c0.5,0,0.7,0.1,0.7,0.7v6.6c0,0.6-0.1,0.7-0.7,0.7h-0.3V738.4z M861.9,730.3c0.3,0,0.7,0,1.1,0
		c1.5,0,2.3,0,2.6,1.5h0.3c-0.1-0.6-0.1-1.3-0.1-2c-0.3,0-1.8,0.1-2.9,0.1c-1,0-2.1,0-3.1-0.1v0.3h0.3c0.5,0,0.7,0.1,0.7,0.7v6.6
		c0,0.6-0.1,0.7-0.7,0.7h-0.3v0.3c1.1,0,2.5-0.1,3.6-0.1c0.9,0,1.8,0,2.7,0.1c0-0.2,0.4-1.8,0.5-2.1h-0.3c-0.5,1.5-1.2,1.6-2.4,1.6
		h-1.5c-0.5,0-0.5-0.2-0.5-0.6v-3.1h1.1c1,0,1.5,0,1.6,1.1h0.3c0-0.4,0-0.9,0-1.4c0-0.5,0-0.9,0-1.3h-0.3l-0.1,0.4
		c-0.1,0.6-0.3,0.8-1.2,0.8h-1.4V730.3z M853.8,730.4c0-0.2,0-0.3,0.2-0.3c2.5,0,2.5,1.6,2.5,2.3c0,1.5-1.2,1.9-2.3,1.9h-0.4V730.4z
		 M851.7,738.4c0.5,0,1.1-0.1,1.6-0.1c0.4,0,1,0,1.5,0.1v-0.3h-0.3c-0.5,0-0.7-0.1-0.7-0.7v-2.7c0.2,0,0.3,0,0.5,0
		c2.3,0,3.6-0.9,3.6-2.6c0-1.5-1.1-2.4-2.9-2.4c-0.6,0-1.2,0.1-1.8,0.1c-0.5,0-1.1,0-1.6-0.1v0.3h0.3c0.5,0,0.7,0.1,0.7,0.7v6.6
		c0,0.6-0.1,0.7-0.7,0.7h-0.3V738.4z M843.1,738.4c1.1,0,2.5-0.1,3.6-0.1c0.8,0,1.7,0,2.6,0.1c0-0.2,0.4-2,0.5-2.3h-0.3
		c-0.5,1.7-1.2,1.8-2.4,1.8h-1.6c-0.3,0-0.3,0-0.3-0.2v-6.9c0-0.6,0.1-0.7,0.7-0.7h0.3v-0.3c-0.5,0-1.1,0.1-1.5,0.1
		c-0.5,0-1.1,0-1.6-0.1v0.3h0.3c0.5,0,0.7,0.1,0.7,0.7v6.6c0,0.6-0.1,0.7-0.7,0.7h-0.3V738.4z M836.3,730.3c0.3,0,0.7,0,1.1,0
		c1.5,0,2.3,0,2.6,1.5h0.3c-0.1-0.6-0.1-1.3-0.1-2c-0.3,0-1.8,0.1-2.9,0.1c-1,0-2.1,0-3.1-0.1v0.3h0.3c0.5,0,0.7,0.1,0.7,0.7v6.6
		c0,0.6-0.1,0.7-0.7,0.7h-0.3v0.3c1.1,0,2.5-0.1,3.6-0.1c0.9,0,1.8,0,2.7,0.1c0-0.2,0.4-1.8,0.5-2.1h-0.3c-0.5,1.5-1.2,1.6-2.4,1.6
		h-1.5c-0.5,0-0.5-0.2-0.5-0.6v-3.1h1.1c1,0,1.5,0,1.6,1.1h0.3c0-0.4,0-0.9,0-1.4c0-0.5,0-0.9,0-1.3H839L839,733
		c-0.1,0.6-0.3,0.8-1.2,0.8h-1.4V730.3z M830,734.2v3.2c0,0.6-0.1,0.7-0.7,0.7H829v0.3c0.5,0,1.1-0.1,1.6-0.1c0.5,0,1,0,1.6,0.1
		v-0.3h-0.3c-0.5,0-0.7-0.1-0.7-0.7v-6.6c0-0.6,0.1-0.7,0.7-0.7h0.3v-0.3c-0.5,0-1.1,0.1-1.6,0.1c-0.5,0-1,0-1.6-0.1v0.3h0.3
		c0.5,0,0.7,0.1,0.7,0.7v3h-4.4v-3c0-0.6,0.1-0.7,0.7-0.7h0.3v-0.3c-0.5,0-1.1,0.1-1.6,0.1c-0.5,0-1,0-1.6-0.1v0.3h0.3
		c0.5,0,0.7,0.1,0.7,0.7v6.6c0,0.6-0.1,0.7-0.7,0.7h-0.3v0.3c0.5,0,1.1-0.1,1.6-0.1c0.5,0,1,0,1.6,0.1v-0.3h-0.3
		c-0.5,0-0.7-0.1-0.7-0.7v-3.2H830z M812,738.4c0.5,0,1.1-0.1,1.6-0.1c0.4,0,1,0,1.5,0.1v-0.3h-0.3c-0.5,0-0.7-0.1-0.7-0.7v-7h1
		c1.1,0,1.6,0.3,1.6,1.4v0.3h0.3c0-0.2,0-0.3,0-0.5c0-0.4,0-1,0.1-1.8c-1.2,0.1-2.4,0.1-3.6,0.1c-1.2,0-2.5,0-3.6-0.1
		c0,0.5-0.1,1.6-0.2,2.3h0.3c0-0.8,0.4-1.7,1.9-1.7h1v7c0,0.6-0.1,0.8-0.7,0.7H812V738.4z M805.9,735h-2.8l1.4-3.6L805.9,735z
		 M800.6,738.4c0.3,0,0.7-0.1,1-0.1c0.4,0,0.8,0,1.2,0.1v-0.3c-0.3,0-0.7,0-0.7-0.4c0-0.1,0-0.3,0.1-0.5l0.7-1.7h3.2l0.6,1.6
		c0.1,0.2,0.2,0.5,0.2,0.7c0,0.3-0.4,0.3-0.7,0.3v0.3c0.5,0,0.9-0.1,1.4-0.1c0.5,0,1,0,1.5,0.1v-0.3c-0.5,0-0.7-0.2-1-1l-3-7.5
		c0-0.1-0.1-0.1-0.1-0.1c-0.1,0-0.1,0.1-0.1,0.1l-3,7.3c-0.4,0.9-0.5,1.3-1.1,1.3V738.4z M796.7,734.2v3.2c0,0.6-0.1,0.7-0.7,0.7
		h-0.3v0.3c0.5,0,1.1-0.1,1.6-0.1c0.5,0,1,0,1.6,0.1v-0.3h-0.3c-0.5,0-0.7-0.1-0.7-0.7v-6.6c0-0.6,0.1-0.7,0.7-0.7h0.3v-0.3
		c-0.5,0-1.1,0.1-1.6,0.1c-0.5,0-1,0-1.6-0.1v0.3h0.3c0.5,0,0.7,0.1,0.7,0.7v3h-4.4v-3c0-0.6,0.1-0.7,0.7-0.7h0.3v-0.3
		c-0.5,0-1.1,0.1-1.6,0.1c-0.5,0-1,0-1.6-0.1v0.3h0.3c0.5,0,0.7,0.1,0.7,0.7v6.6c0,0.6-0.1,0.7-0.7,0.7h-0.3v0.3
		c0.5,0,1.1-0.1,1.6-0.1c0.5,0,1,0,1.6,0.1v-0.3H793c-0.5,0-0.7-0.1-0.7-0.7v-3.2H796.7z M783.3,738.4c0.5,0,1.1-0.1,1.6-0.1
		c0.4,0,1,0,1.5,0.1v-0.3h-0.3c-0.5,0-0.7-0.1-0.7-0.7v-7h1c1.1,0,1.6,0.3,1.6,1.4v0.3h0.3c0-0.2,0-0.3,0-0.5c0-0.4,0-1,0.1-1.8
		c-1.2,0.1-2.4,0.1-3.6,0.1c-1.2,0-2.5,0-3.6-0.1c0,0.5-0.1,1.6-0.2,2.3h0.3c0-0.8,0.4-1.7,1.9-1.7h1v7c0,0.6-0.1,0.8-0.7,0.7h-0.3
		V738.4z M770.3,730.3c0.3,0,0.7,0,1.1,0c1.5,0,2.3,0,2.6,1.5h0.3c-0.1-0.6-0.1-1.3-0.1-2c-0.3,0-1.8,0.1-2.9,0.1
		c-1,0-2.1,0-3.1-0.1v0.3h0.3c0.5,0,0.7,0.1,0.7,0.7v6.6c0,0.6-0.1,0.7-0.7,0.7h-0.3v0.3c1.1,0,2.5-0.1,3.6-0.1c0.9,0,1.8,0,2.7,0.1
		c0-0.2,0.4-1.8,0.5-2.1h-0.3c-0.5,1.5-1.2,1.6-2.4,1.6h-1.5c-0.5,0-0.5-0.2-0.5-0.6v-3.1h1.1c1,0,1.5,0,1.6,1.1h0.3
		c0-0.4,0-0.9,0-1.4c0-0.5,0-0.9,0-1.3H773l-0.1,0.4c-0.1,0.6-0.3,0.8-1.2,0.8h-1.4V730.3z M759.5,738.4c1.1,0,2.5-0.1,3.6-0.1
		c0.8,0,1.7,0,2.6,0.1c0-0.2,0.4-2,0.5-2.3h-0.3c-0.5,1.7-1.2,1.8-2.4,1.8H762c-0.3,0-0.3,0-0.3-0.2v-6.9c0-0.6,0.1-0.7,0.7-0.7h0.3
		v-0.3c-0.5,0-1.1,0.1-1.5,0.1c-0.5,0-1.1,0-1.6-0.1v0.3h0.3c0.5,0,0.7,0.1,0.7,0.7v6.6c0,0.6-0.1,0.7-0.7,0.7h-0.3V738.4z
		 M753.4,730.4c0-0.2,0-0.3,0.2-0.3c2.5,0,2.5,1.6,2.5,2.3c0,1.5-1.2,1.9-2.3,1.9h-0.4V730.4z M751.2,738.4c0.5,0,1.1-0.1,1.6-0.1
		c0.4,0,1,0,1.5,0.1v-0.3h-0.3c-0.5,0-0.7-0.1-0.7-0.7v-2.7c0.2,0,0.3,0,0.5,0c2.3,0,3.6-0.9,3.6-2.6c0-1.5-1.1-2.4-2.9-2.4
		c-0.6,0-1.2,0.1-1.8,0.1c-0.5,0-1.1,0-1.6-0.1v0.3h0.3c0.5,0,0.7,0.1,0.7,0.7v6.6c0,0.6-0.1,0.7-0.7,0.7h-0.3V738.4z M745.1,737.9
		c-2.1,0-3.3-2.2-3.3-4.2c0-2.6,1.7-3.7,2.8-3.7c2.3,0,3.2,2.2,3.2,3.9C747.7,736.9,746.4,737.9,745.1,737.9 M744.8,738.5
		c2.5,0,4.3-1.8,4.3-4.5c0-2.5-1.8-4.5-4.3-4.5c-2.5,0-4.3,2-4.3,4.5C740.5,736.7,742.3,738.5,744.8,738.5 M733.7,730.3
		c0.3,0,0.7,0,1.1,0c1.5,0,2.3,0,2.6,1.5h0.3c-0.1-0.6-0.1-1.3-0.1-2c-0.3,0-1.8,0.1-2.9,0.1c-1,0-2.1,0-3.1-0.1v0.3h0.3
		c0.5,0,0.7,0.1,0.7,0.7v6.6c0,0.6-0.1,0.7-0.7,0.7h-0.3v0.3c1.1,0,2.5-0.1,3.6-0.1c0.9,0,1.8,0,2.7,0.1c0-0.2,0.4-1.8,0.5-2.1H738
		c-0.5,1.5-1.2,1.6-2.4,1.6h-1.5c-0.5,0-0.5-0.2-0.5-0.6v-3.1h1.1c1,0,1.5,0,1.6,1.1h0.3c0-0.4,0-0.9,0-1.4c0-0.5,0-0.9,0-1.3h-0.3
		l-0.1,0.4c-0.1,0.6-0.3,0.8-1.2,0.8h-1.4V730.3z M725.6,730.4c0-0.2,0-0.3,0.2-0.3c2.5,0,2.5,1.6,2.5,2.3c0,1.5-1.2,1.9-2.3,1.9
		h-0.4V730.4z M723.4,738.4c0.5,0,1.1-0.1,1.6-0.1c0.4,0,1,0,1.5,0.1v-0.3h-0.3c-0.5,0-0.7-0.1-0.7-0.7v-2.7c0.2,0,0.3,0,0.5,0
		c2.3,0,3.6-0.9,3.6-2.6c0-1.5-1.1-2.4-2.9-2.4c-0.6,0-1.2,0.1-1.8,0.1c-0.5,0-1.1,0-1.6-0.1v0.3h0.3c0.5,0,0.7,0.1,0.7,0.7v6.6
		c0,0.6-0.1,0.7-0.7,0.7h-0.3V738.4z M712.3,730.3c0.3,0,0.7,0,1.1,0c1.5,0,2.3,0,2.6,1.5h0.3c-0.1-0.6-0.1-1.3-0.1-2
		c-0.3,0-1.8,0.1-2.9,0.1c-1,0-2.1,0-3.1-0.1v0.3h0.3c0.5,0,0.7,0.1,0.7,0.7v6.6c0,0.6-0.1,0.7-0.7,0.7h-0.3v0.3
		c1.1,0,2.5-0.1,3.6-0.1c0.9,0,1.8,0,2.7,0.1c0-0.2,0.4-1.8,0.5-2.1h-0.3c-0.5,1.5-1.2,1.6-2.4,1.6h-1.5c-0.5,0-0.5-0.2-0.5-0.6
		v-3.1h1.1c1,0,1.5,0,1.6,1.1h0.3c0-0.4,0-0.9,0-1.4c0-0.5,0-0.9,0-1.3H715l-0.1,0.4c-0.1,0.6-0.3,0.8-1.2,0.8h-1.4V730.3z
		 M706,734.2v3.2c0,0.6-0.1,0.7-0.7,0.7H705v0.3c0.5,0,1.1-0.1,1.6-0.1c0.5,0,1,0,1.6,0.1v-0.3h-0.3c-0.5,0-0.7-0.1-0.7-0.7v-6.6
		c0-0.6,0.1-0.7,0.7-0.7h0.3v-0.3c-0.5,0-1.1,0.1-1.6,0.1c-0.5,0-1,0-1.6-0.1v0.3h0.3c0.5,0,0.7,0.1,0.7,0.7v3h-4.4v-3
		c0-0.6,0.1-0.7,0.7-0.7h0.3v-0.3c-0.5,0-1.1,0.1-1.6,0.1c-0.5,0-1,0-1.6-0.1v0.3h0.3c0.5,0,0.7,0.1,0.7,0.7v6.6
		c0,0.6-0.1,0.7-0.7,0.7h-0.3v0.3c0.5,0,1.1-0.1,1.6-0.1c0.5,0,1,0,1.6,0.1v-0.3h-0.3c-0.5,0-0.7-0.1-0.7-0.7v-3.2H706z
		 M692.5,738.4c0.5,0,1.1-0.1,1.6-0.1c0.4,0,1,0,1.5,0.1v-0.3h-0.3c-0.5,0-0.7-0.1-0.7-0.7v-7h1c1.1,0,1.6,0.3,1.6,1.4v0.3h0.3
		c0-0.2,0-0.3,0-0.5c0-0.4,0-1,0.1-1.8c-1.2,0.1-2.4,0.1-3.6,0.1c-1.2,0-2.5,0-3.6-0.1c0,0.5-0.1,1.6-0.2,2.3h0.3
		c0-0.8,0.4-1.7,1.9-1.7h1v7c0,0.6-0.1,0.8-0.7,0.7h-0.3V738.4z M677.5,738.4c1.1,0,2.5-0.1,3.6-0.1c0.8,0,1.7,0,2.6,0.1
		c0-0.2,0.4-2,0.5-2.3h-0.3c-0.5,1.7-1.2,1.8-2.4,1.8h-1.6c-0.3,0-0.3,0-0.3-0.2v-6.9c0-0.6,0.1-0.7,0.7-0.7h0.3v-0.3
		c-0.5,0-1.1,0.1-1.5,0.1c-0.5,0-1.1,0-1.6-0.1v0.3h0.3c0.5,0,0.7,0.1,0.7,0.7v6.6c0,0.6-0.1,0.7-0.7,0.7h-0.3V738.4z M668.7,738.4
		c1.1,0,2.5-0.1,3.6-0.1c0.8,0,1.7,0,2.6,0.1c0-0.2,0.4-2,0.5-2.3h-0.3c-0.5,1.7-1.2,1.8-2.4,1.8h-1.6c-0.3,0-0.3,0-0.3-0.2v-6.9
		c0-0.6,0.1-0.7,0.7-0.7h0.3v-0.3c-0.5,0-1.1,0.1-1.5,0.1c-0.5,0-1.1,0-1.6-0.1v0.3h0.3c0.5,0,0.7,0.1,0.7,0.7v6.6
		c0,0.6-0.1,0.7-0.7,0.7h-0.3V738.4z M663.7,735h-2.8l1.4-3.6L663.7,735z M658.4,738.4c0.3,0,0.7-0.1,1-0.1c0.4,0,0.8,0,1.2,0.1
		v-0.3c-0.3,0-0.7,0-0.7-0.4c0-0.1,0-0.3,0.1-0.5l0.7-1.7h3.2l0.6,1.6c0.1,0.2,0.2,0.5,0.2,0.7c0,0.3-0.4,0.3-0.7,0.3v0.3
		c0.5,0,0.9-0.1,1.4-0.1c0.5,0,1,0,1.5,0.1v-0.3c-0.5,0-0.7-0.2-1-1l-3-7.5c0-0.1-0.1-0.1-0.1-0.1c-0.1,0-0.1,0.1-0.1,0.1l-3,7.3
		c-0.4,0.9-0.5,1.3-1.1,1.3V738.4z M648,737.9c-2.1,0-3.3-2.2-3.3-4.2c0-2.6,1.7-3.7,2.8-3.7c2.3,0,3.2,2.2,3.2,3.9
		C650.6,736.9,649.3,737.9,648,737.9 M647.7,738.5c2.5,0,4.3-1.8,4.3-4.5c0-2.5-1.8-4.5-4.3-4.5c-2.5,0-4.3,2-4.3,4.5
		C643.4,736.7,645.1,738.5,647.7,738.5 M637,737.9c-2.1,0-3.3-2.2-3.3-4.2c0-2.6,1.7-3.7,2.8-3.7c2.3,0,3.2,2.2,3.2,3.9
		C639.6,736.9,638.3,737.9,637,737.9 M636.7,738.5c2.5,0,4.3-1.8,4.3-4.5c0-2.5-1.8-4.5-4.3-4.5c-2.5,0-4.3,2-4.3,4.5
		C632.4,736.7,634.2,738.5,636.7,738.5 M625.3,738.4c0.5,0,1.1-0.1,1.6-0.1c0.4,0,1,0,1.5,0.1v-0.3h-0.3c-0.5,0-0.7-0.1-0.7-0.7v-7
		h1c1.1,0,1.6,0.3,1.6,1.4v0.3h0.3c0-0.2,0-0.3,0-0.5c0-0.4,0-1,0.1-1.8c-1.2,0.1-2.4,0.1-3.6,0.1c-1.2,0-2.5,0-3.6-0.1
		c0,0.5-0.1,1.6-0.2,2.3h0.3c0-0.8,0.4-1.7,1.9-1.7h1v7c0,0.6-0.1,0.8-0.7,0.7h-0.3V738.4z M609.6,735.6c0,2,0.9,2.9,2.9,2.9
		c2.7,0,3.5-1.1,3.5-3.2v-4.6c0-0.4,0.1-0.7,0.6-0.7h0.3v-0.3c-0.3,0-0.7,0.1-1.2,0.1c-0.4,0-0.9,0-1.3-0.1v0.3h0.3
		c0.6,0,0.6,0.2,0.6,0.7v4.9c0,1.6-1,2.2-2.3,2.2c-1.6,0-2.3-1-2.3-2.5v-4.5c0-0.6,0.1-0.7,0.7-0.7h0.3v-0.3c-0.5,0-1,0.1-1.5,0.1
		c-0.5,0-1.1,0-1.6-0.1v0.3h0.3c0.5,0,0.7,0.1,0.7,0.7V735.6z M602.6,737.9c-2.1,0-3.3-2.2-3.3-4.2c0-2.6,1.7-3.7,2.8-3.7
		c2.3,0,3.2,2.2,3.2,3.9C605.3,736.9,604,737.9,602.6,737.9 M602.3,738.5c2.5,0,4.3-1.8,4.3-4.5c0-2.5-1.8-4.5-4.3-4.5
		c-2.5,0-4.3,2-4.3,4.5C598,736.7,599.8,738.5,602.3,738.5 M590.2,738.4c0.6,0,1.1-0.1,1.7-0.1c0.8,0,1.3,0,1.8,0.1v-0.3h-0.5
		c-0.5,0-0.7-0.1-0.7-0.7v-3l2.2-3.3c0.4-0.6,0.7-1,1.3-1v-0.3c-0.4,0-0.7,0.1-1.1,0.1c-0.5,0-0.9,0-1.4-0.1v0.3
		c0.3,0,0.9,0,0.9,0.4c0,0.2-0.2,0.5-0.4,0.9l-1.8,2.7l-1.4-2.2c-0.6-0.9-0.7-1.2-0.7-1.3c0-0.4,0.5-0.4,0.8-0.4v-0.3
		c-0.6,0-1.2,0.1-1.7,0.1c-0.5,0-1.1,0-1.6-0.1v0.3c0.6,0,0.9,0.4,1.3,0.9l2.4,3.6v2.8c0,0.6-0.1,0.7-0.7,0.7h-0.5V738.4z
		 M573.3,738.4c0.5,0,1.1-0.1,1.6-0.1c0.4,0,1,0,1.5,0.1v-0.3h-0.3c-0.5,0-0.7-0.1-0.7-0.7v-6.6c0-0.6,0.1-0.7,0.7-0.7h0.3v-0.3
		c-0.5,0-1.1,0.1-1.6,0.1c-0.5,0-1,0-1.6-0.1v0.3h0.3c0.5,0,0.7,0.1,0.7,0.7v6.6c0,0.6-0.1,0.7-0.7,0.7h-0.3V738.4z M578.2,738.4
		c0.8,0,1.3-0.1,1.8-0.1c0.6,0,1.2,0,1.7,0.1v-0.3c-0.5,0-1-0.3-1.2-0.6l-3.4-3.7c-0.2-0.2-0.4-0.4-0.5-0.5l2.2-2
		c1-0.9,1.5-1.4,2.3-1.4v-0.3c-0.4,0-0.9,0.1-1.3,0.1c-0.5,0-1,0-1.6-0.1v0.3c0.3,0,0.8,0,0.8,0.3c0,0.2-0.3,0.4-0.6,0.8l-2.8,2.7
		l2.8,3c0.4,0.5,0.8,0.8,0.8,1c0,0.3-0.6,0.3-0.9,0.3V738.4z M563.9,737.4c0,0.4-0.1,0.7-0.6,0.7h-0.3v0.3c0.4,0,0.8-0.1,1.2-0.1
		c0.4,0,0.8,0,1.2,0.1v-0.3h-0.3c-0.6,0-0.6-0.2-0.6-0.7v-6.1h0l5.4,6.7c0.4,0.5,0.5,0.6,0.5,0.6c0.1,0,0.1-0.1,0.1-0.4v-7.5
		c0-0.4,0.1-0.7,0.6-0.7h0.3v-0.3c-0.4,0-0.8,0.1-1.2,0.1c-0.4,0-0.8,0-1.2-0.1v0.3h0.3c0.6,0,0.6,0.2,0.6,0.7v5.4h0l-5.1-6.3
		c-0.3,0-0.7,0.1-1,0.1c-0.3,0-0.7,0-1-0.1v0.3h0.3c0.2,0,0.3,0.1,0.5,0.3l0.4,0.4V737.4z M558.1,735h-2.8l1.4-3.6L558.1,735z
		 M552.8,738.4c0.3,0,0.7-0.1,1-0.1c0.4,0,0.8,0,1.2,0.1v-0.3c-0.3,0-0.7,0-0.7-0.4c0-0.1,0-0.3,0.1-0.5l0.7-1.7h3.2l0.6,1.6
		c0.1,0.2,0.2,0.5,0.2,0.7c0,0.3-0.4,0.3-0.7,0.3v0.3c0.5,0,0.9-0.1,1.4-0.1c0.5,0,1,0,1.5,0.1v-0.3c-0.5,0-0.7-0.2-1-1l-3-7.5
		c0-0.1-0.1-0.1-0.1-0.1c-0.1,0-0.1,0.1-0.1,0.1l-3,7.3c-0.4,0.9-0.5,1.3-1.1,1.3V738.4z M549,734.2v3.2c0,0.6-0.1,0.7-0.7,0.7H548
		v0.3c0.5,0,1.1-0.1,1.6-0.1c0.5,0,1,0,1.6,0.1v-0.3h-0.3c-0.5,0-0.7-0.1-0.7-0.7v-6.6c0-0.6,0.1-0.7,0.7-0.7h0.3v-0.3
		c-0.5,0-1.1,0.1-1.6,0.1c-0.5,0-1,0-1.6-0.1v0.3h0.3c0.5,0,0.7,0.1,0.7,0.7v3h-4.4v-3c0-0.6,0.1-0.7,0.7-0.7h0.3v-0.3
		c-0.5,0-1.1,0.1-1.6,0.1c-0.5,0-1,0-1.6-0.1v0.3h0.3c0.5,0,0.7,0.1,0.7,0.7v6.6c0,0.6-0.1,0.7-0.7,0.7h-0.3v0.3
		c0.5,0,1.1-0.1,1.6-0.1c0.5,0,1,0,1.6,0.1v-0.3h-0.3c-0.5,0-0.7-0.1-0.7-0.7v-3.2H549z M535.5,738.4c0.5,0,1.1-0.1,1.6-0.1
		c0.4,0,1,0,1.5,0.1v-0.3h-0.3c-0.5,0-0.7-0.1-0.7-0.7v-7h1c1.1,0,1.6,0.3,1.6,1.4v0.3h0.3c0-0.2,0-0.3,0-0.5c0-0.4,0-1,0.1-1.8
		c-1.2,0.1-2.4,0.1-3.6,0.1c-1.2,0-2.5,0-3.6-0.1c0,0.5-0.1,1.6-0.2,2.3h0.3c0-0.8,0.4-1.7,1.9-1.7h1v7c0,0.6-0.1,0.8-0.7,0.7h-0.3
		V738.4z M520.6,730.5c0-0.2,0.1-0.3,0.7-0.3c3.6,0,4.2,2.5,4.2,4.1c0,3.1-2,3.7-3.9,3.7c-0.7,0-1.1-0.1-1.1-0.6V730.5z
		 M518.4,738.4c0.6,0,1.3-0.1,1.9-0.1c0.5,0,1,0.1,1.6,0.1c3.3,0,5-1.9,5-4.4c0-2.8-2-4.3-4.7-4.3c-0.6,0-1.3,0.1-2,0.1
		c-0.7,0-1,0-1.8-0.1v0.3h0.3c0.5,0,0.7,0.1,0.7,0.7v6.6c0,0.6-0.1,0.7-0.7,0.7h-0.3V738.4z M509,737.4c0,0.4-0.1,0.7-0.6,0.7H508
		v0.3c0.4,0,0.8-0.1,1.2-0.1c0.4,0,0.8,0,1.2,0.1v-0.3h-0.3c-0.6,0-0.6-0.2-0.6-0.7v-6.1h0l5.4,6.7c0.4,0.5,0.5,0.6,0.5,0.6
		s0.1-0.1,0.1-0.4v-7.5c0-0.4,0.1-0.7,0.6-0.7h0.3v-0.3c-0.4,0-0.8,0.1-1.2,0.1c-0.4,0-0.8,0-1.2-0.1v0.3h0.3c0.6,0,0.6,0.2,0.6,0.7
		v5.4h0l-5.1-6.3c-0.3,0-0.7,0.1-1,0.1s-0.7,0-1-0.1v0.3h0.3c0.2,0,0.3,0.1,0.5,0.3l0.4,0.4V737.4z M503.1,735h-2.8l1.4-3.6
		L503.1,735z M497.9,738.4c0.3,0,0.7-0.1,1-0.1c0.4,0,0.8,0,1.2,0.1v-0.3c-0.3,0-0.7,0-0.7-0.4c0-0.1,0-0.3,0.1-0.5l0.7-1.7h3.2
		l0.6,1.6c0.1,0.2,0.2,0.5,0.2,0.7c0,0.3-0.4,0.3-0.7,0.3v0.3c0.5,0,0.9-0.1,1.4-0.1c0.5,0,1,0,1.5,0.1v-0.3c-0.5,0-0.7-0.2-1-1
		l-3-7.5c0-0.1-0.1-0.1-0.1-0.1c-0.1,0-0.1,0.1-0.1,0.1l-3,7.3c-0.4,0.9-0.5,1.3-1.1,1.3V738.4z M489.3,740c1.6-0.5,1.9-1.5,1.9-2
		c0-0.4-0.2-1-0.8-1c-0.5,0-0.8,0.4-0.8,0.8c0,0.4,0.2,0.6,0.5,0.6c0.2,0,0.3-0.1,0.4-0.2l0,0c0,0.8-0.5,1.4-1.3,1.6V740z
		 M487.3,734.1c-0.5,0-1,0.1-1.5,0.1c-0.6,0-1.2,0-1.9-0.1v0.3c1.2,0,1.3,0,1.3,0.8v1.6c0,0.2,0,0.5-0.1,0.6
		c-0.5,0.3-1.1,0.5-1.9,0.5c-2.1,0-3.3-2.2-3.3-4.2c0-2.3,1.6-3.7,3.1-3.7c1.6,0,2.6,1.1,2.9,2.3h0.3c-0.1-0.7-0.1-1.5-0.2-2.4
		c-0.1,0-0.3,0-0.6,0c-0.5,0-0.9-0.2-1.4-0.3c-0.4-0.1-0.7-0.1-1.1-0.1c-2.5,0-4.3,2-4.3,4.5c0,2.6,1.8,4.5,4.3,4.5
		c1.2,0,2.5-0.5,3.6-1.3v-2.3c0-0.5,0.3-0.5,0.9-0.5V734.1z M469,737.4c0,0.4-0.1,0.7-0.6,0.7H468v0.3c0.4,0,0.8-0.1,1.2-0.1
		s0.8,0,1.2,0.1v-0.3h-0.3c-0.6,0-0.6-0.2-0.6-0.7v-6.1h0l5.4,6.7c0.4,0.5,0.5,0.6,0.5,0.6c0.1,0,0.1-0.1,0.1-0.4v-7.5
		c0-0.4,0.1-0.7,0.6-0.7h0.3v-0.3c-0.4,0-0.8,0.1-1.2,0.1c-0.4,0-0.8,0-1.2-0.1v0.3h0.3c0.6,0,0.6,0.2,0.6,0.7v5.4h0l-5.1-6.3
		c-0.3,0-0.7,0.1-1,0.1c-0.3,0-0.7,0-1-0.1v0.3h0.3c0.2,0,0.3,0.1,0.5,0.3l0.4,0.4V737.4z M463.7,737.3c0,0.6-0.1,0.7-0.7,0.7h-0.3
		v0.3c0.5,0,1.1-0.1,1.6-0.1c0.4,0,1,0,1.5,0.1v-0.3h-0.3c-0.5,0-0.7-0.1-0.7-0.7v-6.6c0-0.6,0.1-0.7,0.7-0.7h0.3v-0.3
		c-0.5,0-1.1,0.1-1.5,0.1c-0.5,0-1.1,0-1.6-0.1v0.3h0.3c0.5,0,0.7,0.1,0.7,0.7V737.3z M454.1,730.5c0-0.2,0.1-0.3,0.7-0.3
		c3.6,0,4.2,2.5,4.2,4.1c0,3.1-2,3.7-3.9,3.7c-0.7,0-1.1-0.1-1.1-0.6V730.5z M451.9,738.4c0.6,0,1.3-0.1,1.9-0.1
		c0.5,0,1,0.1,1.6,0.1c3.3,0,5-1.9,5-4.4c0-2.8-2-4.3-4.7-4.3c-0.6,0-1.3,0.1-2,0.1c-0.7,0-1,0-1.8-0.1v0.3h0.3
		c0.5,0,0.7,0.1,0.7,0.7v6.6c0,0.6-0.1,0.7-0.7,0.7h-0.3V738.4z M447,735h-2.8l1.4-3.6L447,735z M441.7,738.4c0.3,0,0.7-0.1,1-0.1
		c0.4,0,0.8,0,1.2,0.1v-0.3c-0.3,0-0.7,0-0.7-0.4c0-0.1,0-0.3,0.1-0.5l0.7-1.7h3.2l0.6,1.6c0.1,0.2,0.2,0.5,0.2,0.7
		c0,0.3-0.4,0.3-0.7,0.3v0.3c0.5,0,0.9-0.1,1.4-0.1c0.5,0,1,0,1.5,0.1v-0.3c-0.5,0-0.7-0.2-1-1l-3-7.5c0-0.1-0.1-0.1-0.1-0.1
		c-0.1,0-0.1,0.1-0.1,0.1l-3,7.3c-0.4,0.9-0.5,1.3-1.1,1.3V738.4z M435.4,730.3c0.3,0,0.7,0,1.1,0c1.5,0,2.3,0,2.6,1.5h0.3
		c-0.1-0.6-0.1-1.3-0.1-2c-0.3,0-1.8,0.1-2.9,0.1c-1,0-2.1,0-3.1-0.1v0.3h0.3c0.5,0,0.7,0.1,0.7,0.7v6.6c0,0.6-0.1,0.7-0.7,0.7h-0.3
		v0.3c1.1,0,2.5-0.1,3.6-0.1c0.9,0,1.8,0,2.7,0.1c0-0.2,0.4-1.8,0.5-2.1h-0.3c-0.5,1.5-1.2,1.6-2.4,1.6h-1.5c-0.5,0-0.5-0.2-0.5-0.6
		v-3.1h1.1c1,0,1.5,0,1.6,1.1h0.3c0-0.4,0-0.9,0-1.4c0-0.5,0-0.9,0-1.3h-0.3L438,733c-0.1,0.6-0.3,0.8-1.2,0.8h-1.4V730.3z
		 M425.8,730.4c0-0.3,0.1-0.3,0.4-0.3c2.2,0,2.5,1.1,2.5,2.1c0,0.8-0.3,2-2.4,2c-0.2,0-0.4,0-0.6,0V730.4z M423.6,738.4
		c0.5,0,1.1-0.1,1.6-0.1c0.4,0,1,0,1.5,0.1v-0.3h-0.3c-0.5,0-0.7-0.1-0.7-0.7v-2.7c1,0,1,0.1,1.5,0.6l2.3,3c0.3,0,0.6-0.1,1-0.1
		c0.3,0,0.7,0,1,0.1v-0.3c-0.5,0-0.7-0.1-1.2-0.7l-1.7-2.2c-0.3-0.3-0.5-0.6-0.7-0.7c1.4-0.3,2.1-1.2,2.1-2.4c0-1.9-1.4-2.4-3-2.4
		c-0.6,0-1.1,0.1-1.8,0.1c-0.5,0-1.1,0-1.6-0.1v0.3h0.3c0.5,0,0.7,0.1,0.7,0.7v6.6c0,0.6-0.1,0.7-0.7,0.7h-0.3V738.4z M411.6,730.4
		c0-0.3,0.1-0.3,0.4-0.3c2.2,0,2.5,1.1,2.5,2.1c0,0.8-0.3,2-2.4,2c-0.2,0-0.4,0-0.6,0V730.4z M409.5,738.4c0.5,0,1.1-0.1,1.6-0.1
		c0.4,0,1,0,1.5,0.1v-0.3h-0.3c-0.5,0-0.7-0.1-0.7-0.7v-2.7c1,0,1,0.1,1.5,0.6l2.3,3c0.3,0,0.6-0.1,1-0.1c0.3,0,0.7,0,1,0.1v-0.3
		c-0.5,0-0.7-0.1-1.2-0.7l-1.7-2.2c-0.3-0.3-0.5-0.6-0.7-0.7c1.4-0.3,2.1-1.2,2.1-2.4c0-1.9-1.4-2.4-3-2.4c-0.6,0-1.1,0.1-1.8,0.1
		c-0.5,0-1.1,0-1.6-0.1v0.3h0.3c0.5,0,0.7,0.1,0.7,0.7v6.6c0,0.6-0.1,0.7-0.7,0.7h-0.3V738.4z M403.2,737.9c-2.1,0-3.3-2.2-3.3-4.2
		c0-2.6,1.7-3.7,2.8-3.7c2.3,0,3.2,2.2,3.2,3.9C405.9,736.9,404.6,737.9,403.2,737.9 M402.9,738.5c2.5,0,4.3-1.8,4.3-4.5
		c0-2.5-1.8-4.5-4.3-4.5c-2.5,0-4.3,2-4.3,4.5C398.6,736.7,400.4,738.5,402.9,738.5 M390.5,738.4c0.5,0,1.1-0.1,1.6-0.1
		c0.4,0,1,0,1.5,0.1v-0.3h-0.3c-0.5,0-0.7-0.1-0.7-0.7v-3.2h1.1c1,0,1.5,0,1.6,1.1h0.3c0-0.4,0-0.9,0-1.4c0-0.5,0-0.9,0-1.3h-0.3
		l-0.1,0.4c-0.1,0.6-0.3,0.8-1.2,0.8h-1.4v-3.5c0.3,0,0.7,0,1.1,0c1.5,0,2.3,0,2.6,1.5h0.3c-0.1-0.6-0.1-1.3-0.1-2
		c-0.3,0-1.8,0.1-2.9,0.1c-1,0-2.1,0-3.2-0.1v0.3h0.3c0.5,0,0.7,0.1,0.7,0.7v6.6c0,0.6-0.1,0.7-0.7,0.7h-0.3V738.4z M376.8,735.6
		c0,2,0.9,2.9,2.9,2.9c2.7,0,3.5-1.1,3.5-3.2v-4.6c0-0.4,0.1-0.7,0.6-0.7h0.3v-0.3c-0.3,0-0.7,0.1-1.2,0.1c-0.4,0-0.9,0-1.3-0.1v0.3
		h0.3c0.6,0,0.6,0.2,0.6,0.7v4.9c0,1.6-1,2.2-2.3,2.2c-1.6,0-2.3-1-2.3-2.5v-4.5c0-0.6,0.1-0.7,0.7-0.7h0.3v-0.3
		c-0.5,0-1,0.1-1.5,0.1c-0.5,0-1.1,0-1.6-0.1v0.3h0.3c0.5,0,0.7,0.1,0.7,0.7V735.6z M369.7,737.9c-2.1,0-3.3-2.2-3.3-4.2
		c0-2.6,1.7-3.7,2.8-3.7c2.3,0,3.2,2.2,3.2,3.9C372.4,736.9,371.1,737.9,369.7,737.9 M369.4,738.5c2.5,0,4.3-1.8,4.3-4.5
		c0-2.5-1.8-4.5-4.3-4.5s-4.3,2-4.3,4.5C365.1,736.7,366.9,738.5,369.4,738.5 M357.4,738.4c0.6,0,1.1-0.1,1.7-0.1
		c0.8,0,1.3,0,1.8,0.1v-0.3h-0.5c-0.5,0-0.7-0.1-0.7-0.7v-3l2.2-3.3c0.4-0.6,0.7-1,1.3-1v-0.3c-0.4,0-0.7,0.1-1.1,0.1
		c-0.5,0-0.9,0-1.4-0.1v0.3c0.3,0,0.9,0,0.9,0.4c0,0.2-0.2,0.5-0.4,0.9l-1.8,2.7l-1.4-2.2c-0.6-0.9-0.7-1.2-0.7-1.3
		c0-0.4,0.5-0.4,0.8-0.4v-0.3c-0.6,0-1.2,0.1-1.7,0.1c-0.5,0-1.1,0-1.6-0.1v0.3c0.6,0,0.9,0.4,1.3,0.9l2.4,3.6v2.8
		c0,0.6-0.1,0.7-0.7,0.7h-0.5V738.4z M340.4,738.4c0.5,0,1.1-0.1,1.6-0.1c0.4,0,1,0,1.5,0.1v-0.3h-0.3c-0.5,0-0.7-0.1-0.7-0.7v-6.6
		c0-0.6,0.1-0.7,0.7-0.7h0.3v-0.3c-0.5,0-1.1,0.1-1.6,0.1c-0.5,0-1,0-1.6-0.1v0.3h0.3c0.5,0,0.7,0.1,0.7,0.7v6.6
		c0,0.6-0.1,0.7-0.7,0.7h-0.3V738.4z M345.3,738.4c0.8,0,1.3-0.1,1.8-0.1c0.6,0,1.2,0,1.7,0.1v-0.3c-0.5,0-1-0.3-1.2-0.6l-3.4-3.7
		c-0.2-0.2-0.4-0.4-0.5-0.5l2.2-2c1-0.9,1.5-1.4,2.3-1.4v-0.3c-0.4,0-0.9,0.1-1.3,0.1c-0.5,0-1,0-1.6-0.1v0.3c0.3,0,0.8,0,0.8,0.3
		c0,0.2-0.3,0.4-0.6,0.8l-2.8,2.7l2.8,3c0.4,0.5,0.8,0.8,0.8,1c0,0.3-0.6,0.3-0.9,0.3V738.4z M331.1,737.4c0,0.4-0.1,0.7-0.6,0.7
		h-0.3v0.3c0.4,0,0.8-0.1,1.2-0.1c0.4,0,0.8,0,1.2,0.1v-0.3h-0.3c-0.6,0-0.6-0.2-0.6-0.7v-6.1h0l5.4,6.7c0.4,0.5,0.5,0.6,0.5,0.6
		s0.1-0.1,0.1-0.4v-7.5c0-0.4,0.1-0.7,0.6-0.7h0.3v-0.3c-0.4,0-0.8,0.1-1.2,0.1c-0.4,0-0.8,0-1.2-0.1v0.3h0.3c0.6,0,0.6,0.2,0.6,0.7
		v5.4h0l-5.1-6.3c-0.3,0-0.7,0.1-1,0.1c-0.3,0-0.7,0-1-0.1v0.3h0.3c0.2,0,0.3,0.1,0.5,0.3l0.4,0.4V737.4z M325.2,735h-2.8l1.4-3.6
		L325.2,735z M320,738.4c0.3,0,0.7-0.1,1-0.1c0.4,0,0.8,0,1.2,0.1v-0.3c-0.3,0-0.7,0-0.7-0.4c0-0.1,0-0.3,0.1-0.5l0.7-1.7h3.2
		l0.6,1.6c0.1,0.2,0.2,0.5,0.2,0.7c0,0.3-0.4,0.3-0.7,0.3v0.3c0.5,0,0.9-0.1,1.4-0.1c0.5,0,1,0,1.5,0.1v-0.3c-0.5,0-0.7-0.2-1-1
		l-3-7.5c0-0.1-0.1-0.1-0.1-0.1c-0.1,0-0.1,0.1-0.1,0.1l-3,7.3c-0.4,0.9-0.5,1.3-1.1,1.3V738.4z M316.1,734.2v3.2
		c0,0.6-0.1,0.7-0.7,0.7h-0.3v0.3c0.5,0,1.1-0.1,1.6-0.1c0.5,0,1,0,1.6,0.1v-0.3H318c-0.5,0-0.7-0.1-0.7-0.7v-6.6
		c0-0.6,0.1-0.7,0.7-0.7h0.3v-0.3c-0.5,0-1.1,0.1-1.6,0.1c-0.5,0-1,0-1.6-0.1v0.3h0.3c0.5,0,0.7,0.1,0.7,0.7v3h-4.4v-3
		c0-0.6,0.1-0.7,0.7-0.7h0.3v-0.3c-0.5,0-1.1,0.1-1.6,0.1c-0.5,0-1,0-1.6-0.1v0.3h0.3c0.5,0,0.7,0.1,0.7,0.7v6.6
		c0,0.6-0.1,0.7-0.7,0.7h-0.3v0.3c0.5,0,1.1-0.1,1.6-0.1c0.5,0,1,0,1.6,0.1v-0.3h-0.3c-0.5,0-0.7-0.1-0.7-0.7v-3.2H316.1z
		 M302.6,738.4c0.5,0,1.1-0.1,1.6-0.1c0.4,0,1,0,1.5,0.1v-0.3h-0.3c-0.5,0-0.7-0.1-0.7-0.7v-7h1c1.1,0,1.6,0.3,1.6,1.4v0.3h0.3
		c0-0.2,0-0.3,0-0.5c0-0.4,0-1,0.1-1.8c-1.2,0.1-2.4,0.1-3.6,0.1c-1.2,0-2.5,0-3.6-0.1c0,0.5-0.1,1.6-0.2,2.3h0.3
		c0-0.8,0.4-1.7,1.9-1.7h1v7c0,0.6-0.1,0.8-0.7,0.7h-0.3V738.4z"/>
</g>
<line class="st0" x1="302" y1="720" x2="1055" y2="720"/>
<g>
	<defs>
		<rect id="SVGID_3_" x="-1" width="1366" height="768"/>
	</defs>
	<clipPath id="SVGID_4_">
		<use xlink:href="#SVGID_3_"  style="overflow:visible;"/>
	</clipPath>
	<path class="st2" d="M1216.5,298.2c5.7,0,10-0.9,12.8-2.7c2.8-1.9,4.8-4,6.1-6.3c1-1.8,1.5-3.9,1.5-6.2c0-0.6,0-1.2-0.1-2
		c-0.3-3.1-1.2-5.6-2.7-7.3c-1.5-1.8-3.3-2.7-5.6-2.8h-1c-1.8,0-3.4,0.3-4.7,0.8c-1.6,0.6-3,1.7-4.2,3.3c-1,1.3-1.5,2.9-1.5,4.9
		c0,0.7,0,1.3,0.1,2c0.4,2.9,2.1,5,5.2,6.5c-1,2.2-3.3,3.9-7,5.1l0.6,4.9H1216.5z"/>
	<path class="st3" d="M1151.9,388.9c0,0.5,0.1,1,0.2,1.4c0.4,1.5,1.3,2.5,2.8,3c0.6,0.3,1.2,0.4,1.9,0.4c0.8,0,1.7-0.3,2.6-0.8
		c1.4-0.8,6.4-18.8,15-54.2c8.6-35.4,12.8-54.5,12.8-57.3c0-2.8-0.9-5-2.6-6.6c-1.2-1.1-2.6-1.7-4.2-1.7c-0.8,0-1.7,0.1-2.5,0.4
		c-2.7,0.8-4.8,2.9-6.2,6.1c-1.4,3.2-7.6,37.9-18.7,104.1C1152.3,385.7,1151.9,387.5,1151.9,388.9 M1152.1,407.5c-2.7,0-5.1,1-7,2.9
		s-2.9,4.3-2.9,7c0,2.8,1,5.2,2.9,7.1s4.3,2.9,7,2.9c2.7,0,5.1-1,7-2.9s2.9-4.3,2.9-7.1c0-2.7-1-5.1-2.9-7
		S1154.9,407.5,1152.1,407.5"/>
	<path class="st4" d="M1088.5,359.9c-5.6,9.2-10.4,16.2-14.3,21.2c-3.7,4.6-5.6,8.2-5.6,10.6c0,0.1,0,0.3,0.1,0.5
		c0.3,2.5,1.4,4,3.4,4.6c0.4,0.2,0.8,0.3,1.3,0.3c1.5,0,3-0.8,4.4-2.4c1.8-2.1,8.1-10.7,18.8-26c8.5,15.4,13,26.5,13.3,33.3v1.8
		c0,5.7-1.5,9.3-4.4,10.7c-2.8,1.4-5.1,2.1-6.8,2.1c-0.3,0-0.5,0-0.8-0.1c-1.9-0.3-3.4-0.7-4.5-1.3c-1.1-0.6-2.1-2-2.9-4.2
		c-0.8-2.2-2.2-3.5-4.2-4c-0.5-0.1-1-0.1-1.4-0.1c-1.4,0-2.5,0.5-3.3,1.5c-0.8,0.9-1.3,2.2-1.3,3.9c0,0.8,0.1,1.6,0.3,2.5
		c0.5,3,2.8,6,6.8,8.9c3.2,2.4,7.5,3.6,12.9,3.6c1.4,0,2.9-0.1,4.5-0.3c7.6-0.8,14.2-3.9,19.8-9.2c5.7-5.4,9.6-9.9,11.7-13.6
		c2.1-3.7,3.6-6.6,4.4-8.6c0.4-1,0.6-2,0.6-2.9c0-0.9-0.2-1.8-0.5-2.6c-0.8-1.8-2.1-2.7-4.1-2.8h-0.2c-1.9,0-3.6,1.7-5.3,5
		c-1.7,3.5-5.5,8.5-11.4,15.2c0.3-1.3,0.5-2.8,0.5-4.4c0-7.5-3.4-18.3-10.3-32.3l-7.3-13.1c2.9-4.6,4.4-7.9,4.4-9.8v-0.7
		c-0.5-1.8-1.5-2.9-3.1-3.3c-0.5-0.1-1-0.1-1.6-0.1c-1.1,0-2.2,0.3-3.2,1C1097.7,345.6,1094.1,350.7,1088.5,359.9"/>
	<path class="st5" d="M1014.4,391.4c-0.7,4.1-0.3,9.2,0.9,15.4c1.3,6.2,3.6,10.8,6.9,13.9c3.3,3.1,6.5,4.9,9.6,5.6
		c1.8,0.5,3.7,0.7,5.9,0.7c1.4,0,2.8-0.1,4.4-0.3c3.8-0.5,8.2-2.6,13.2-6.3c5-3.8,10-8.8,14.9-15c4.9-6.2,7.5-10.2,7.7-12.1
		c0.1-0.7,0.1-1.3,0.1-2c0-1-0.1-1.9-0.3-2.7c-0.4-1.4-1.4-2.2-3-2.4c-0.6-0.1-1.1-0.1-1.7-0.1c-1,0-1.9,0.1-2.6,0.4
		c-1.2,0.5-2.2,1.4-2.8,2.7c-0.7,1.4-2.7,4.2-6.1,8.6c-3.4,4.4-7.3,8.3-11.8,11.6c-4.4,3.4-8.2,5.1-11.4,5.2
		c-3.2,0.1-6.1-1.3-8.9-4.1c-2.8-2.8-4-9.4-3.6-19.7c6.2-1.2,11.1-2.3,14.7-3.3c3.5-1,6.7-3.2,9.4-6.5c2.7-3.4,4.4-6.9,5.1-10.5
		c0.3-1.8,0.4-3.5,0.4-5.4c0-1.8-0.1-3.5-0.4-5.4c-0.7-3.5-1.6-6.6-2.8-9.4c-1.2-2.7-3.3-4.7-6.1-5.9c-2.5-1-5.2-1.6-8.1-1.6h-1
		c-3.3,0.1-6.7,0.8-10.3,2.1c-3.6,1.2-9.3,3.8-17,7.6c10.2-10.8,17.9-18.2,23-22.3c5.1-4.1,10-10.4,14.7-19.1
		c4.7-8.7,7.4-15.5,8.1-20.6c0.3-2.1,0.4-4.1,0.4-6c0-2.5-0.3-4.7-0.8-6.5c-1-3.3-3-5.5-6.1-6.8c-2.3-1-4.7-1.5-7.2-1.5
		c-0.8,0-1.7,0-2.4,0.1c-3.5,0.5-6.6,1.8-9.6,4.1c-2.9,2.2-6.2,6.5-9.7,12.8c-3.5,6.3-7.5,16.6-11.9,31.1
		c-4.4,14.5-9.3,35.4-14.7,62.8c-5.3,26.4-7.9,40.7-7.9,42.8v0.1c0.2,1.2,0.7,2,1.6,2.3c0.4,0.2,0.9,0.3,1.5,0.3
		c0.7,0,1.6-0.1,2.6-0.4c1.9-0.4,3.5-1.6,4.9-3.8c1.4-2.1,4-12.7,8-31.8L1014.4,391.4z M1032.7,354.5h1.5c6.2,1.6,9.4,4.9,9.6,9.9
		v1.6c-0.6,8.9-9.7,13.3-27.2,13.3c-2.7,0-5.5-0.1-8.4-0.3h-1.5C1007.9,367.2,1016.6,359.1,1032.7,354.5 M1041.1,281h0.2
		c2,0.1,3,2.3,3,6.6c-3.2,16.3-14.1,33-32.6,50C1023.5,299.8,1033.3,281,1041.1,281"/>
	<path class="st6" d="M939.5,404.3L939.5,404.3c0.1,4.3,0.6,7.9,1.5,10.9c0.9,3,2.4,5.5,4.4,7.5c2.1,2,5.1,3.2,9,3.7
		c0.5,0.1,1.1,0.1,1.8,0.1c3.8,0,8.8-1.2,15-3.7c7.2-2.9,13.5-7.2,18.7-13.1c5.2-5.9,8.5-9.9,9.8-12.1c1-1.7,1.5-3.3,1.5-4.7
		c0-0.5,0-0.9-0.1-1.3c-0.4-1.8-1.2-2.9-2.4-3.4c-0.7-0.3-1.3-0.4-2.1-0.4c-0.7,0-1.3,0.1-2.1,0.4c-1.5,0.5-2.8,1.5-4,3.1
		c-1.1,1.5-3.6,4.5-7.3,8.8c-3.7,4.3-8.2,7.8-13.4,10.3c-5.1,2.5-8.9,3.8-11.4,3.8h-0.1c-2.5-0.1-4.4-0.9-5.5-2.6
		c-1.1-1.7-1.9-4.2-2.2-7.8V403c0-4.4,2.4-17,7.1-38c10.4-6.4,18.7-13.5,24.8-21.5c6.1-7.9,10.8-15.5,14-22.7
		c3.2-7.2,5.4-14.1,6.5-20.7c1-6.2,1.6-11,1.6-14.5v-0.6c-0.1-3.5-0.7-6.1-2-7.8c-1.3-1.8-3.1-3-5.5-3.8c-1.3-0.4-2.8-0.6-4.5-0.6
		c-1.3,0-2.7,0.1-4.2,0.4c-3.5,0.6-6.4,1.7-8.6,3.4c-2.2,1.7-5.1,5.4-8.6,11.1c-3.5,5.7-11.1,28-22.8,66.8
		C942.5,383.3,939.5,399.9,939.5,404.3 M989.8,285.8h0.7h1.1c1.4,0,2.1,1.4,2.1,4.2c0,3.1-0.9,8-2.6,14.6
		c-3.6,14.1-13.1,28.5-28.2,43.2C974,306.6,983,286,989.8,285.8"/>
	<path class="st7" d="M904,364.7v0.4c0.1,2,0.5,4.1,1.3,6.1c0.8,2.1,2.6,3.5,5.2,4.3c2.2,0.8,5.8,1.2,10.8,1.2c1.2,0,2.4,0,3.6-0.1
		c0.1,0.7,0.1,1.5,0.1,2.3c0,3.5-0.5,7.8-1.6,13.2c-1.4,6.6-4.1,11.9-8.1,15.9c-4,3.9-8.3,6.3-12.8,7.2c-1.2,0.2-2.3,0.3-3.3,0.3
		c-3.3,0-6.2-1-8.7-2.9c-3.5-2.5-5.6-5.6-6.3-9.3c-0.5-2-0.7-4.3-0.7-7c0-2.1,0.2-4.5,0.5-7.1c0.6-5.9,2.6-12,5.9-18.5
		c3.4-6.5,8.5-10.8,15.5-12.9C904.5,360.4,904,362.7,904,364.7 M917.2,421.4c4.6-3.4,8.2-7.1,10.7-11.1c2.5-4,4.4-8.5,5.6-13.6
		c1.2-5.1,2.3-12.4,3.3-22.1c8.2-5,13.8-9.2,16.7-12.5c2.9-3.3,4.3-5.5,4.3-6.8c0-1.2-0.2-2.3-0.6-3.3c-0.4-1-1.1-1.6-2.1-2
		c-0.5-0.1-1-0.2-1.5-0.2c-0.6,0-1.2,0.1-1.8,0.3c-1.1,0.4-3,2.1-5.7,5c-2.7,3-6.2,5.6-10.6,8.1c-2-6.1-4-10.3-5.9-12.5
		c-1.9-2.2-3.8-3.4-5.5-3.8c-0.9-0.1-1.9-0.2-2.9-0.2c-0.8,0-1.7,0.1-2.6,0.2c-2,0.3-5.2,1.5-9.6,3.8c-0.1-2.3-0.9-3.7-2.4-4.1
		c-0.3-0.1-0.7-0.1-1.1-0.1c-1.6,0-3.6,0.6-6.1,1.8c-3.1,1.6-7.3,4.8-12.5,9.8c-5.2,4.9-8.7,9.8-10.4,14.5c-1.8,4.7-3,9.2-3.6,13.3
		c-0.5,2.7-0.7,5.8-0.7,9.2c0,1.8,0.1,3.6,0.2,5.6c0.3,5.7,1.5,10.5,3.6,14.3c2.1,3.8,4.9,6.7,8.6,8.5c3.7,1.9,8.9,2.8,15.6,2.8
		C906.9,426.6,912.5,424.9,917.2,421.4 M923.4,363.5c-0.1,1.6-1.5,2.4-4.1,2.4c-0.1,0-0.1,0-0.1-0.1c-2.5,0-3.8-0.8-3.8-2.3v-0.3
		c0.2-1.8,0.7-3.1,1.6-4.1C920.5,359.2,922.6,360.6,923.4,363.5"/>
	<path class="st8" d="M849.2,360.8c8.5-30.5,14.9-50.3,19.4-59.2c4.5-8.9,7.7-13.7,9.7-14.4c0.6-0.2,1.2-0.3,1.8-0.3
		c1.1,0,2.1,0.5,2.8,1.4c0.2,0.3,0.3,0.9,0.3,1.7c0,2.4-1.3,7.1-3.9,14C875.8,313.1,865.8,332.1,849.2,360.8 M838.1,450.7
		c0,4.8-0.1,8.2-0.2,10.5c-0.5,5.6-1.1,9.8-1.9,12.5c-0.8,2.8-1.8,4.9-2.9,6.5c-0.8,1.3-1.7,2-2.6,2c-0.3,0-0.5-0.1-0.7-0.2
		c-1.2-0.4-2.1-1.7-2.6-3.8c-0.1-0.1-0.1-0.4-0.1-0.8c0-4.4,3.5-23.6,10.4-57.5C837.9,433.1,838.1,443.4,838.1,450.7 M816.5,473.2
		c-0.1,1.2-0.1,2.3-0.1,3.4c0,6.9,1,11.7,3,14.4c2.3,3.1,5.1,4.9,8.4,5.4c0.5,0.1,0.9,0.2,1.5,0.2c2.8,0,5.8-1.3,8.9-3.9
		c3.7-3,6.4-8.1,8.1-15.4c1.6-6.9,2.3-14.2,2.3-21.9V454c-0.1-8.2-0.5-15.7-1.1-22.5c-0.6-6.8-1.6-16-3.1-27.6
		c5.2,1.2,9.5,1.8,12.9,1.8c2.1,0,3.9-0.3,5.3-0.8c3.6-1.2,7.2-3.4,10.7-6.7c3.6-3.3,5.7-5.6,6.4-6.9c0.7-1.3,1.4-3,2.1-5.2
		c0.4-1.3,0.6-2.4,0.6-3.3c0-0.7-0.1-1.2-0.3-1.7c-0.5-0.9-1.3-1.4-2.5-1.4h-0.6c-1.6,0.2-3.1,0.8-4.4,1.9c-1.3,1.1-3.4,3.2-6.2,6.3
		c-2.8,3.2-5.9,5-9.3,5.4c-0.5,0.1-0.9,0.1-1.5,0.1c-3.2,0-7.5-1.3-12.8-3.9c13.7-23,23.9-40.6,30.5-52.5
		c6.6-12,11.2-21.5,13.9-28.7c2.7-7.1,4.3-13.3,4.9-18.6c0.1-1.6,0.2-3,0.2-4.3c0-3.1-0.5-5.6-1.4-7.4c-1.3-2.5-2.6-4.1-4-4.6
		c-1.3-0.6-2.9-0.9-4.8-1.1h-0.6c-1.8,0-4.2,0.7-7,2.1c-3.3,1.6-6.9,4.7-11,9.5c-4.1,4.8-8.2,11.9-12.3,21.3
		c-4.1,9.5-10.9,38.3-20.2,86.4C822.3,437.3,816.8,464.5,816.5,473.2"/>
	<path class="st9" d="M740.5,404.3L740.5,404.3c0.1,4.3,0.6,7.9,1.5,10.9c0.9,3,2.4,5.5,4.4,7.5c2.1,2,5.1,3.2,9,3.7
		c0.5,0.1,1.1,0.1,1.8,0.1c3.8,0,8.8-1.2,15-3.7c7.2-2.9,13.5-7.2,18.7-13.1c5.2-5.9,8.5-9.9,9.8-12.1c1-1.7,1.5-3.3,1.5-4.7
		c0-0.5,0-0.9-0.1-1.3c-0.4-1.8-1.2-2.9-2.4-3.4c-0.7-0.3-1.3-0.4-2.1-0.4c-0.7,0-1.3,0.1-2.1,0.4c-1.5,0.5-2.8,1.5-4,3.1
		c-1.1,1.5-3.6,4.5-7.3,8.8c-3.7,4.3-8.2,7.8-13.4,10.3c-5.1,2.5-8.9,3.8-11.4,3.8h-0.1c-2.5-0.1-4.4-0.9-5.5-2.6
		c-1.1-1.7-1.9-4.2-2.2-7.8V403c0-4.4,2.4-17,7.1-38c10.4-6.4,18.7-13.5,24.8-21.5c6.1-7.9,10.8-15.5,14-22.7
		c3.2-7.2,5.4-14.1,6.5-20.7c1-6.2,1.6-11,1.6-14.5v-0.6c-0.1-3.5-0.7-6.1-2-7.8c-1.3-1.8-3.1-3-5.5-3.8c-1.3-0.4-2.8-0.6-4.5-0.6
		c-1.3,0-2.7,0.1-4.2,0.4c-3.5,0.6-6.4,1.7-8.6,3.4c-2.2,1.7-5.1,5.4-8.6,11.1c-3.5,5.7-11.1,28-22.8,66.8
		C743.5,383.3,740.5,399.9,740.5,404.3 M790.8,285.8h0.7h1.1c1.4,0,2.1,1.4,2.1,4.2c0,3.1-0.9,8-2.6,14.6
		c-3.6,14.1-13.1,28.5-28.2,43.2C775,306.6,784,286,790.8,285.8"/>
	<path class="st10" d="M686.8,404.3L686.8,404.3c0.1,4.3,0.6,7.9,1.5,10.9c0.9,3,2.4,5.5,4.4,7.5c2.1,2,5.1,3.2,9,3.7
		c0.5,0.1,1.1,0.1,1.8,0.1c3.8,0,8.8-1.2,15-3.7c7.2-2.9,13.5-7.2,18.7-13.1c5.2-5.9,8.5-9.9,9.8-12.1c1-1.7,1.5-3.3,1.5-4.7
		c0-0.5,0-0.9-0.1-1.3c-0.4-1.8-1.2-2.9-2.4-3.4c-0.7-0.3-1.3-0.4-2.1-0.4c-0.7,0-1.3,0.1-2.1,0.4c-1.5,0.5-2.8,1.5-4,3.1
		c-1.1,1.5-3.6,4.5-7.3,8.8c-3.7,4.3-8.2,7.8-13.4,10.3c-5.1,2.5-8.9,3.8-11.4,3.8h-0.1c-2.5-0.1-4.4-0.9-5.5-2.6
		c-1.1-1.7-1.9-4.2-2.2-7.8V403c0-4.4,2.4-17,7.1-38c10.4-6.4,18.7-13.5,24.8-21.5c6.1-7.9,10.8-15.5,14-22.7
		c3.2-7.2,5.4-14.1,6.5-20.7c1-6.2,1.6-11,1.6-14.5v-0.6c-0.1-3.5-0.7-6.1-2-7.8c-1.3-1.8-3.1-3-5.5-3.8c-1.3-0.4-2.8-0.6-4.5-0.6
		c-1.3,0-2.7,0.1-4.2,0.4c-3.5,0.6-6.4,1.7-8.6,3.4c-2.2,1.7-5.1,5.4-8.6,11.1c-3.5,5.7-11.1,28-22.8,66.8
		C689.8,383.3,686.8,399.9,686.8,404.3 M737.1,285.8h0.7h1.1c1.4,0,2.1,1.4,2.1,4.2c0,3.1-0.9,8-2.6,14.6
		c-3.6,14.1-13.1,28.5-28.2,43.2C721.3,306.6,730.3,286,737.1,285.8"/>
	<path class="st11" d="M661.3,356.8c-3.6-7.2-7.8-11-12.6-11.4c-1.2-0.1-2.3-0.1-3.4-0.1c-3.5,0-6.5,0.5-9.3,1.4
		c-3.6,1.2-7,3.4-10.2,6.5c-3.1,3.1-6.3,7.1-9.5,12.1c-3.2,4.9-5.3,10.9-6.4,17.8c-0.8,5-1.3,9.7-1.3,14c0,1.7,0.1,3.3,0.2,4.9
		c0.5,5.6,1.5,10.1,3.1,13.6c1.6,3.5,3.8,6.1,6.7,7.8c2.2,1.4,5,2.1,8.3,2.1c0.9,0,1.9-0.1,2.8-0.2c4.6-0.5,8.2-1.9,10.9-4.2
		c2.7-2.3,5.7-5.7,8.9-10.1c3.1,7,6.1,11.4,9,13.2c2.4,1.5,4.8,2.2,7.2,2.2c0.5,0,0.9,0,1.5-0.1c2.9-0.3,6.2-1.4,10-3.2
		c3.8-1.8,7.8-6.3,12.1-13.6c4.3-7.3,6.6-11.5,7-12.8c0.3-0.8,0.4-1.5,0.4-2.2c0-0.5-0.1-0.9-0.2-1.3c-0.3-1-0.8-2.1-1.5-3.1
		c-0.7-1-1.4-1.7-2.1-2c-0.1-0.1-0.3-0.1-0.4-0.1c-0.7,0-1.5,0.4-2.4,1.2c-1.2,1-3.6,4.6-7,10.5c-3.5,6-6.5,9.9-9.3,11.6
		c-2.7,1.8-4.9,2.6-6.3,2.6c-1.6,0-3-0.6-4.2-1.7c-1.2-1.1-2.1-2.4-2.4-4c-0.1-0.5-0.2-1.1-0.2-2c0-1.8,0.3-4.5,1-8.1
		c1-5.1,3.1-13.7,6.2-25.7c3.2-11.8,4.8-19.1,4.8-21.7v-0.1c-0.1-2.5-0.8-3.9-2.1-4.4c-0.7-0.1-1.3-0.2-1.9-0.2
		c-0.8,0-1.7,0.1-2.5,0.4C664.6,347.2,663,350.6,661.3,356.8 M652.2,387c-1.2,4.3-3.9,9-8,14.1c-4.1,5.1-7.9,8.4-11.4,10
		c-2.3,1-4.2,1.6-5.8,1.6c-0.8,0-1.6-0.2-2.1-0.5c-1.8-0.9-3.2-2.5-4.4-4.8c-1.1-2-1.7-4.9-1.7-8.8v-1.3c0.1-4.5,0.7-9,1.6-13.5
		c0.9-4.5,3-9.1,6.2-13.9c3.2-4.8,6.7-8.1,10.6-9.9c3.1-1.4,5.8-2.1,7.9-2.1c0.6,0,1.1,0,1.7,0.1c2.4,0.5,4.6,1.6,6.5,3.5
		c2,1.9,3.2,5,3.6,9.3C655.1,377.3,653.5,382.7,652.2,387"/>
	<path class="st12" d="M528.5,359.9c-5.6,9.2-10.4,16.2-14.3,21.2c-3.7,4.6-5.6,8.2-5.6,10.6c0,0.1,0,0.3,0.1,0.5
		c0.3,2.5,1.4,4,3.4,4.6c0.4,0.2,0.8,0.3,1.3,0.3c1.5,0,3-0.8,4.4-2.4c1.8-2.1,8.1-10.7,18.8-26c8.5,15.4,13,26.5,13.3,33.3v1.8
		c0,5.7-1.5,9.3-4.4,10.7c-2.8,1.4-5.1,2.1-6.8,2.1c-0.3,0-0.5,0-0.8-0.1c-1.9-0.3-3.4-0.7-4.5-1.3c-1.1-0.6-2.1-2-2.9-4.2
		c-0.8-2.2-2.2-3.5-4.2-4c-0.5-0.1-1-0.1-1.4-0.1c-1.4,0-2.5,0.5-3.3,1.5c-0.8,0.9-1.3,2.2-1.3,3.9c0,0.8,0.1,1.6,0.3,2.5
		c0.5,3,2.8,6,6.8,8.9c3.2,2.4,7.5,3.6,12.9,3.6c1.4,0,2.9-0.1,4.5-0.3c7.6-0.8,14.2-3.9,19.8-9.2s9.6-9.9,11.7-13.6
		c2.1-3.7,3.6-6.6,4.4-8.6c0.4-1,0.6-2,0.6-2.9c0-0.9-0.2-1.8-0.5-2.6c-0.8-1.8-2.1-2.7-4.1-2.8h-0.2c-1.9,0-3.6,1.7-5.3,5
		c-1.7,3.5-5.5,8.5-11.4,15.2c0.3-1.3,0.5-2.8,0.5-4.4c0-7.5-3.4-18.3-10.3-32.3l-7.3-13.1c2.9-4.6,4.4-7.9,4.4-9.8v-0.7
		c-0.5-1.8-1.5-2.9-3.1-3.3c-0.5-0.1-1-0.1-1.6-0.1c-1.1,0-2.2,0.3-3.2,1C537.8,345.6,534.2,350.7,528.5,359.9"/>
	<path class="st13" d="M500.9,298.2c5.7,0,10-0.9,12.8-2.7c2.8-1.9,4.8-4,6.1-6.3c1-1.8,1.5-3.9,1.5-6.2c0-0.6,0-1.2-0.1-2
		c-0.3-3.1-1.2-5.6-2.7-7.3c-1.5-1.8-3.3-2.7-5.6-2.8h-1c-1.8,0-3.4,0.3-4.7,0.8c-1.6,0.6-3,1.7-4.2,3.3c-1,1.3-1.5,2.9-1.5,4.9
		c0,0.7,0,1.3,0.1,2c0.4,2.9,2.1,5,5.2,6.5c-1,2.2-3.3,3.9-7,5.1l0.6,4.9H500.9z"/>
	<path class="st3" d="M470.3,329.8c4.2,0,7-0.5,8.3-1.4c1.5-1,2.2-2.5,2.2-4.4v-0.2c-0.1-2-0.8-3.3-2.3-4.1
		c-1.5-0.7-4.7-1.1-9.5-1.1h-20.4c8.8-27.1,13.2-41.9,13.2-44.3v-0.4c-0.7-1-2.2-1.6-4.5-1.6c-2.2,0-4,0.6-5.3,1.9
		c-1.3,1.2-6.2,16.2-14.7,44.8c-1.7-0.1-3.3-0.1-4.8-0.1c-32.6,0-49.5,0.5-50.7,1.5c-1.2,1-1.9,2.3-1.9,3.9c0,0.3,0,0.6,0.1,0.9
		c0.2,2,0.8,3.2,2,3.9c1.1,0.6,18.3,0.9,51.6,0.9c-5.3,16.3-9.6,31.7-12.9,46.2c-3.1,13.7-4.6,22.8-4.6,27.2v0.8
		c0.2,4.1,0.7,7.8,1.7,11c0.9,3.2,2.7,5.9,5.2,8c2.6,2.1,6.9,3.3,13.1,3.5c0.4,0.1,0.8,0.1,1.3,0.1c5.7,0,11.5-1.8,17.4-5.3
		c6.2-3.8,11.1-8.1,14.9-12.8c3.7-4.7,6.2-8.1,7.4-10.3c1.2-2.2,1.9-4.1,2.2-5.8v-0.8c0-1.4-0.5-2.6-1.5-3.7
		c-0.8-0.8-1.8-1.3-2.9-1.3c-0.7,0-1.3,0.1-2.1,0.4c-2,0.8-3.5,2-4.5,3.6c-1,1.6-3.5,4.9-7.3,9.7c-3.9,4.8-8.3,8.4-13.3,10.7
		c-3.8,1.8-7.3,2.7-10.4,2.7c-1.2,0-2.4-0.1-3.4-0.4c-4.1-0.8-6.2-4.5-6.2-10.8v-0.4c0.1-6.7,6-30.8,17.7-72.4l22.5-0.2H470.3z"/>
	<path class="st2" d="M391.2,356.8c-3.6-7.2-7.8-11-12.6-11.4c-1.2-0.1-2.3-0.1-3.4-0.1c-3.5,0-6.5,0.5-9.3,1.4
		c-3.6,1.2-7,3.4-10.2,6.5c-3.1,3.1-6.3,7.1-9.5,12.1c-3.2,4.9-5.3,10.9-6.4,17.8c-0.8,5-1.3,9.7-1.3,14c0,1.7,0.1,3.3,0.2,4.9
		c0.5,5.6,1.5,10.1,3.1,13.6c1.6,3.5,3.8,6.1,6.7,7.8c2.2,1.4,5,2.1,8.3,2.1c0.9,0,1.9-0.1,2.8-0.2c4.6-0.5,8.2-1.9,10.9-4.2
		c2.7-2.3,5.7-5.7,8.9-10.1c3.1,7,6.1,11.4,9,13.2c2.4,1.5,4.8,2.2,7.2,2.2c0.5,0,0.9,0,1.5-0.1c2.9-0.3,6.2-1.4,10-3.2
		c3.8-1.8,7.8-6.3,12.1-13.6c4.3-7.3,6.6-11.5,7-12.8c0.3-0.8,0.4-1.5,0.4-2.2c0-0.5-0.1-0.9-0.2-1.3c-0.3-1-0.8-2.1-1.5-3.1
		c-0.7-1-1.4-1.7-2.1-2c-0.1-0.1-0.3-0.1-0.4-0.1c-0.7,0-1.5,0.4-2.4,1.2c-1.2,1-3.6,4.6-7,10.5c-3.5,6-6.5,9.9-9.3,11.6
		c-2.7,1.8-4.9,2.6-6.3,2.6c-1.6,0-3-0.6-4.2-1.7c-1.2-1.1-2.1-2.4-2.4-4c-0.1-0.5-0.2-1.1-0.2-2c0-1.8,0.3-4.5,1-8.1
		c1-5.1,3.1-13.7,6.2-25.7c3.2-11.8,4.8-19.1,4.8-21.7v-0.1c-0.1-2.5-0.8-3.9-2.1-4.4c-0.7-0.1-1.3-0.2-1.9-0.2
		c-0.8,0-1.7,0.1-2.5,0.4C394.5,347.2,392.9,350.6,391.2,356.8 M382.1,387c-1.2,4.3-3.9,9-8,14.1c-4.1,5.1-7.9,8.4-11.4,10
		c-2.3,1-4.2,1.6-5.8,1.6c-0.8,0-1.6-0.2-2.1-0.5c-1.8-0.9-3.2-2.5-4.4-4.8c-1.1-2-1.7-4.9-1.7-8.8v-1.3c0.1-4.5,0.7-9,1.6-13.5
		c0.9-4.5,3-9.1,6.2-13.9c3.2-4.8,6.7-8.1,10.6-9.9c3.1-1.4,5.8-2.1,7.9-2.1c0.6,0,1.1,0,1.7,0.1c2.4,0.5,4.6,1.6,6.5,3.5
		c2,1.9,3.2,5,3.6,9.3C384.9,377.3,383.3,382.7,382.1,387"/>
	<path class="st14" d="M251.4,420.3c-0.1,0.5-0.1,1-0.1,1.4c0,1.4,0.3,2.5,0.9,3.3c0.8,1,2.2,1.6,4.4,1.6c2.1,0,3.4-0.9,3.9-2.6
		c0.5-1.7,4.3-16,11.3-42.8c9.7-10.7,16.2-17.2,19.4-19.4c3-2,5.7-3,8-3h0.6c2.5,0.2,4,1.1,4.6,2.6c0.3,0.7,0.4,1.5,0.4,2.3
		c0,1-0.2,2.1-0.5,3.2c-0.7,2.1-2.5,7.9-5.5,17.2c-2.9,9.2-4.4,15.9-4.4,20v0.3c0.1,4.2,0.6,7.8,1.5,10.8c0.9,3,2.4,5.5,4.4,7.5
		c2.1,2,5.1,3.2,9,3.7c0.6,0.1,1.2,0.1,1.9,0.1c3.4,0,6.9-1.1,10.6-3.2c4.4-2.5,9-6.8,13.8-13c4.8-6.2,7.9-10.4,9.2-12.6
		c1-1.7,1.5-3.3,1.5-4.7c0-0.5,0-0.9-0.1-1.3c-0.4-1.8-1.2-2.9-2.4-3.4c-0.7-0.3-1.3-0.4-2.1-0.4c-0.7,0-1.3,0.1-2.1,0.4
		c-1.5,0.5-2.8,1.5-4,3.1c-1.1,1.5-2.8,4.3-5.1,8.3c-2.2,4-5.1,7.4-8.4,10.4c-3.4,2.9-6.3,4.3-8.8,4.3h-0.1
		c-2.5-0.1-4.4-0.9-5.5-2.6c-1.1-1.7-1.9-4.2-2.2-7.8v-0.9c0-3.8,1.8-10.9,5.5-21.3c3.3-9.5,5-16.6,5-21.3c0-0.8,0-1.6-0.1-2.3
		c-0.8-4.5-2.3-7.5-4.5-8.9c-2.2-1.5-4.7-2.2-7.4-2.2c-2.7,0-5.8,0.5-9.3,1.6c-3.5,1-10.2,6.8-20.1,17.3l3.6-15
		c6.4-5.5,12.2-11,17.6-16.5c5.3-5.5,9.9-11.2,13.8-17.1c3.9-5.9,6.7-11.8,8.4-17.8c1.6-5.8,2.4-10.4,2.4-13.8v-0.5
		c-0.1-3.4-0.7-6.1-2.1-7.8c-1.3-1.8-3.1-3-5.5-3.8c-1.3-0.4-2.8-0.6-4.5-0.6c-1.3,0-2.7,0.1-4.2,0.4c-3.5,0.6-6.4,1.7-8.6,3.4
		c-2.2,1.7-4.3,4.2-6.2,7.4c-1.9,3.3-8.7,22.2-20.4,56.8c-8.3,2.6-13.2,4.2-14.5,4.7c-1.3,0.6-3.2,1.2-5.5,2.1
		c-2.3,0.8-3.4,2-3.4,3.5c0.1,1.5,0.5,2.8,1.3,3.7c0.8,0.9,2.9,1.1,6.2,0.3c3.3-0.7,7.8-1.7,13.6-2.9
		C256.8,395.6,251.6,418.3,251.4,420.3 M305.8,286h0.6c1.6,0.2,2.5,1,2.6,2.5v0.4c-1.3,11.7-9.8,26.7-25.4,45.2
		C291.5,302.1,298.9,286,305.8,286"/>
	<path class="st15" d="M233,295.1c-9.8,14.5-16.2,27-19,37.6c-2.2,10.2-5,26.3-8.3,48.3c-2.4,8.5-5,14.5-7.8,18.1
		c-4.9,10.1-14.9,15.1-29.8,15.1h-1.5c-5.3,0-10.1-2.1-14.2-6.3c-3.3-5.4-4.9-9.5-4.9-12.2l0.5-6.3c3.4-7.8,8.5-11.7,15.1-11.7h1
		c3.8,0,7.9,1.3,12.2,3.9c2.9,0,4.8-1,5.9-2.9v-2.4c0-5-5.2-8.4-15.6-10.3c-6.7,0-12.1,1-16.1,2.9c-10.7,7.8-16.1,16.3-16.1,25.4
		v4.9c0,3.6,1.8,8,5.4,13.2c5.2,9.1,15.3,13.7,30.3,13.7h2c8.2,0,15.2-1.5,21-4.4c9-5.6,16.1-15,21.5-28.3
		c2.3-6.5,4.4-16.9,6.3-31.2c0-17.8,4.4-34,13.2-48.8c6.8-8.7,10.3-13.9,10.3-15.6c0-2.1-1.1-3.7-3.4-4.9h-2
		C237,292.7,235,293.5,233,295.1 M279.4,269.7c-2.2,2.6-10.2,3.9-23.9,3.9h-40.5c-7.9,0-16.6,1.3-25.9,3.9
		c-12,5.1-18.1,13.4-18.1,24.9v2c0,2.7,0.8,5.9,2.4,9.8c4,4.3,8.6,6.9,13.7,7.8c10.7,0,16.1-2,16.1-5.9v-3.9c-0.6-1.2-1.6-2-2.9-2.4
		l-9.3,0.5c-3.9,0-5.9-1.5-5.9-4.4v-2.4c0-4.2,1.5-7.8,4.4-10.7c4.6-4.6,16.1-6.8,34.7-6.8l32.7,0.5c7.7,0,15.4-1,22.9-2.9
		c7.8-3.8,11.7-7.6,11.7-11.2c0-2.7-1.6-4.6-4.9-5.9C284.6,266.3,282.1,267.5,279.4,269.7"/>
	<path class="st4" d="M140,270.8c-5.7,0-10,0.9-12.7,2.7c-2.9,1.9-4.9,4-6.2,6.2c-1,1.9-1.5,4-1.5,6.3c0,0.6,0,1.2,0.1,1.9
		c0.3,3.2,1.2,5.7,2.7,7.4c1.5,1.8,3.3,2.7,5.6,2.7c0.3,0.1,0.6,0.1,1,0.1c1.8,0,3.4-0.3,4.8-0.8c1.5-0.6,2.9-1.7,4.2-3.4
		c0.9-1.2,1.4-2.8,1.4-4.8c0-0.6,0-1.3-0.1-2c-0.4-2.9-2.1-5-5.2-6.5c1-2.2,3.3-3.9,7-5.1l-0.6-4.9H140z"/>
</g>
<g>
	<defs>
		<rect id="SVGID_5_" x="-1" width="1366" height="768"/>
	</defs>
	<clipPath id="SVGID_6_">
		<use xlink:href="#SVGID_5_"  style="overflow:visible;"/>
	</clipPath>
	<rect x="-0.5" y="0.5" class="st16" width="1365" height="767"/>
</g>
</svg>
