<?xml version="1.0" encoding="utf-8"?>
<!-- Generator: Adobe Illustrator 23.0.0, SVG Export Plug-In . SVG Version: 6.00 Build 0)  -->
<svg version="1.1" id="Layer_1" xmlns="http://www.w3.org/2000/svg" xmlns:xlink="http://www.w3.org/1999/xlink" x="0px" y="0px"
	 viewBox="0 0 1366 768" style="enable-background:new 0 0 1366 768;" xml:space="preserve">
<style type="text/css">
	.st0{clip-path:url(#SVGID_2_);fill:#231F20;}
	.st1{fill:none;stroke:#231F20;stroke-width:0.5;}
	.st2{clip-path:url(#SVGID_4_);fill:#FBCBBF;}
	.st3{clip-path:url(#SVGID_4_);fill:#FFE100;}
	.st4{clip-path:url(#SVGID_4_);fill:#8FCA75;}
	.st5{clip-path:url(#SVGID_4_);fill:#2CDA00;}
	.st6{clip-path:url(#SVGID_4_);fill:#51C2B8;}
	.st7{clip-path:url(#SVGID_4_);fill:#A8DACB;}
	.st8{clip-path:url(#SVGID_4_);fill:#B6E4FA;}
	.st9{clip-path:url(#SVGID_4_);fill:#00AEEF;}
	.st10{clip-path:url(#SVGID_4_);fill:#BC9FCB;}
	.st11{clip-path:url(#SVGID_4_);fill:#8D94C9;}
	.st12{clip-path:url(#SVGID_4_);fill:#E41F26;}
	.st13{clip-path:url(#SVGID_4_);fill:#ED0B6F;}
	.st14{clip-path:url(#SVGID_4_);fill:#F17DB1;}
	.st15{clip-path:url(#SVGID_4_);fill:#F69991;}
	.st16{clip-path:url(#SVGID_4_);fill:#F9CDE1;}
	.st17{clip-path:url(#SVGID_4_);fill:#FFF450;}
	.st18{clip-path:url(#SVGID_6_);fill:none;stroke:#FFFFFF;}
</style>
<g>
	<defs>
		<rect id="SVGID_1_" x="1" width="1366" height="768"/>
	</defs>
	<clipPath id="SVGID_2_">
		<use xlink:href="#SVGID_1_"  style="overflow:visible;"/>
	</clipPath>
	<path class="st0" d="M733.1,38.7v-0.3c-1-0.1-1.1-0.1-1.1-1.2v-4.8c0-1,0.1-1.1,1.1-1.2v-0.3h-3.2v0.3c1,0.1,1.1,0.1,1.1,1.2v4.8
		c0,1-0.1,1.1-1.1,1.2v0.3H733.1z M719.3,34.9v-3c0-0.3,0-0.5,0.1-0.5c0.1-0.1,0.3-0.1,0.6-0.1c0.9,0,1.8,0.5,1.8,1.8
		c0,0.6-0.2,1.1-0.7,1.5c-0.3,0.2-0.7,0.3-1.3,0.3H719.3z M724.3,38.5c-0.3-0.1-0.5-0.2-0.9-0.6c-0.3-0.3-0.5-0.6-1-1.2
		c-0.4-0.5-0.9-1.3-1.1-1.7c0.9-0.4,1.5-1,1.5-2.1c0-0.7-0.3-1.3-0.8-1.6c-0.5-0.3-1-0.4-1.9-0.4h-3v0.3c0.9,0.1,1,0.1,1,1.1v4.8
		c0,1-0.1,1.1-1.1,1.2v0.3h3.2v-0.3c-1-0.1-1.1-0.1-1.1-1.2v-1.9h0.4c0.6,0,0.8,0.1,1,0.5c0.4,0.6,0.8,1.3,1.2,1.9
		c0.5,0.8,1,1,1.9,1.1c0.1,0,0.3,0,0.4,0L724.3,38.5z M714.8,36.8c-0.2,0.5-0.4,0.9-0.6,1.1c-0.3,0.3-0.6,0.4-1.5,0.4
		c-0.6,0-1,0-1.2-0.2c-0.2-0.2-0.3-0.4-0.3-1v-2.3h1.1c1,0,1.1,0.1,1.3,0.9h0.3v-2.3h-0.3c-0.2,0.8-0.2,0.9-1.3,0.9h-1.1v-2.7
		c0-0.4,0-0.4,0.4-0.4h0.9c0.9,0,1.2,0.1,1.4,0.3c0.2,0.3,0.3,0.5,0.4,1l0.3-0.1c0-0.6-0.1-1.4-0.1-1.7h-5.3v0.3
		c0.9,0.1,1,0.1,1,1.2v4.8c0,1-0.1,1.1-1.2,1.2v0.3h5.8c0.1-0.4,0.3-1.5,0.4-1.9L714.8,36.8z M707,32.7c-0.1-0.7-0.1-1.6-0.1-2.1
		h-0.3c-0.2,0.2-0.3,0.3-0.6,0.3h-4.7c-0.3,0-0.5,0-0.7-0.3h-0.2c0,0.7-0.1,1.4-0.1,2.2h0.3c0.1-0.5,0.2-0.9,0.4-1.1
		c0.2-0.3,0.4-0.4,1.4-0.4h0.7v5.9c0,0.9-0.1,1.1-1.2,1.1v0.3h3.4v-0.3c-1.1-0.1-1.2-0.2-1.2-1.1v-5.9h0.9c0.9,0,1.1,0.1,1.3,0.4
		c0.1,0.2,0.3,0.5,0.4,1.1L707,32.7z M694.3,32c0-0.3,0-0.5,0.1-0.6c0.1-0.1,0.3-0.1,0.7-0.1c1,0,1.8,0.6,1.8,1.8
		c0,1.5-1,1.9-1.7,1.9c-0.4,0-0.7-0.1-0.9-0.1V32z M692.4,30.9v0.3c0.9,0.1,1,0.1,1,1.2v4.8c0,1-0.1,1.1-1.1,1.2v0.3h3.3v-0.3
		c-1.1-0.1-1.2-0.1-1.2-1.2v-1.9l0.9,0.2c0.1,0,0.4,0,0.5,0c1.2-0.2,2.3-0.9,2.3-2.5c0-0.8-0.3-1.3-0.8-1.7c-0.5-0.4-1.2-0.5-2-0.5
		H692.4z M687.2,35.4H685c0.4-1,0.7-2,1.1-3.1h0L687.2,35.4z M690.3,38.7v-0.3c-0.8-0.1-0.9-0.2-1.3-1.2c-0.8-2.1-1.6-4.4-2.3-6.4
		l-0.4,0.1l-2.5,6.3c-0.4,1.1-0.6,1.1-1.3,1.2v0.3h2.6v-0.3c-0.9-0.1-1-0.2-0.7-1c0.2-0.5,0.3-1,0.5-1.5h2.6
		c0.3,0.7,0.5,1.4,0.7,1.8s0,0.6-0.7,0.7v0.3H690.3z M680.9,30.9h-3.1v0.3c0.9,0.1,1,0.1,1,1.1v1.9h-4.1v-1.9c0-1,0.1-1.1,1-1.1
		v-0.3h-3.1v0.3c1,0.1,1.1,0.1,1.1,1.1v4.8c0,1-0.1,1.1-1.1,1.1v0.3h3.2v-0.3c-1-0.1-1.1-0.1-1.1-1.1v-2.4h4.1v2.4
		c0,1-0.1,1.1-1.1,1.1v0.3h3.2v-0.3c-1-0.1-1.1-0.1-1.1-1.1v-4.8c0-1,0.1-1.1,1.1-1.1V30.9z M670.2,36.6c-0.6,1.2-1.2,1.9-2.5,1.9
		c-1.8,0-3.1-1.5-3.1-3.8c0-1.8,1.1-3.5,3.1-3.5c1.3,0,2,0.5,2.3,1.8l0.4-0.1c-0.1-0.6-0.1-1.1-0.2-1.8c-0.3-0.1-1.2-0.3-2.1-0.3
		c-2.7,0-4.6,1.7-4.6,4.2c0,1.9,1.3,4,4.3,4c0.9,0,1.9-0.2,2.2-0.3c0.2-0.4,0.5-1.3,0.7-1.8L670.2,36.6z"/>
</g>
<line class="st1" x1="734" y1="47" x2="663" y2="47"/>
<g>
	<defs>
		<rect id="SVGID_3_" x="1" width="1366" height="768"/>
	</defs>
	<clipPath id="SVGID_4_">
		<use xlink:href="#SVGID_3_"  style="overflow:visible;"/>
	</clipPath>
	<path class="st2" d="M1293,639c-1-28.7-1.9-41.2-1.9-58.3h-14.1c-0.2,15.8-4,20.7-13.3,20.7c-9.9,0-13.5-3.6-14.1-22.2
		c1.1,0,1.9,0,3.2,0.2c4.2,0.4,6.8,5.3,8.6,13.7h7.2c-1.3-14.1-0.6-27,0-39.1h-7c-1.7,8.6-3.8,14.4-8.7,14.8
		c-1.5,0.2-2.3,0.2-3.2,0.2c0.6-19.6,3.8-23.8,14.1-23.8c9.1,0,12.7,4.8,13.5,18.2h13.7c0-29.1,1-38.6,1.9-57.4H1217
		c2.8,32.9,4,49.2,4,66.3c0,17.9-1.3,35.7-3.8,66.7H1293z"/>
	<path class="st3" d="M1189.8,506H1104c1.9,20.7,2.7,35.7,2.7,62.3h13.9c0.4-11.6,0.8-18.1,2.9-21.3c0.8-1.1,1.7-1.7,3.6-1.7
		c3.2,0,4.9,1.7,4.9,10.1v13.3c0,16.7-1.1,37.6-5.1,70.3h39.9c-3.6-31.2-4.9-51.7-4.9-70.3v-13.3c0-8.4,1.7-10.1,4.9-10.1
		c1.9,0,2.8,0.6,3.6,1.7c2.1,3.2,2.7,11.8,2.8,21.3h13.9C1187.4,535.3,1188.9,519.3,1189.8,506"/>
	<path class="st4" d="M1077.6,506h-38.4c2.5,18.1,4.4,51.5,4.4,69.4c0,17.7-2.3,23-8.9,23c-6.5,0-9.1-5.9-9.1-23
		c0-20.1,2.3-52.1,4.6-69.4h-38.6c1.9,14.8,3.6,33.6,3.6,52.1c0,9.3-1.1,26.6-1.1,39.1c0,28.3,7.2,43.9,34.2,43.9h12.7
		c27.4,0,34.2-15.6,34.2-43.9c0-12.5-1.1-29.8-1.1-39.1C1073.9,540,1075.5,520.8,1077.6,506"/>
	<path class="st5" d="M936.6,579.3c0.2,13.1-0.6,20.3-8.4,20.3c-8.5,0-9.9-9.1-9.9-27.5c0-18,3.2-26.6,10.3-26.6c5.5,0,8,5.1,8,18.4
		h23.9c0-2.3,0.4-25.8-0.6-33.8c-1.9-17.7-13.1-26.2-29.3-26.2c-30.6,0-44.3,23.8-44.3,76.8c0,42.4,11.4,60.4,34.6,60.4h12
		c15.2,0,27.7-8,28.5-26.6c0.2-5.9-0.2-12.7-1-35.2H936.6z"/>
	<path class="st6" d="M189.9,506c2.8,32.5,3.2,51.5,3.2,66.3c0,12.2-0.6,35.7-3.2,66.7h38.6c-3-17.7-5.1-34.6-5.5-51.9h4
		c3.6,0,6.5,3.6,7.6,15.2h8.6c-2.1-16.3-1.5-31.2,0-46H235c-1.1,10.1-4,17.7-8,17.7h-4.2c0.6-22.8,4.2-28.5,14.1-28.5
		c9.3,0,12.2,5.7,12.5,23.9h13.9c0.2-27.7,1.1-39.3,2.7-63.5H189.9z"/>
	<path class="st7" d="M116.8,599.3c-7.2,0-10.6-7.4-10.6-24.5c0-18.6,4.4-28.9,10.6-28.9c6.3,0,10.8,10.5,10.8,29.1
		C127.6,591.5,124.2,599.3,116.8,599.3 M116.8,504.7c-27.9,0-43.1,26.2-43.1,74.1c0,43.7,12.7,61.4,39.7,61.4h5.9
		c27.6,0,40.9-17.5,40.9-61.6C160.1,531.5,144.9,504.7,116.8,504.7"/>
	<path class="st8" d="M1293.4,316l-37.6,0.2c2.1,14.6,3.6,34.6,3.6,44.5c0,3.6,0,7-0.2,8.4c-0.4,2.9-1.9,3-2.8,3
		c-1.1,0-2.3-1.3-3.4-3.6c-4.8-9.3-11.6-31.2-15.8-52.4h-34.4c2.5,33.1,3.2,49,3.2,65.7c0,18.2-0.4,35.3-3.4,67.3h37.8
		c-2.3-14.8-3.8-35.9-3.8-44.6c0-2.3,0-7,0.2-8.4c0.4-2.9,1.9-3,2.9-3c0.9,0,2.1,1.1,3.2,3.2c5.1,9.3,12.3,33.6,16.2,52.8h34.4
		c-2.7-30.8-3.2-49.4-3.2-66.1C1290.2,363.1,1290.9,347.5,1293.4,316"/>
	<path class="st9" d="M1102,409.3c-7.2,0-10.6-7.4-10.6-24.5c0-18.6,4.4-28.9,10.6-28.9c6.3,0,10.8,10.5,10.8,29.1
		C1112.8,401.5,1109.4,409.3,1102,409.3 M1102,314.7c-27.9,0-43.1,26.2-43.1,74.1c0,43.7,12.7,61.4,39.7,61.4h5.9
		c27.5,0,40.8-17.5,40.8-61.6C1145.3,341.5,1130.1,314.7,1102,314.7"/>
	<path class="st10" d="M964.1,316c2.8,33.6,3.2,50.5,3.2,66.1c0,15.6-0.6,34.6-3.2,66.9h37c-3-32.3-3.2-51.3-3.2-66.9
		c0-15.4,0.6-32.5,3-66.1H964.1z"/>
	<path class="st11" d="M909.1,316h-85.9c1.9,20.7,2.7,35.7,2.7,62.3h13.9c0.4-11.6,0.8-18,2.9-21.3c0.8-1.1,1.7-1.7,3.6-1.7
		c3.2,0,4.9,1.7,4.9,10.1v13.3c0,16.7-1.1,37.6-5.1,70.3h39.9c-3.6-31.2-4.9-51.7-4.9-70.3v-13.3c0-8.4,1.7-10.1,4.9-10.1
		c1.9,0,2.9,0.6,3.6,1.7c2.1,3.2,2.7,11.8,2.8,21.3h13.9C906.6,345.3,908.2,329.3,909.1,316"/>
	<path class="st12" d="M729.3,316c2.8,33.6,3.2,50.5,3.2,66.1c0,15.6-0.6,34.6-3.2,66.9h37c-3-32.3-3.2-51.3-3.2-66.9
		c0-15.4,0.6-32.5,3-66.1H729.3z"/>
	<path class="st13" d="M670.7,316l-37.6,0.2c2.1,14.6,3.6,34.6,3.6,44.5c0,3.6,0,7-0.2,8.4c-0.4,2.9-1.9,3-2.9,3
		c-1.1,0-2.3-1.3-3.4-3.6c-4.8-9.3-11.6-31.2-15.8-52.4H580c2.5,33.1,3.2,49,3.2,65.7c0,18.2-0.4,35.3-3.4,67.3h37.8
		c-2.3-14.8-3.8-35.9-3.8-44.6c0-2.3,0-7,0.2-8.4c0.4-2.9,1.9-3,2.9-3s2.1,1.1,3.2,3.2c5.1,9.3,12.4,33.6,16.2,52.8h34.4
		c-2.7-30.8-3.2-49.4-3.2-66.1C667.4,363.1,668.2,347.5,670.7,316"/>
	<path class="st14" d="M484.2,316c2.8,33.6,3.2,50.5,3.2,66.1c0,15.6-0.6,34.6-3.2,66.9h37c-3-32.3-3.2-51.3-3.2-66.9
		c0-15.4,0.6-32.5,3-66.1H484.2z"/>
	<path class="st15" d="M353,316c2.8,32.5,3.2,51.5,3.2,66.3c0,12.2-0.6,35.7-3.2,66.7h38.6c-3-17.7-5.1-34.6-5.5-51.9h4
		c3.6,0,6.5,3.6,7.6,15.2h8.5c-2.1-16.3-1.5-31.2,0-46H398c-1.1,10.1-4,17.7-8,17.7h-4.2c0.6-22.8,4.2-28.5,14.1-28.5
		c9.3,0,12.2,5.7,12.5,23.9h13.9c0.2-27.7,1.1-39.3,2.7-63.5H353z"/>
	<path class="st16" d="M294.2,449c-1-28.7-1.9-41.2-1.9-58.3h-14.1c-0.2,15.8-4,20.7-13.3,20.7c-9.9,0-13.5-3.6-14.1-22.2
		c1.1,0,1.9,0,3.2,0.2c4.2,0.4,6.8,5.3,8.6,13.7h7.2c-1.3-14.1-0.6-27,0-39.1h-7c-1.7,8.6-3.8,14.4-8.7,14.8
		c-1.5,0.2-2.3,0.2-3.2,0.2c0.6-19.6,3.8-23.8,14.1-23.8c9.1,0,12.7,4.8,13.5,18.2h13.7c0-29.1,1-38.6,1.9-57.4h-75.8
		c2.8,32.9,4,49.2,4,66.3c0,17.9-1.3,35.7-3.8,66.7H294.2z"/>
	<path class="st17" d="M116.4,409.5c-6.3,0-8-4.4-8-27.4c0-18.6,0.8-26.6,6.5-26.6c9.1,0,13.9,14.6,13.9,30.2
		C128.8,403.6,122.7,409.5,116.4,409.5 M161.2,392.9c0-50.5-20.1-76.9-49.2-76.9H75c2.5,31.5,3.2,51.5,3.2,65.2
		c0,16-0.4,36.9-3.2,67.8h45.2C141.1,449,161.2,431.9,161.2,392.9"/>
	<path class="st3" d="M1293,259c-1-28.7-1.9-41.2-1.9-58.3h-14.1c-0.2,15.8-4,20.7-13.3,20.7c-9.9,0-13.5-3.6-14.1-22.2
		c1.1,0,1.9,0,3.2,0.2c4.2,0.4,6.8,5.3,8.6,13.7h7.2c-1.3-14.1-0.6-27,0-39.1h-7c-1.7,8.5-3.8,14.4-8.7,14.8
		c-1.5,0.2-2.3,0.2-3.2,0.2c0.6-19.6,3.8-23.8,14.1-23.8c9.1,0,12.7,4.8,13.5,18.2h13.7c0-29.1,1-38.6,1.9-57.4H1217
		c2.8,32.9,4,49.2,4,66.3c0,17.9-1.3,35.7-3.8,66.7H1293z"/>
	<path class="st10" d="M730.6,259c-2.9-31.7-4-45.2-4-66.9c0-16.5,0.8-34.6,3.8-66.1h-38c2.5,24.1,3.4,39.1,3.6,53.8h-19.4
		c0.2-13.5,1-30.4,3.4-53.8h-38c3,31.9,3.8,42.2,3.8,66.1c0,21.3-0.8,36.7-3.8,66.9h38.2c-2.3-23.7-3.2-38.9-3.6-52.4H696
		c-0.4,14.6-1.3,30.2-3.4,52.4H730.6z"/>
	<path class="st9" d="M158.8,126H72.9c1.9,20.7,2.7,35.7,2.7,62.3h13.9c0.4-11.6,0.8-18,2.8-21.3c0.8-1.1,1.7-1.7,3.6-1.7
		c3.2,0,4.9,1.7,4.9,10.1v13.3c0,16.7-1.1,37.6-5.1,70.3h39.9c-3.6-31.2-4.9-51.7-4.9-70.3v-13.3c0-8.4,1.7-10.1,4.9-10.1
		c1.9,0,2.9,0.6,3.6,1.7c2.1,3.2,2.7,11.8,2.9,21.3h13.9C156.3,155.3,157.8,139.3,158.8,126"/>
</g>
<g>
	<defs>
		<rect id="SVGID_5_" x="1" width="1366" height="768"/>
	</defs>
	<clipPath id="SVGID_6_">
		<use xlink:href="#SVGID_5_"  style="overflow:visible;"/>
	</clipPath>
	<rect x="1.5" y="0.5" class="st18" width="1365" height="767"/>
</g>
</svg>
