<?xml version="1.0" encoding="utf-8"?>
<!-- Generator: Adobe Illustrator 23.0.0, SVG Export Plug-In . SVG Version: 6.00 Build 0)  -->
<svg version="1.1" id="Layer_1" xmlns="http://www.w3.org/2000/svg" xmlns:xlink="http://www.w3.org/1999/xlink" x="0px" y="0px"
	 viewBox="0 0 1245 383" style="enable-background:new 0 0 1245 383;" xml:space="preserve">
<style type="text/css">
	.st0{fill:#F17DB1;}
	.st1{font-family:'Blimey-0.1-900';}
	.st2{font-size:190px;}
	.st3{clip-path:url(#SVGID_2_);}
	.st4{fill:#8D94C9;}
	.st5{font-family:'ThatsFontFolksItalic';}
	.st6{fill:#FBCBBF;}
	.st7{fill:#F9CDE1;}
	.st8{fill:#F69991;}
	.st9{fill:#ED0B6F;}
	.st10{fill:#E41F26;}
	.st11{fill:#FBB040;}
	.st12{fill:#FFF68B;}
	.st13{fill:#FFE100;}
	.st14{fill:#8FCA75;}
	.st15{fill:#A8DACB;}
	.st16{fill:#51C2B8;}
	.st17{fill:#B6E4FA;}
	.st18{fill:#00AEEF;}
	.st19{fill:#231F20;}
	.st20{font-family:'Life-Roman';}
	.st21{font-size:11.66px;}
</style>
<text transform="matrix(1 0 0 1 1233.0713 60.0005)" class="st0 st1 st2"> </text>
<g>
	<defs>
		<rect id="SVGID_1_" x="39" y="58.13" width="1188.44" height="287.87"/>
	</defs>
	<clipPath id="SVGID_2_">
		<use xlink:href="#SVGID_1_"  style="overflow:visible;"/>
	</clipPath>
	<g class="st3">
		<text transform="matrix(0.9925 -0.1225 0.1225 0.9925 141.479 263.6885)" class="st4 st5 st2"> </text>
	</g>
	<g class="st3">
		<text transform="matrix(0.9907 -0.1358 0.1358 0.9907 53.9003 274.8964)" class="st4 st5 st2">‘</text>
	</g>
	<g class="st3">
		<text transform="matrix(0.9944 -0.106 0.106 0.9944 86.5669 269.8828)" class="st6 st5 st2">T</text>
	</g>
	<g class="st3">
		<text transform="matrix(0.9968 -0.0802 0.0802 0.9968 208.7393 257.2256)" class="st0 st5 st2">h</text>
	</g>
	<g class="st3">
		<text transform="matrix(0.9981 -0.0623 0.0623 0.9981 284.8476 251.1016)" class="st7 st5 st2">a</text>
	</g>
	<g class="st3">
		<text transform="matrix(0.9988 -0.0493 0.0493 0.9988 361.3354 246.4111)" class="st8 st5 st2">t</text>
	</g>
	<g class="st3">
		<text transform="matrix(0.9992 -0.0399 0.0399 0.9992 409.6128 244.0459)" class="st9 st5 st2">’</text>
	</g>
	<g class="st3">
		<text transform="matrix(0.9995 -0.0302 0.0302 0.9995 446.4121 242.5039)" class="st10 st5 st2">s</text>
	</g>
	<g class="st3">
		<text transform="matrix(0.9998 -0.0202 0.0202 0.9998 507.895 240.7041)" class="st11 st5 st2"> </text>
	</g>
	<g class="st3">
		<text transform="matrix(1 -9.758999e-03 9.758999e-03 1 541.1924 239.915)" class="st12 st5 st2">a</text>
	</g>
	<g class="st3">
		<text transform="matrix(1 3.460505e-03 -3.460505e-03 1 617.8208 239.2569)" class="st13 st5 st2">l</text>
	</g>
	<g class="st3">
		<text transform="matrix(0.9999 0.0134 -0.0134 0.9999 668.8466 239.4375)" class="st14 st5 st2">l</text>
	</g>
	<g class="st3">
		<text transform="matrix(0.9997 0.0224 -0.0224 0.9997 719.8672 240.1631)" class="st11 st5 st2"> </text>
	</g>
	<g class="st3">
		<text transform="matrix(0.9996 0.029 -0.029 0.9996 753.1641 240.9062)" class="st15 st5 st2">f</text>
	</g>
	<g class="st3">
		<text transform="matrix(0.9992 0.0398 -0.0398 0.9992 792.2999 241.999)" class="st16 st5 st2">o</text>
	</g>
	<g class="st3">
		<text transform="matrix(0.9986 0.0524 -0.0524 0.9986 857.837 244.6699)" class="st17 st5 st2">l</text>
	</g>
	<g class="st3">
		<text transform="matrix(0.9979 0.0655 -0.0655 0.9979 908.7979 247.2666)" class="st18 st5 st2">k</text>
	</g>
	<g class="st3">
		<text transform="matrix(0.9969 0.079 -0.079 0.9969 978.0439 251.8135)" class="st4 st5 st2">s</text>
	</g>
	<g class="st3">
		<text transform="matrix(0.9958 0.0915 -0.0915 0.9958 1039.3604 256.6865)" class="st8 st5 st2">!</text>
	</g>
	<g class="st3">
		<text transform="matrix(0.995 0.0995 -0.0995 0.995 1088.6796 261.2441)" class="st7 st5 st2">’</text>
	</g>
	<g class="st3">
		<text transform="matrix(0.9944 0.106 -0.106 0.9944 1125.3242 264.9541)" class="st7 st5 st2"> </text>
	</g>
	<g class="st3">
		<text transform="matrix(0.994 0.1093 -0.1093 0.994 1158.373 130.0479)" class="st19 st20 st21">1</text>
	</g>
	<g class="st3">
		<text transform="matrix(0.994 0.1093 -0.1093 0.994 1164.8175 130.7559)" class="st19 st20 st21">.</text>
	</g>
</g>
</svg>
