<?xml version="1.0" encoding="utf-8"?>
<!-- Generator: Adobe Illustrator 23.0.0, SVG Export Plug-In . SVG Version: 6.00 Build 0)  -->
<svg version="1.1" id="Layer_1" xmlns="http://www.w3.org/2000/svg" xmlns:xlink="http://www.w3.org/1999/xlink" x="0px" y="0px"
	 viewBox="0 0 1245 383" style="enable-background:new 0 0 1245 383;" xml:space="preserve">
<style type="text/css">
	.st0{clip-path:url(#SVGID_2_);}
	.st1{fill:#8D94C9;}
	.st2{fill:#FBCBBF;}
	.st3{fill:#F17DB1;}
	.st4{fill:#F9CDE1;}
	.st5{fill:#F69991;}
	.st6{fill:#ED0B6F;}
	.st7{fill:#E41F26;}
	.st8{fill:#FFF68B;}
	.st9{fill:#FFE100;}
	.st10{fill:#8FCA75;}
	.st11{fill:#A8DACB;}
	.st12{fill:#51C2B8;}
	.st13{fill:#B6E4FA;}
	.st14{fill:#00AEEF;}
	.st15{fill:#231F20;}
</style>
<g>
	<defs>
		<rect id="SVGID_1_" x="41.2" y="29.6" width="1188.4" height="327.9"/>
	</defs>
	<clipPath id="SVGID_2_">
		<use xlink:href="#SVGID_1_"  style="overflow:visible;"/>
	</clipPath>
	<g class="st0">
		<path class="st1" d="M83.9,128.3l1.2,4.5c-3.3,1.6-5.3,3.5-6,5.7c3.1,1,5,2.8,5.7,5.5c0.1,0.6,0.3,1.2,0.3,1.8
			c0.3,1.8,0,3.4-0.7,4.7c-1,1.8-2.2,3-3.5,3.8c-1.2,0.7-2.7,1.1-4.4,1.4c-0.3,0-0.6,0.1-0.9,0c-2.2,0.2-4-0.4-5.6-1.8
			c-1.6-1.5-2.8-3.7-3.5-6.6c-0.1-0.6-0.3-1.2-0.3-1.7c-0.3-2.2-0.1-4.3,0.6-6.2c0.9-2.3,2.5-4.5,5-6.7c2.3-2.1,6.2-3.5,11.6-4.2
			L83.9,128.3z"/>
	</g>
	<g class="st0">
		<path class="st2" d="M179.5,138.9l1.8-0.2c2.3,0.9,3.5,2.3,3.7,4.3c0.2,1.6-2.5,6.9-8.1,15.8c-6.8,14.8-9.3,30.7-7.5,47.5
			c-0.4,13.7-1.4,23.8-2.8,30.2c-3.7,13.1-9.5,22.7-17.4,28.9c-5.2,3.4-11.6,5.4-19.4,6.3l-1.8,0.2c-14.1,1.5-24.1-1.8-30-9.9
			c-3.9-4.6-6-8.5-6.4-11.9l-0.5-4.6c-0.9-8.6,3.3-17.1,12.7-25.6c3.6-2.3,8.6-3.7,14.9-4.4c10,0.7,15.3,3.4,15.8,8.1l0.2,2.3
			c-0.8,2-2.5,3.1-5.2,3.4c-4.3-2-8.3-2.8-11.9-2.5l-0.9,0.1c-6.3,0.7-10.6,4.9-13.1,12.6l0.2,6c0.3,2.6,2.2,6.3,5.8,11
			c4.3,3.6,9,5.1,14,4.6l1.4-0.1c14.1-1.5,23-7.3,26.6-17.3c2.3-3.7,4.1-9.6,5.6-17.9c0.9-21.2,1.9-36.7,3-46.5
			c1.6-10.3,6.4-22.8,14.2-37.4C176,140.1,177.7,139.1,179.5,138.9z M222.1,109.2c3.2,0.8,4.9,2.5,5.2,5c0.4,3.4-2.9,7.4-9.9,11.8
			c-6.9,2.6-14.1,4.3-21.4,5.1l-31,2.8c-17.5,1.9-28.2,5.2-32.1,9.9c-2.5,3.1-3.5,6.6-3.1,10.6l0.2,2.3c0.3,2.8,2.3,4,6,3.6l8.7-1.4
			c1.3,0.3,2.3,1,3,2l0.4,3.7c0.4,3.7-4.5,6.1-14.6,7.2c-4.9-0.3-9.5-2.4-13.7-6c-1.9-3.5-3-6.5-3.3-9l-0.2-1.8
			c-1.2-10.8,3.7-19.3,14.6-25.3c8.5-3.4,16.5-5.5,24.1-6.3l38.3-4.1c13-1.4,20.4-3.4,22.2-6.1C217.8,110.7,220,109.4,222.1,109.2z"
			/>
	</g>
	<g class="st0">
		<path class="st3" d="M214,192.8c-5.3,1.6-9.5,2.9-12.6,3.8c-3.1,0.9-5.1,1-5.9,0.1c-0.8-0.8-1.4-2-1.5-3.4
			c-0.2-1.4,0.8-2.6,2.9-3.6c2.1-0.9,3.8-1.7,5-2.4c1.2-0.6,5.7-2.5,13.4-5.6c8.5-33.7,13.5-52.1,15-55.4c1.5-3.2,3.3-5.7,5.3-7.5
			c2-1.8,4.6-3.1,7.9-3.9c1.4-0.4,2.7-0.6,3.9-0.7c1.6-0.1,3-0.1,4.3,0.2c2.3,0.6,4.1,1.6,5.5,3.2c1.4,1.6,2.2,4,2.5,7.2l0,0.5
			c0.3,3.2-0.2,7.6-1.3,13.2c-1.2,5.8-3.4,11.6-6.6,17.5c-3.2,5.8-7.2,11.6-11.8,17.2c-4.6,5.6-9.8,11.3-15.4,17l-2.3,14.5
			c8.6-10.7,14.5-16.6,17.7-17.9c3.2-1.3,6.1-2,8.7-2.2c2.6-0.2,5,0.3,7.2,1.5c2.2,1.2,3.9,3.9,4.9,8.1c0.1,0.7,0.2,1.4,0.3,2.2
			c0.4,4.4-0.7,11.3-3.1,20.5c-2.7,10.1-3.8,17-3.6,20.6l0.1,0.8c0.6,3.3,1.5,5.7,2.7,7.2c1.2,1.5,3,2.2,5.4,2l0.1,0
			c2.3-0.2,5-1.8,8-4.7c3-3,5.4-6.5,7.2-10.4c1.8-3.9,3.2-6.7,4.2-8.2c1-1.5,2.1-2.6,3.5-3.2c0.7-0.3,1.3-0.5,1.9-0.5
			c0.7-0.1,1.3,0,2,0.2c1.2,0.4,2.1,1.4,2.6,3c0.1,0.4,0.2,0.8,0.2,1.2c0.1,1.4-0.2,2.9-1,4.5c-1.1,2.2-3.7,6.4-7.8,12.7
			c-4.1,6.3-8.2,10.7-12.1,13.4c-3.4,2.3-6.6,3.6-9.8,3.9c-0.6,0-1.2,0.1-1.8,0c-3.8-0.1-6.7-1.1-8.8-2.8c-2.1-1.7-3.7-4-4.8-6.8
			c-1.1-2.8-1.8-6.2-2.2-10.1l0-0.3c-0.3-3.9,0.6-10.4,2.6-19.3c2.1-9,3.4-14.6,3.9-16.7c0.2-1.1,0.3-2.2,0.2-3.1
			c-0.1-0.8-0.2-1.5-0.5-2.2c-0.7-1.4-2.2-2.2-4.5-2.1l-0.6,0c-2.2,0.2-4.7,1.3-7.4,3.5c-2.9,2.4-8.6,9-16.9,19.9
			c-4.6,25.9-7.1,39.7-7.5,41.4c-0.4,1.7-1.5,2.6-3.5,2.7c-2,0.2-3.5-0.2-4.3-1.1c-0.6-0.7-1-1.7-1.1-3.1c0-0.4,0-0.8,0-1.3
			C204.5,256.5,207.7,234.6,214,192.8z M228.4,174.4c13.4-18.7,20.3-33.6,20.6-44.8l0-0.4c-0.2-1.4-1.1-2.1-2.7-2.2l-0.6,0
			C239.2,127.6,233.4,143.4,228.4,174.4z"/>
	</g>
	<g class="st0">
		<path class="st4" d="M337.1,178.5c0.8-0.3,1.6-0.5,2.4-0.5c0.6,0,1.1,0,1.8,0.1c1.3,0.4,2.1,1.7,2.3,4l0,0.1
			c0.2,2.5-0.9,9.4-3.3,20.8c-2.3,11.5-3.8,19.8-4.4,24.7c-0.4,3.4-0.6,6-0.4,7.7c0.1,0.8,0.2,1.4,0.3,1.8c0.5,1.5,1.3,2.7,2.6,3.7
			c1.2,1,2.6,1.4,4.1,1.3c1.4-0.1,3.4-1,5.9-2.9c2.5-1.8,5.2-5.7,8.1-11.6c2.9-5.9,4.9-9.4,6-10.4c0.9-0.8,1.6-1.2,2.2-1.3
			c0.1,0,0.2,0,0.4,0.1c0.6,0.2,1.3,0.8,2.1,1.7c0.8,0.9,1.3,1.9,1.6,2.9c0.1,0.4,0.2,0.8,0.3,1.2c0,0.7,0,1.4-0.2,2.2
			c-0.3,1.3-2.3,5.5-5.9,12.6c-3.6,7.1-7.2,11.7-10.7,13.6c-3.5,1.9-6.6,3.1-9.3,3.6c-0.5,0.1-1,0.2-1.4,0.2c-2.3,0.1-4.6-0.4-7-1.7
			c-2.9-1.5-6-5.5-9.3-12c-2.8,4.3-5.4,7.7-7.8,10.1c-2.5,2.4-5.8,3.9-10.1,4.6c-0.9,0.2-1.8,0.3-2.7,0.4c-3.1,0.2-5.8-0.3-8-1.5
			c-2.8-1.5-5.1-3.8-6.8-7c-1.7-3.2-3-7.4-3.7-12.7c-0.2-1.5-0.4-3-0.5-4.6c-0.3-4.1-0.1-8.5,0.4-13.3c0.6-6.7,2.3-12.4,5.1-17.3
			c2.7-4.8,5.5-8.8,8.3-12c2.8-3.1,5.9-5.4,9.2-6.8c2.5-1,5.4-1.6,8.7-1.8c1-0.1,2.1-0.1,3.2-0.1c4.6,0.1,8.8,3.4,12.6,10.1
			C334.4,182.4,335.7,179.1,337.1,178.5z M329.9,202c-0.7-4-2-6.9-4-8.6c-2-1.7-4.1-2.7-6.4-2.9c-0.5,0-1,0-1.6,0
			c-2,0.1-4.5,0.9-7.4,2.4c-3.6,2-6.8,5.3-9.5,10c-2.7,4.7-4.4,9.2-5,13.6c-0.6,4.3-0.9,8.6-0.7,12.9l0.1,1.2
			c0.2,3.6,0.9,6.4,2.1,8.2c1.2,2.1,2.7,3.5,4.5,4.3c0.6,0.3,1.3,0.4,2.1,0.3c1.5-0.1,3.3-0.7,5.4-1.8c3.2-1.7,6.6-5.1,10.2-10.1
			s5.8-9.7,6.7-13.8C327.3,213.5,328.5,208.2,329.9,202z"/>
	</g>
	<g class="st0">
		<path class="st5" d="M405.4,158.9l-21.3,1.2c-9.2,40-13.6,63.1-13.4,69.5l0,0.4c0.3,6.1,2.4,9.4,6.3,10c1,0.2,2.1,0.3,3.3,0.2
			c3-0.1,6.3-1.2,9.8-3.1c4.6-2.5,8.7-6.1,12.1-10.8c3.4-4.8,5.6-7.9,6.5-9.5c0.9-1.6,2.3-2.8,4.1-3.6c0.7-0.3,1.3-0.4,1.9-0.5
			c1-0.1,2,0.3,2.8,1.1c1,1,1.5,2.2,1.6,3.5l0,0.7c-0.2,1.6-0.8,3.5-1.8,5.6c-1,2.1-3.2,5.5-6.6,10.1c-3.3,4.6-7.8,8.9-13.5,12.8
			c-5.4,3.6-10.8,5.5-16.2,5.8c-0.4,0-0.8,0-1.2,0c-5.9,0-10.1-0.9-12.6-2.7c-2.5-1.9-4.3-4.3-5.3-7.3c-1-3-1.7-6.5-2.1-10.3l0-0.7
			c-0.2-4.2,0.8-12.9,3.1-26.1c2.4-13.9,5.8-28.7,10.1-44.4c-31.6,1.6-47.9,2.1-49,1.5c-1.1-0.5-1.8-1.7-2-3.6
			c-0.1-0.3-0.1-0.6-0.1-0.8c-0.1-1.5,0.5-2.7,1.6-3.8c1.1-1,17.1-2.2,48-3.8c1.4-0.1,2.9-0.1,4.5-0.1c6.8-27.6,10.7-42,11.9-43.2
			c1.2-1.2,2.8-1.9,4.9-2c2.2-0.1,3.6,0.3,4.3,1.3l0,0.4c0.1,2.3-3.4,16.6-10.4,42.7l19.4-1c4.6-0.2,7.6,0,9,0.6
			c1.5,0.6,2.3,1.9,2.4,3.7l0,0.2c0.1,1.8-0.6,3.2-1.9,4.3c-1.2,0.9-3.8,1.5-7.8,1.7L405.4,158.9z"/>
	</g>
	<g class="st0">
		<path class="st6" d="M435.9,127.7l-0.7-4.6c3.5-1.3,5.6-2.9,6.5-5.1c-3-1.3-4.7-3.3-5.2-6c-0.1-0.6-0.1-1.2-0.2-1.8
			c-0.1-1.9,0.3-3.4,1.2-4.7c1.1-1.6,2.4-2.7,3.9-3.3c1.2-0.5,2.7-0.8,4.4-0.9l0.9,0c2.2,0,4,0.9,5.4,2.5c1.5,1.6,2.4,3.9,2.8,6.9
			c0.1,0.7,0.1,1.3,0.2,1.8c0.1,2.2-0.3,4.2-1.2,6c-1.1,2.3-2.9,4.4-5.5,6.3c-2.6,1.8-6.6,2.9-12,3.1L435.9,127.7z"/>
	</g>
	<g class="st0">
		<path class="st7" d="M475.5,170.4c1-0.6,2-1,3-1c0.5,0,1,0,1.5,0c1.6,0.4,2.6,1.4,3.1,3.1l0,0.6c0.1,1.8-1.2,4.9-3.9,9.4l7.3,12.2
			c6.9,13.2,10.5,23.3,10.7,30.4c0,1.5-0.1,2.9-0.3,4.2c5.4-6.5,8.9-11.5,10.4-14.8c1.5-3.2,3.1-4.8,4.9-4.9l0.2,0
			c1.9,0.1,3.2,0.9,4,2.6c0.3,0.8,0.5,1.6,0.5,2.5c0,0.9-0.1,1.9-0.5,2.8c-0.7,1.9-2,4.7-3.9,8.3c-1.9,3.6-5.5,8-10.7,13.3
			c-5.2,5.3-11.4,8.4-18.6,9.3c-1.5,0.2-2.9,0.4-4.3,0.4c-5.1,0.2-9.2-0.9-12.3-3.1c-3.9-2.7-6.2-5.4-6.7-8.2
			c-0.2-0.9-0.3-1.7-0.4-2.4c0-1.6,0.3-2.9,1.1-3.7c0.8-1,1.8-1.4,3.1-1.5c0.4,0,0.8,0,1.3,0.1c1.9,0.4,3.3,1.6,4.1,3.7
			c0.8,2.1,1.8,3.4,2.9,4c1.1,0.6,2.5,0.9,4.3,1.1c0.2,0.1,0.5,0.1,0.7,0.1c1.7,0,3.8-0.8,6.4-2.2c2.7-1.4,4-4.9,3.9-10.3l-0.1-1.7
			c-0.5-6.4-5-16.8-13.6-31.2c-9.8,14.8-15.5,23.2-17.2,25.2c-1.3,1.6-2.7,2.4-4.1,2.4c-0.4,0-0.8-0.1-1.2-0.2
			c-1.9-0.5-3.1-1.9-3.4-4.3c-0.1-0.2-0.1-0.3-0.1-0.5c-0.1-2.3,1.6-5.8,5-10.3c3.6-4.8,7.9-11.7,13-20.5
			C470.8,176.3,474.1,171.4,475.5,170.4z"/>
	</g>
	<g class="st0">
		<path class="st8" d="M597.5,170c0.8-0.3,1.6-0.4,2.4-0.4c0.6,0,1.1,0.1,1.8,0.2c1.3,0.4,2,1.8,2.1,4.2l0,0.1
			c0,2.5-1.4,9.4-4.3,20.6c-2.9,11.4-4.8,19.6-5.7,24.5c-0.6,3.4-0.9,6-0.9,7.7c0,0.8,0.1,1.4,0.2,1.9c0.4,1.5,1.2,2.7,2.4,3.8
			c1.2,1,2.5,1.6,4,1.5c1.4,0,3.4-0.9,6-2.6c2.6-1.7,5.5-5.4,8.7-11.1c3.2-5.7,5.4-9.1,6.6-10.1c0.9-0.8,1.7-1.1,2.3-1.1
			c0.1,0,0.2,0,0.4,0.1c0.6,0.2,1.3,0.9,2,1.8c0.7,1,1.2,2,1.5,3c0.1,0.4,0.2,0.8,0.2,1.2c0,0.7-0.1,1.4-0.3,2.1
			c-0.4,1.2-2.5,5.3-6.6,12.3c-4,6.9-7.8,11.3-11.4,13c-3.6,1.7-6.7,2.8-9.4,3.1c-0.5,0.1-1,0.1-1.4,0.1c-2.3,0-4.6-0.7-6.9-2.1
			c-2.8-1.6-5.7-5.8-8.7-12.4c-3,4.2-5.8,7.4-8.3,9.6c-2.6,2.3-6,3.6-10.4,4.1c-0.9,0.1-1.8,0.2-2.7,0.2c-3.2,0-5.8-0.6-7.9-1.9
			c-2.7-1.6-4.9-4.1-6.4-7.4c-1.5-3.3-2.6-7.5-3-12.9c-0.1-1.5-0.2-3-0.2-4.6c0-4.1,0.3-8.5,1.1-13.3c1-6.6,3-12.3,6-17
			c3-4.7,5.9-8.5,8.9-11.5c2.9-3,6.1-5.1,9.6-6.3c2.6-0.9,5.5-1.4,8.8-1.4c1.1,0,2.1,0,3.2,0.1c4.6,0.3,8.6,3.9,12.1,10.7
			C594.6,173.8,596.1,170.6,597.5,170z M589.1,193.1c-0.5-4.1-1.6-7-3.5-8.8c-1.9-1.8-4-2.9-6.2-3.3c-0.5-0.1-1-0.1-1.6-0.1
			c-2,0-4.5,0.7-7.5,2c-3.7,1.8-7,4.9-10,9.5c-3,4.6-4.9,9-5.7,13.3c-0.9,4.3-1.3,8.5-1.4,12.8l0,1.2c0,3.7,0.6,6.4,1.7,8.3
			c1.1,2.2,2.5,3.7,4.2,4.5c0.6,0.3,1.2,0.5,2,0.4c1.5,0,3.3-0.5,5.5-1.5c3.3-1.5,6.9-4.7,10.7-9.6c3.8-4.9,6.3-9.3,7.4-13.4
			C585.9,204.5,587.3,199.3,589.1,193.1z"/>
	</g>
	<g class="st0">
		<path class="st9" d="M626.7,177.5c11.2-36.9,18.5-58,21.9-63.4c3.4-5.4,6.1-8.9,8.2-10.5c2.1-1.6,4.8-2.7,8.2-3.2
			c1.4-0.2,2.8-0.4,4-0.4c1.6,0,3,0.2,4.3,0.6c2.2,0.8,4,2,5.2,3.6c1.2,1.7,1.9,4.2,1.9,7.4l0,0.6c0,3.3-0.5,7.9-1.5,13.8
			c-1.1,6.3-3.2,12.9-6.2,19.6c-3.1,6.8-7.5,14-13.4,21.5c-5.8,7.5-13.7,14.3-23.6,20.3c-4.6,19.9-6.9,31.9-6.9,36.1l0,0.7
			c0.3,3.3,1,5.8,2.1,7.4c1.1,1.6,2.8,2.4,5.2,2.5l0.1,0c2.4,0,6-1.2,10.9-3.6c5-2.4,9.2-5.6,12.7-9.7c3.5-4.1,5.9-6.9,6.9-8.3
			c1.1-1.4,2.3-2.4,3.8-2.9c0.7-0.2,1.3-0.4,2-0.4c0.7,0,1.3,0.1,1.9,0.4c1.2,0.5,1.9,1.6,2.3,3.3c0.1,0.4,0.1,0.8,0.1,1.2
			c0,1.4-0.5,2.8-1.4,4.4c-1.2,2.1-4.4,5.9-9.4,11.5c-5,5.5-10.9,9.7-17.8,12.4c-5.9,2.3-10.7,3.5-14.3,3.5c-0.6,0-1.2,0-1.7-0.1
			c-3.8-0.4-6.6-1.6-8.6-3.5c-1.9-1.9-3.3-4.3-4.2-7.2c-0.9-2.9-1.3-6.3-1.4-10.3v-0.1C618,220.5,620.9,204.8,626.7,177.5z
			 M640.4,171.2c14.5-13.9,23.4-27.6,27-40.9c1.7-6.3,2.5-10.9,2.6-13.9c0-2.7-0.7-4-2-4c-0.3,0-0.7,0-1,0l-0.6,0
			C659.7,112.4,651.1,132,640.4,171.2z"/>
	</g>
	<g class="st0">
		<path class="st10" d="M678.4,177.8c11.6-36.8,19.1-57.8,22.5-63.2c3.4-5.4,6.2-8.8,8.4-10.4c2.1-1.6,4.9-2.6,8.2-3.1
			c1.4-0.2,2.8-0.3,4-0.3c1.6,0,3,0.2,4.3,0.6c2.2,0.8,3.9,2,5.1,3.7c1.2,1.7,1.8,4.2,1.8,7.4l0,0.6c0,3.3-0.6,7.9-1.7,13.8
			c-1.1,6.3-3.3,12.8-6.4,19.6c-3.2,6.8-7.7,13.9-13.6,21.3c-5.9,7.5-13.9,14.2-23.8,20.1c-4.8,19.9-7.2,31.9-7.3,36l0,0.7
			c0.3,3.3,0.9,5.8,2,7.4c1.1,1.6,2.8,2.4,5.2,2.5l0.1,0c2.4,0,6-1.1,10.9-3.5c5-2.3,9.3-5.5,12.8-9.6c3.6-4.1,5.9-6.8,7-8.3
			s2.4-2.4,3.8-2.9c0.7-0.2,1.3-0.4,2-0.3c0.7,0,1.3,0.1,1.9,0.4c1.2,0.5,1.9,1.6,2.3,3.3c0.1,0.4,0.1,0.8,0.1,1.2
			c0,1.4-0.5,2.8-1.5,4.4c-1.3,2.1-4.4,5.9-9.5,11.4c-5.1,5.5-11,9.6-17.9,12.2c-6,2.3-10.7,3.4-14.3,3.3c-0.6,0-1.2,0-1.7-0.1
			c-3.8-0.5-6.6-1.7-8.5-3.6c-1.9-1.9-3.3-4.3-4.1-7.2s-1.2-6.3-1.3-10.3l0-0.1C669.3,220.7,672.4,205,678.4,177.8z M692.1,171.5
			c14.6-13.8,23.7-27.3,27.4-40.6c1.8-6.3,2.7-10.9,2.7-13.9c0-2.7-0.6-4-2-4c-0.3,0-0.6,0-1,0l-0.6,0
			C712,113,703.2,132.5,692.1,171.5z"/>
	</g>
	<g class="st0">
		<path class="st11" d="M757.9,214.3c10.2-45.4,17.3-72.6,21.5-81.5c4.2-8.9,8.3-15.5,12.3-19.9c4-4.4,7.6-7.3,10.7-8.7
			c2.8-1.2,5-1.8,6.7-1.8l0.6,0c1.8,0.2,3.3,0.6,4.6,1.2c1.2,0.6,2.5,2.1,3.6,4.5c0.8,1.8,1.2,4.1,1.1,7.1c0,1.2-0.1,2.6-0.3,4.1
			c-0.7,5-2.4,10.8-5.1,17.5c-2.7,6.7-7.4,15.6-14,26.8c-6.6,11.2-16.7,27.5-30.4,49.1c5,2.6,9,4,12,4.1c0.5,0,1,0,1.4-0.1
			c3.2-0.3,6.2-2,9-4.9c2.7-2.9,4.8-4.9,6.1-5.9c1.3-1,2.7-1.5,4.3-1.7l0.6,0c1.2,0,2,0.5,2.4,1.4c0.2,0.4,0.2,1,0.2,1.6
			c0,0.9-0.2,1.9-0.6,3.1c-0.7,2.1-1.5,3.7-2.2,4.9c-0.7,1.2-2.8,3.3-6.3,6.4c-3.5,3.1-7,5.1-10.4,6.1c-1.3,0.5-3,0.7-5,0.6
			c-3.2-0.1-7.3-0.8-12.2-2c1.1,11.1,1.8,19.9,2.2,26.3s0.5,13.6,0.4,21.4l0,1.3c-0.2,7.3-1.2,14.2-2.8,20.7
			c-1.8,6.9-4.5,11.7-8.1,14.4c-3,2.4-5.9,3.5-8.5,3.5c-0.5,0-1-0.1-1.4-0.2c-3.1-0.6-5.7-2.4-7.8-5.3c-1.8-2.6-2.7-7.2-2.5-13.7
			c0-1.1,0.1-2.1,0.2-3.2C740.4,283.2,746.4,257.4,757.9,214.3z M761.3,241.3c-7.5,32-11.4,50.1-11.5,54.3c0,0.4,0,0.6,0.1,0.7
			c0.5,2.1,1.3,3.3,2.4,3.7c0.2,0.1,0.4,0.2,0.6,0.2c0.9,0,1.7-0.6,2.6-1.8c1.1-1.5,2.1-3.5,2.9-6.1c0.8-2.6,1.6-6.6,2.2-11.9
			c0.2-2.1,0.3-5.4,0.5-9.9C761.2,263.7,761.3,253.9,761.3,241.3z M804.1,132.5c2.7-6.5,4-10.9,4.1-13.2c0-0.7-0.1-1.3-0.2-1.6
			c-0.7-0.9-1.6-1.3-2.7-1.4c-0.5,0-1.1,0.1-1.7,0.2c-1.9,0.6-5.1,5-9.6,13.4c-4.5,8.3-11.2,26.9-20.1,55.7
			C790.6,158.7,800.6,141,804.1,132.5z"/>
	</g>
	<g class="st0">
		<path class="st12" d="M820.7,249.7c-6.4-0.3-11.3-1.3-14.7-3.3c-3.5-1.9-6.1-4.7-7.9-8.4c-1.8-3.7-2.8-8.3-2.8-13.7
			c0-1.9,0-3.6,0-5.3c0.1-3.2,0.5-6.1,1-8.7c0.7-3.9,2-8.1,3.9-12.5c1.9-4.4,5.4-8.9,10.5-13.4c5.1-4.5,9.2-7.4,12.2-8.8
			c2.4-1,4.3-1.5,5.8-1.4c0.4,0,0.7,0.1,1,0.1c1.5,0.4,2.2,1.8,2.2,4c4.2-2,7.3-3.1,9.2-3.3c0.9-0.1,1.7-0.1,2.5-0.1
			c1,0,1.9,0.1,2.8,0.3c1.7,0.4,3.4,1.6,5.1,3.8c1.7,2.1,3.5,6.2,5.1,12c4.2-2.1,7.7-4.5,10.4-7.2c2.7-2.7,4.5-4.2,5.6-4.6
			c0.6-0.2,1.1-0.2,1.7-0.2c0.4,0,0.9,0.1,1.4,0.2c1,0.3,1.6,1,2,1.9c0.3,0.9,0.5,2,0.4,3.2c0,1.2-1.5,3.3-4.4,6.3
			c-2.9,3-8.3,6.7-16.3,11.2c-1.3,9.1-2.6,16-4,20.8c-1.4,4.8-3.3,9-5.8,12.7c-2.5,3.7-6.1,7-10.6,10.1S827,249.9,820.7,249.7z
			 M828.2,184.4c-6.7,1.8-11.8,5.7-15.2,11.7c-3.4,6-5.5,11.8-6.3,17.3c-0.4,2.5-0.7,4.7-0.7,6.7c-0.1,2.6,0,4.8,0.4,6.7
			c0.6,3.5,2.5,6.5,5.7,9c2.3,2,5,3,8.1,3.1c1,0,2,0,3.2-0.2c4.4-0.6,8.5-2.7,12.5-6.3c3.9-3.6,6.7-8.5,8.2-14.8
			c1.2-5,1.9-9.2,2-12.5c0-0.8,0-1.5,0-2.2c-1.2,0-2.3,0-3.4,0c-4.8-0.2-8.2-0.7-10.2-1.5c-2.5-0.9-4.1-2.3-4.8-4.3s-1-3.9-1-5.8
			l0-0.4C826.6,189.2,827.2,187,828.2,184.4z M839.1,186.2c-0.8,0.9-1.4,2.2-1.6,3.8l0,0.3c-0.1,1.5,1.1,2.3,3.5,2.4
			c0,0.1,0,0.1,0.1,0.1c2.5,0.1,3.8-0.6,4-2.2C844.4,187.9,842.4,186.4,839.1,186.2z"/>
	</g>
	<g class="st0">
		<path class="st13" d="M870.1,183.3c13-36.3,21.3-57.1,25-62.3c3.7-5.2,6.6-8.6,8.8-10.1c2.2-1.5,5-2.4,8.3-2.8
			c1.4-0.2,2.8-0.2,4-0.2c1.6,0.1,3,0.3,4.2,0.8c2.2,0.9,3.8,2.2,5,3.9c1.1,1.7,1.7,4.2,1.6,7.5l0,0.6c-0.2,3.3-0.9,7.9-2.2,13.7
			c-1.4,6.2-3.8,12.7-7.2,19.3c-3.4,6.6-8.2,13.6-14.4,20.8c-6.2,7.2-14.4,13.6-24.6,19.1c-5.6,19.7-8.4,31.5-8.7,35.7l0,0.7
			c0.1,3.4,0.7,5.8,1.7,7.5c1,1.6,2.7,2.5,5.1,2.7l0.1,0c2.4,0.1,6.1-0.9,11-3c5.1-2.1,9.5-5.2,13.2-9.1c3.7-3.9,6.2-6.6,7.3-8
			c1.2-1.4,2.5-2.3,3.9-2.7c0.7-0.2,1.3-0.3,2-0.3c0.7,0,1.3,0.2,1.9,0.5c1.1,0.6,1.9,1.7,2.1,3.4c0,0.4,0.1,0.8,0,1.2
			c-0.1,1.4-0.6,2.8-1.6,4.4c-1.3,2-4.7,5.7-9.9,11c-5.3,5.3-11.4,9.1-18.4,11.5c-6.1,2-10.9,3-14.5,2.8c-0.6,0-1.2-0.1-1.7-0.2
			c-3.7-0.6-6.5-1.9-8.4-3.9c-1.8-2-3.1-4.4-3.8-7.4c-0.7-2.9-1-6.4-0.9-10.3l0-0.1C859.3,225.8,863,210.3,870.1,183.3z M884,177.7
			c15.1-13.2,24.8-26.4,28.9-39.5c2-6.2,3.1-10.8,3.2-13.8c0.1-2.7-0.5-4-1.8-4.1c-0.3,0-0.6,0-1-0.1l-0.6,0
			C906.2,120,896.6,139.1,884,177.7z"/>
	</g>
	<g class="st0">
		<path class="st14" d="M921.6,219.9c-5,17.8-8.1,27.7-9.6,29.6c-1.4,1.9-3,3-4.9,3.3c-1,0.2-1.8,0.3-2.5,0.2c-0.6,0-1-0.2-1.4-0.4
			c-0.8-0.4-1.2-1.1-1.3-2.3l0-0.1c0.1-2,3.5-15.3,10.2-40.1c6.9-25.6,12.8-45.2,17.9-58.6c5-13.4,9.4-23,13.2-28.7
			c3.8-5.7,7.1-9.6,10-11.5c2.9-1.9,6-3,9.3-3.2c0.7,0,1.5,0,2.3,0.1c2.4,0.2,4.7,0.8,6.8,1.8c2.8,1.4,4.6,3.7,5.3,6.9
			c0.4,1.8,0.5,3.9,0.3,6.2c-0.1,1.7-0.4,3.6-0.7,5.6c-1,4.8-4,11.1-9,19c-5,7.9-10,13.6-15.1,17.2c-5.1,3.5-12.8,10.1-23.2,19.7
			c7.6-3.2,13.1-5.2,16.6-6.2c3.5-0.9,6.8-1.4,9.9-1.3l0.9,0.1c2.7,0.2,5.2,0.8,7.6,2c2.6,1.3,4.4,3.3,5.4,5.9
			c1,2.7,1.7,5.7,2.1,9.1c0.1,1.7,0.1,3.5,0,5.1c-0.1,1.7-0.3,3.4-0.7,5.1c-0.8,3.4-2.7,6.6-5.5,9.7c-2.8,3-5.9,4.9-9.3,5.6
			c-3.4,0.7-8.1,1.5-14.1,2.2c-1,9.8-0.3,16.1,2.2,18.9c2.4,2.8,5.2,4.3,8.2,4.4c3,0.1,6.7-1.3,11.1-4.2c4.4-2.9,8.4-6.3,11.9-10.3
			c3.5-4,5.6-6.6,6.3-7.8c0.7-1.3,1.7-2.1,2.9-2.4c0.8-0.2,1.6-0.3,2.5-0.2c0.5,0,1,0.1,1.6,0.2c1.5,0.3,2.4,1.2,2.7,2.5
			c0.1,0.8,0.2,1.7,0.1,2.6c0,0.6-0.1,1.2-0.2,1.8c-0.4,1.7-3,5.4-8.1,11s-10,10-15.1,13.3s-9.3,5-12.9,5.2c-1.5,0.1-2.9,0.1-4.2,0
			c-2-0.1-3.9-0.5-5.5-1c-2.9-0.8-5.8-2.8-8.7-5.9c-3-3.1-4.8-7.6-5.7-13.6c-0.8-5.9-0.8-10.8,0.1-14.7L921.6,219.9z M924.6,209.4
			l1.4,0.1c2.8,0.4,5.4,0.6,7.9,0.8c16.7,1.1,25.5-2.5,26.7-10.9l0.1-1.5c0.2-4.7-2.6-8-8.5-9.9l-1.4-0.1
			C935.3,191.2,926.5,198.4,924.6,209.4z M932,170.6c18.6-15,30-30.1,34-45.4c0.3-4.1-0.5-6.3-2.5-6.5l-0.2,0
			C955.9,118.2,945.5,135.5,932,170.6z"/>
	</g>
	<g class="st0">
		<path class="st1" d="M1015.6,183.1c1-0.5,2.1-0.8,3.1-0.7c0.5,0,1,0.1,1.5,0.2c1.5,0.6,2.4,1.7,2.7,3.4l-0.1,0.6
			c-0.1,1.8-1.8,4.8-4.9,8.9l6,12.9c5.4,13.8,7.8,24.3,7.3,31.4c-0.1,1.5-0.4,2.9-0.8,4.1c6.1-5.9,10.1-10.4,12-13.6
			c1.8-3,3.6-4.5,5.4-4.3l0.2,0c1.8,0.3,3.1,1.3,3.7,3c0.2,0.8,0.3,1.7,0.3,2.5c-0.1,0.9-0.3,1.8-0.8,2.7c-0.9,1.9-2.5,4.5-4.8,7.8
			c-2.3,3.4-6.4,7.4-12.1,12c-5.8,4.7-12.3,7.1-19.5,7.3c-1.5,0.1-2.9,0-4.3-0.1c-5.1-0.4-9.1-1.9-11.9-4.4
			c-3.6-3.1-5.5-6.1-5.8-8.9c-0.1-0.9-0.1-1.7-0.1-2.4c0.1-1.6,0.6-2.8,1.5-3.6c0.9-0.9,2-1.2,3.3-1.1c0.4,0,0.8,0.1,1.3,0.2
			c1.9,0.6,3.1,2,3.7,4.1c0.6,2.2,1.4,3.6,2.4,4.2c1,0.7,2.4,1.2,4.2,1.6c0.2,0.1,0.5,0.1,0.7,0.2c1.7,0.1,3.9-0.4,6.6-1.5
			c2.9-1.1,4.5-4.4,5-9.8l0.1-1.7c0.2-6.4-3.2-17.3-10.1-32.5c-11.3,13.6-17.9,21.4-19.8,23.2c-1.5,1.4-2.9,2.1-4.3,2
			c-0.4,0-0.8-0.2-1.2-0.4c-1.9-0.7-2.8-2.2-2.9-4.6c0-0.2-0.1-0.3-0.1-0.5c0.2-2.3,2.2-5.6,6.1-9.7c4.1-4.4,9.1-10.7,15.1-19
			C1010.2,188.5,1014,184,1015.6,183.1z"/>
	</g>
	<g class="st0">
		<path class="st5" d="M1067.5,250.3c1.7,2,2.4,4.3,2.2,6.9c-0.2,2.6-1.4,4.8-3.4,6.4c-2,1.6-4.3,2.4-6.9,2.1
			c-2.6-0.2-4.7-1.4-6.4-3.3c-1.7-2-2.4-4.3-2.2-7c0.2-2.6,1.4-4.7,3.4-6.4c2-1.7,4.3-2.4,6.9-2.2
			C1063.7,247.2,1065.8,248.3,1067.5,250.3z M1064.1,224.4c16.2-61.6,25.1-93.9,26.7-96.8c1.6-2.9,3.7-4.7,6.4-5.2
			c0.8-0.2,1.6-0.2,2.4-0.1c1.5,0.1,2.8,0.8,3.8,1.9c1.5,1.7,2.2,3.9,1.9,6.5c-0.2,2.7-6,20.4-17.1,53.1
			c-11.2,32.7-17.5,49.4-18.9,50c-0.9,0.4-1.8,0.6-2.6,0.5c-0.6-0.1-1.2-0.2-1.7-0.5c-1.4-0.6-2.2-1.7-2.4-3.1
			c-0.1-0.4-0.1-0.8-0.1-1.3C1062.7,228,1063.2,226.3,1064.1,224.4z"/>
	</g>
	<g class="st0">
		<path class="st4" d="M1131.9,149.4l-0.1-4.7c3.6-0.8,6-2.1,7.1-4.1c-2.8-1.7-4.2-3.9-4.3-6.7c0-0.6,0-1.2,0.1-1.9
			c0.2-1.8,0.8-3.3,1.8-4.5c1.3-1.4,2.8-2.3,4.3-2.7c1.3-0.4,2.8-0.5,4.5-0.3l0.9,0.1c2.1,0.3,3.8,1.4,5,3.2
			c1.2,1.8,1.8,4.2,1.8,7.2c0,0.7,0,1.3-0.1,1.9c-0.2,2.2-0.9,4.1-2,5.8c-1.4,2.1-3.5,3.9-6.3,5.4c-2.8,1.5-6.9,1.9-12.4,1.4
			L1131.9,149.4z"/>
	</g>
	<g class="st0">
		<path class="st15" d="M1162.4,136.5l0.3,0c0.6,0.1,0.7-0.1,0.8-1.1l0.5-4.6c0.1-0.6,0-0.7-0.2-0.7c-0.2,0-0.6,0.1-0.8,0.3
			l-0.1-0.2c0.7-0.3,1.7-0.9,2.2-1.2l0.3,0l-0.8,7.1c-0.1,0.6,0,0.7,0.5,0.8l0.4,0l0,0.3c-0.5-0.1-1-0.2-1.5-0.2
			c-0.5-0.1-1-0.1-1.4-0.1L1162.4,136.5z"/>
	</g>
	<g class="st0">
		<path class="st15" d="M1168.8,136.2c0.4,0,0.6,0.4,0.5,0.8c0,0.4-0.3,0.7-0.8,0.7c-0.4,0-0.6-0.4-0.6-0.7
			C1168,136.5,1168.3,136.1,1168.8,136.2z"/>
	</g>
</g>
</svg>
