<?xml version="1.0" encoding="utf-8"?>
<!-- Generator: Adobe Illustrator 22.1.0, SVG Export Plug-In . SVG Version: 6.00 Build 0)  -->
<svg version="1.1" id="Layer_1" xmlns="http://www.w3.org/2000/svg" xmlns:xlink="http://www.w3.org/1999/xlink" x="0px" y="0px"
	 viewBox="0 0 20.4 12.6" style="enable-background:new 0 0 20.4 12.6;" xml:space="preserve">
<style type="text/css">
	.st0{display:none;}
	.st1{display:inline;fill:#F1F2F2;stroke:#F1F2F2;stroke-miterlimit:10;}
	.st2{display:inline;}
	.st3{fill:#F391BC;}
	.st4{fill:#FFFEF4;}
</style>
<g id="Layer_1_1_" class="st0">
	
		<image style="display:inline;overflow:visible;opacity:0.53;enable-background:new    ;" width="1792" height="944" xlink:href="52E95A17CCD74063.png"  transform="matrix(6.334388e-02 0 0 6.334388e-02 -4.6003 4.0947)">
	</image>
</g>
<g id="Layer_2_1_" class="st0">
	<circle class="st1" cx="23.6" cy="32.9" r="11"/>
	<circle class="st1" cx="48.7" cy="32.9" r="11"/>
	<circle class="st2" cx="23.7" cy="37" r="5.5"/>
	<circle class="st2" cx="48.8" cy="36.8" r="5.5"/>
</g>
<path class="st3" d="M20.4,10.7c0,0-9.1-9.3-20.2,1.9c0,0-2.3-10.3,8.5-12.5C8.7,0.1,19.2-1.3,20.4,10.7z"/>
<g>
	<path d="M20.4,10.6C19.7,10,18.9,9.5,18,9.1c-0.4-0.2-0.8-0.4-1.3-0.6c-0.4-0.2-0.9-0.3-1.3-0.5c-1.8-0.5-3.6-0.8-5.4-0.5
		C8.2,7.7,6.4,8.4,4.8,9.3c-0.8,0.4-1.6,1-2.4,1.5l-2.2,1.7l0,0l2.1-1.9C3.1,10.1,3.8,9.4,4.6,9c1.6-1,3.5-1.6,5.3-1.9
		C13.8,6.6,17.7,8,20.4,10.6L20.4,10.6z"/>
</g>
<g>
	<path class="st4" d="M13.6,2.5C12.3,2.1,11,1.9,9.7,1.8c-0.6,0-1.3,0-1.9,0.1c-0.6,0-1.2,0.2-1.9,0.3l0,0c0.5-0.5,1.2-0.7,1.9-0.8
		c0.7-0.1,1.4,0,2,0C11.1,1.5,12.4,1.9,13.6,2.5L13.6,2.5z"/>
</g>
<path d="M14.3,7.5c0,0,1.3-1.9,2.1-2.1c0,0,0.2-0.4-0.2-0.3c0,0-1.9,0.9-2.5,2.2"/>
<path d="M12.4,7.4c0,0-0.1-2.5,1-3.5c0,0,0-0.3-0.2-0.1c0,0-1.2,1.2-1.6,3.6"/>
<path d="M10.5,7.2L9.6,3.4c0,0-0.3-0.5-0.1,1c0.2,1.5,0.3,2.9,0.3,2.9"/>
<path d="M8.5,7.7c0,0-2.6-3.4-2.5-2.8c0,0,2.1,2.3,1.8,3"/>
<path d="M6.4,8.2c0,0-2.6-1.4-3.1-1.1c0,0,2.5,0.5,2,1.6"/>
</svg>
