<?xml version="1.0" encoding="utf-8"?>
<!-- Generator: Adobe Illustrator 23.0.0, SVG Export Plug-In . SVG Version: 6.00 Build 0)  -->
<svg version="1.1" id="Layer_1" xmlns="http://www.w3.org/2000/svg" xmlns:xlink="http://www.w3.org/1999/xlink" x="0px" y="0px"
	 viewBox="0 0 87 92" style="enable-background:new 0 0 87 92;" xml:space="preserve">
<style type="text/css">
	.st0{clip-path:url(#SVGID_2_);fill:#FDF5DA;}
	.st1{clip-path:url(#SVGID_2_);fill:#F9ED32;}
</style>
<text transform="matrix(1 0 0 1 1233.0713 60.0005)" style="fill:#F17DB1; font-family:'Blimey-0.1-900'; font-size:190px;"> </text>
<g>
	<defs>
		<rect id="SVGID_1_" x="13" y="14.49" width="58.68" height="63.51"/>
	</defs>
	<clipPath id="SVGID_2_">
		<use xlink:href="#SVGID_1_"  style="overflow:visible;"/>
	</clipPath>
	<path class="st0" d="M41.63,41.37c0,0-0.56-23.46-9.38-25.53c0,0-12.01,0,5.26,26.65c0,0-13.33-16.33-22.15-12.01
		c0,0-5.63,12.58,17.83,17.08c0,0-13.89-3.19-19.33,3.19c0,0-7.32,10.7,21.02,3.57c0,0-9.2,12.2-6.01,18.96c0,0,1.31,4.69,6.94-0.94
		c0,0,5.82-11.45,5.26-16.52c0,0,2.06,23.09,8.82,22.15c0,0,11.45-1.5-2.44-25.9c0,0,12.95,5.44,17.83,1.31
		c0,0,14.64-6.01-0.38-8.26l-16.08,0.5c0,0,17.08-4.19,19.15-12.83c0,0,4.76-10.14-8.95-2.63L46.51,41.93
		c0,0,16.89-17.83,12.2-25.53C58.71,16.4,48.39,4.2,41.63,41.37"/>
	<path class="st1" d="M46.74,48.56c0,3.33-2.81,6.02-6.28,6.02s-6.28-2.7-6.28-6.02c0-3.33,2.81-6.02,6.28-6.02
		S46.74,45.24,46.74,48.56"/>
</g>
</svg>
